<svg width="51" height="42" viewBox="0 0 51 42" fill="none" xmlns="http://www.w3.org/2000/svg">
<path fill-rule="evenodd" clip-rule="evenodd" d="M16.0696 0.820397C15.7832 0.957851 15.0596 2.17495 14.6798 3.1579C13.6389 5.85144 14.0062 9.04862 15.516 10.438C16.2834 11.1443 18.0793 11.8226 19.1816 11.8226C19.4336 11.8226 19.4786 11.881 19.6941 12.4872C19.8239 12.8528 19.9491 13.2039 19.9721 13.2676C20.0035 13.3544 19.2151 13.3919 16.8257 13.4172L13.6374 13.4509L12.8494 13.7271C10.345 14.6049 8.59234 16.7318 8.01027 19.5996C7.78807 20.6947 7.85898 22.5705 8.16284 23.6329C8.35791 24.3151 8.95073 25.6352 9.15784 25.8486C9.20784 25.9 9.24867 25.9716 9.24867 26.0075C9.24867 26.0434 8.48307 26.0959 7.54744 26.1242C6.07057 26.1688 5.74215 26.2093 5.05722 26.4315C3.75462 26.854 3.31052 27.2501 3.52079 27.8022C3.73046 28.3528 4.15996 28.4189 5.00791 28.0309C5.87283 27.6351 6.80215 27.5219 7.69438 27.7035C8.80911 27.9305 9.48329 28.2989 10.3403 29.1496C11.1792 29.9824 11.5732 30.6116 11.9751 31.7613C12.2282 32.4851 12.2503 32.6648 12.2486 33.9767C12.2468 35.2445 12.2182 35.489 11.9934 36.1593C11.2616 38.3424 9.68498 39.8911 7.79527 40.2833C5.42656 40.7747 2.95884 39.2322 1.95871 36.6352C1.21391 34.701 1.32003 32.5671 2.25319 30.714C2.46651 30.2906 2.64098 29.8323 2.64098 29.6957C2.64098 29.3101 2.30329 29.0367 1.87103 29.0726C1.56007 29.0984 1.46096 29.1713 1.1931 29.5715C0.391499 30.769 -0.0835652 32.7394 0.0121971 34.47C0.201059 37.8834 2.18347 40.6143 5.20516 41.6233C5.72164 41.7958 6.51802 41.8058 21.8815 41.8308L38.0154 41.8572L38.2775 41.6514C38.639 41.3674 38.6401 40.8639 38.2796 40.5809C38.0236 40.3798 37.9361 40.3768 32.3923 40.3768H26.7649L27.3337 39.8106C29.0392 38.1131 29.8464 35.5572 29.5649 32.7459L29.5156 32.2536L36.3798 32.2283C43.1093 32.2036 43.2475 32.1992 43.4231 32.0055C43.6688 31.7344 43.6512 31.2578 43.3857 30.9927L43.1693 30.7767L36.0851 30.7496L29.0009 30.7224L28.8144 30.3088C28.5108 29.6353 27.9099 28.7662 27.3229 28.1517L26.7735 27.5766L35.2946 27.5783C42.228 27.5797 43.9375 27.6058 44.4689 27.7182C46.4343 28.1342 48.0096 29.7278 48.7086 32.0074C48.9796 32.8907 49.0272 34.637 48.8074 35.6259L48.6707 36.2413H43.9951H39.3195L39.0775 36.4831C38.748 36.8119 38.7555 37.2474 39.0952 37.5142C39.349 37.7135 39.4545 37.7183 43.6319 37.7183C45.9841 37.7183 47.9086 37.7474 47.9086 37.7831C47.9086 37.9532 47.0497 38.9293 46.5951 39.2757C45.396 40.1894 44.6875 40.3768 42.4315 40.3768C40.7946 40.3768 40.7371 40.3837 40.5291 40.6046C40.2211 40.932 40.2459 41.3913 40.5859 41.6591C40.848 41.8655 40.922 41.8712 42.7803 41.8284C44.865 41.7804 45.2676 41.704 46.3797 41.1448C48.1791 40.2399 49.6251 38.3566 50.1754 36.201C50.2847 35.7727 50.3742 35.2989 50.3742 35.1483C50.3742 34.9977 50.4186 34.8471 50.4728 34.8136C50.5271 34.7802 50.5714 34.3493 50.5714 33.856C50.5714 33.3628 50.5397 32.991 50.5008 33.0298C50.462 33.0685 50.3735 32.765 50.3042 32.3553C49.8357 29.5863 47.8172 27.1837 45.2951 26.393C44.7322 26.2165 44.281 26.167 42.8505 26.1248C41.8856 26.0962 41.1107 26.0457 41.1285 26.0124C42.0154 24.3535 42.3652 23.219 42.4522 21.7181C42.5178 20.5871 42.3974 19.6645 42.0348 18.5183C41.8142 17.821 41.7424 17.7026 41.459 17.5677C41.1638 17.4272 41.108 17.4277 40.8251 17.5738C40.3894 17.7987 40.3572 18.0725 40.6557 19.0161C40.9813 20.0449 41.0779 21.3559 40.9084 22.4439L40.7838 23.2443H34.7931C28.8819 23.2443 28.7991 23.2469 28.5427 23.4484C28.2069 23.712 28.1857 24.2294 28.4987 24.5204C28.7107 24.7177 28.8145 24.7212 34.4185 24.7212H40.1225L39.9665 25.0225C39.8807 25.1882 39.654 25.4965 39.463 25.7077L39.1156 26.0917L30.4199 26.1252C20.8157 26.1622 21.3047 26.1307 19.9788 26.7989L19.4043 27.0884L19.8968 26.4782C20.9814 25.1345 21.5685 23.4221 21.6301 21.4227L21.6666 20.2412L25.5021 20.1919C28.5521 20.1527 29.3709 20.115 29.5006 20.0076C29.7403 19.8087 29.714 19.1851 29.456 18.9518C29.2603 18.7749 29.0224 18.7626 25.277 18.7365L21.3055 18.7087L21.0909 18.1457C20.7497 17.2503 20.1145 16.258 19.4227 15.5396L18.7827 14.8749L27.4037 14.8764C34.6692 14.8776 36.1221 14.9007 36.6441 15.0237C37.3918 15.1997 37.929 15.4597 38.5979 15.9693C39.2128 16.4376 39.6116 16.4751 39.913 16.0924C40.1451 15.7979 40.1621 15.6683 40.011 15.3473C39.7844 14.8667 38.4334 14.0254 37.2574 13.6329C36.7532 13.4647 36.1828 13.4497 29.1552 13.421L21.5954 13.39L21.2408 12.4261C21.0457 11.8959 20.8861 11.4282 20.8861 11.3867C20.8861 11.3452 21.1547 11.0187 21.4829 10.661C21.8484 10.2628 22.2383 9.69099 22.4895 9.18489C22.863 8.43254 22.9029 8.27835 22.9375 7.45688C22.97 6.68375 22.9406 6.46004 22.7323 5.89103C21.9282 3.6959 20.0159 1.89059 17.5384 0.987882C16.6803 0.675165 16.4311 0.646808 16.0696 0.820397ZM16.489 2.72013C15.1758 4.9576 15.2829 8.44032 16.6982 9.51809C17.2913 9.96974 18.815 10.4323 18.815 10.1608C18.815 10.1132 18.3934 8.91609 17.8781 7.50049C17.3628 6.085 16.9412 4.84387 16.9412 4.74246C16.9412 4.64114 17.0243 4.45583 17.1257 4.33069C17.3414 4.06474 17.9421 4.0161 18.1712 4.24591C18.2494 4.32439 18.7402 5.56285 19.2617 6.99794C19.7832 8.43303 20.2452 9.64334 20.2883 9.68754C20.385 9.78689 21.0125 8.9475 21.2776 8.36431C21.4088 8.07571 21.4742 7.7176 21.4757 7.28013C21.4775 6.70974 21.426 6.52246 21.0687 5.8032C20.49 4.63868 19.3168 3.47958 18.0754 2.84607C16.769 2.17948 16.8047 2.18233 16.489 2.72013ZM13.7853 14.9824C12.9763 15.139 11.955 15.7245 11.2324 16.4459C10.0375 17.6389 9.34729 19.4069 9.34729 21.275C9.34729 25.5419 12.8963 28.6307 16.3382 27.3593C18.0296 26.7346 19.4409 25.0581 19.968 23.0473C20.1981 22.1697 20.1997 20.3588 19.9711 19.5027C19.3549 17.1946 17.6435 15.3928 15.6789 14.9838C15.0801 14.8591 14.4249 14.8586 13.7853 14.9824ZM13.7877 16.7004C11.8617 17.2394 10.6093 19.0421 10.6093 21.275C10.6093 23.6559 12.0987 25.5673 14.2393 25.9334C14.8151 26.0318 14.8915 26.0238 15.1405 25.8391C15.3207 25.7053 15.4233 25.5287 15.4443 25.3161C15.4898 24.8552 15.184 24.5655 14.5761 24.4937C12.5431 24.2532 11.4096 21.6449 12.4527 19.6074C12.9603 18.6157 13.7665 18.0843 14.7715 18.0786C15.4752 18.0746 16.0421 18.3273 16.5658 18.8785C16.9574 19.2907 17.3302 20.1816 17.4189 20.9173C17.512 21.6892 17.7144 21.9643 18.1893 21.9643C18.8678 21.9643 19.0613 21.4007 18.8047 20.1721C18.2925 17.7203 15.9458 16.0964 13.7877 16.7004ZM33.1463 18.8141C32.7065 18.9911 32.578 19.6555 32.918 19.995C33.1001 20.1768 33.2467 20.1919 34.824 20.1919C36.4825 20.1919 36.5389 20.1852 36.7471 19.9641C37.1013 19.5877 37.0179 19.0954 36.56 18.859C36.2435 18.6956 33.5298 18.66 33.1463 18.8141ZM21.971 27.6768C19.8196 28.0501 18.0312 29.9458 17.4823 32.4347C17.2346 33.5574 17.3127 35.2396 17.6594 36.2508C18.3604 38.2953 19.8183 39.7549 21.6299 40.226C23.8453 40.8021 26.2379 39.5477 27.3865 37.2081C27.9632 36.0335 28.1257 35.3215 28.124 33.9767C28.1223 32.6332 27.9591 31.9325 27.367 30.7274C26.5795 29.1248 25.0388 27.9252 23.4503 27.6779C22.7355 27.5666 22.6064 27.5665 21.971 27.6768ZM12.1023 28.8603C13.1569 30.1923 13.7853 32.1054 13.7853 33.9839C13.7853 36.1933 12.9635 38.2991 11.4969 39.8472L10.9953 40.3768H14.8158H18.6362L18.0107 39.699C16.6137 38.1859 15.9695 36.5689 15.8826 34.3575C15.8119 32.557 16.202 30.8913 16.9845 29.6539C17.1235 29.4341 17.2371 29.2314 17.2371 29.2032C17.2371 29.1751 16.6269 29.1511 15.881 29.1501C13.8812 29.1472 13.3262 29.0435 11.8222 28.3916C11.7461 28.3586 11.8721 28.5695 12.1023 28.8603ZM22.1848 29.3996C21.9128 29.7447 21.9148 29.9629 22.1929 30.2815C22.3546 30.4668 22.566 30.5598 22.9728 30.6249C23.7228 30.7449 24.2332 31.0214 24.7171 31.5704C25.303 32.235 25.5512 32.9509 25.5512 33.9767C25.5512 34.6042 25.4968 34.9541 25.3338 35.3751C25.0835 36.0212 24.3756 36.8571 23.8536 37.1231C22.1221 38.0049 20.1559 36.6427 19.9153 34.3945C19.8261 33.5611 19.6357 33.2875 19.1449 33.2875C18.4399 33.2875 18.2336 34.0063 18.5693 35.293C19.1866 37.6597 21.257 39.1922 23.3234 38.8121C24.671 38.5642 25.7723 37.7359 26.4257 36.4787C26.8775 35.6093 27.0437 34.9143 27.0354 33.927C27.0234 32.4949 26.5471 31.3395 25.5646 30.3585C24.7909 29.5861 24.0751 29.243 23.097 29.1761C22.4265 29.1302 22.3899 29.1391 22.1848 29.3996ZM5.69827 29.5074C4.1926 30.0509 3.0542 31.5239 2.80498 33.2512C2.68111 34.1101 2.77204 34.4603 3.16841 34.65C3.38626 34.7543 3.50392 34.7577 3.72474 34.6664C4.04644 34.5333 4.18077 34.2404 4.25542 33.5091C4.46391 31.4673 6.34612 30.2497 7.97822 31.1009C8.59806 31.4242 9.04788 31.9712 9.34848 32.7674C9.62511 33.4999 9.59198 34.7654 9.27776 35.4656C8.84432 36.4322 8.00652 37.0854 7.05669 37.1977C6.44898 37.2696 6.19138 37.4957 6.19138 37.9572C6.19138 38.2079 6.26101 38.3494 6.4619 38.5072C6.69386 38.6893 6.80974 38.7105 7.27553 38.6554C7.57426 38.6202 8.09637 38.4635 8.43592 38.3073C11.2815 36.9977 11.9328 32.8498 9.65578 30.5383C8.84649 29.7167 8.16215 29.4132 7.03519 29.3763C6.39582 29.3555 6.01593 29.3927 5.69827 29.5074ZM0.0136764 33.9767C0.0136764 34.4912 0.0303436 34.7017 0.0506598 34.4444C0.070976 34.1871 0.070976 33.7663 0.0506598 33.509C0.0303436 33.2517 0.0136764 33.4622 0.0136764 33.9767ZM31.7644 36.3592C31.3132 36.5768 31.3248 37.4795 31.781 37.6543C31.8728 37.6895 32.5676 37.7183 33.325 37.7183C34.672 37.7183 34.7077 37.7128 34.9553 37.4656C35.1594 37.2618 35.1967 37.1523 35.1478 36.8995C35.0343 36.3128 34.8323 36.2405 33.3262 36.248C32.5865 36.2517 31.8836 36.3017 31.7644 36.3592Z" fill="#331812"/>
</svg>
