<svg width="48" height="42" viewBox="0 0 48 42" fill="none" xmlns="http://www.w3.org/2000/svg">
<path fill-rule="evenodd" clip-rule="evenodd" d="M13.0207 0.511387C12.5453 0.702502 12.4946 0.936526 12.4554 3.12103C12.4043 5.96965 12.6457 7.54846 13.4167 9.4077C14.264 11.4511 15.7001 12.9108 17.4148 13.4714C17.9977 13.6619 18.2731 13.6949 19.251 13.6915C20.5409 13.687 21.1748 13.5526 22.2558 13.0546L22.9136 12.7515L23.3744 13.7289C24.4799 16.0735 25.0821 18.5726 25.1597 21.1379L25.1875 22.0566L24.4972 22.1225C22.1902 22.3431 19.7927 23.2625 17.8244 24.6817L17.3642 25.0135L14.603 25.0748C13.0844 25.1085 11.383 25.1624 10.822 25.1944L9.80221 25.2527L9.68256 24.8261C9.53769 24.3097 9.01049 23.795 8.5353 23.7059C8.35573 23.6723 6.62596 23.7129 4.69121 23.7962C1.39024 23.9382 1.15058 23.9601 0.801289 24.1508C0.54312 24.2917 0.363369 24.4861 0.214542 24.7856L0 25.2172L0.2867 31.9496L0.573309 38.6819L0.79908 39.0665C0.951312 39.3257 1.15923 39.5159 1.4381 39.6506L1.85154 39.8505L5.37405 39.7022C8.00948 39.5913 8.99448 39.5184 9.28523 39.4128C9.7029 39.261 10.1047 38.8564 10.1952 38.4967C10.2268 38.3711 10.3189 38.2741 10.4065 38.2741C10.4919 38.2741 13.4799 38.9751 17.0464 39.8321C20.6128 40.689 23.8414 41.4384 24.2211 41.4975C25.21 41.6512 27.559 41.5528 28.5052 41.3179C29.5633 41.0553 30.6463 40.6443 31.5678 40.1555C32.0071 39.9225 35.5933 37.9464 39.5372 35.7641C46.9153 31.6816 46.9404 31.6659 47.1047 31.0377C47.2315 30.553 47.0519 30.161 46.4186 29.5404C44.9943 28.1447 43.4575 27.4087 41.9358 27.3935C41.2508 27.3866 41.1055 27.4219 39.948 27.8779L38.6992 28.3697L37.2815 26.9528C35.6984 25.3703 34.6069 24.5657 32.8727 23.7026C31.2004 22.8704 28.5758 22.1028 27.4021 22.1028C27.1333 22.1028 26.9592 22.0579 26.9296 21.9809C26.8576 21.7935 27.2256 20.2519 27.6345 19.0276C28.0491 17.7864 28.7647 16.2684 29.4678 15.1384L29.9423 14.376L30.234 14.5678C30.7898 14.9331 31.5478 15.2872 32.2317 15.501C33.1957 15.8022 34.8368 15.8084 35.7719 15.5144C39.0377 14.4872 41.0931 10.6059 41.31 5.05662L41.3675 3.58439L41.1372 3.3171C40.8409 2.97328 40.4152 2.91741 38.0086 2.90712C32.0979 2.88186 28.8125 4.59436 27.9032 8.17437C27.5497 9.56555 27.7197 11.1917 28.3542 12.4905L28.7081 13.2151L28.1634 14.0525C27.7003 14.7645 26.7745 16.5389 26.4559 17.3249C26.3705 17.5355 26.3532 17.5091 26.248 17.0081C25.9655 15.6626 25.3104 13.8613 24.6113 12.5079L24.1725 11.6582L24.4386 11.2986C24.8411 10.7546 25.2214 9.89357 25.3717 9.18525C25.547 8.35905 25.5465 6.94241 25.3706 6.24943C25.1324 5.3104 24.5428 4.23739 23.8792 3.53532C22.3105 1.87519 19.3754 0.823787 15.441 0.51249C14.0318 0.400945 13.2961 0.400669 13.0207 0.511387ZM14.0974 3.61149C14.0982 6.03792 14.4085 7.6624 15.166 9.20795C16.1266 11.1678 17.6943 12.1931 19.5271 12.0604C20.2383 12.0089 21.3454 11.7144 21.7162 11.4781L21.9266 11.3441L21.7217 11.0497C20.9034 9.87455 19.3154 8.29372 17.9134 7.25857C17.5484 6.98918 17.2237 6.70094 17.1919 6.61825C16.9231 5.91902 17.5502 5.22834 18.2222 5.48332C18.9993 5.77835 21.7417 8.24337 22.7964 9.59486L23.2531 10.1801L23.5017 9.6408C23.6442 9.3318 23.7933 8.78143 23.8508 8.35225C24.1185 6.35675 23.1852 4.54612 21.411 3.61875C19.737 2.74367 16.8447 2.07577 14.7181 2.0732L14.0968 2.07247L14.0974 3.61149ZM35.5893 4.65877C34.0607 4.8542 31.9336 5.54341 31.2003 6.08092C29.9124 7.02464 29.2325 8.68174 29.4552 10.334C29.5088 10.7314 29.6214 11.2283 29.7056 11.4381L29.8585 11.8197L30.9284 10.7751C32.0473 9.6827 33.4548 8.57947 34.5277 7.95394C35.3827 7.45548 35.8833 7.45713 36.1435 7.95954C36.4518 8.55466 36.282 8.86854 35.3543 9.41873C34.289 10.0505 32.8896 11.1486 31.9211 12.1125C30.888 13.1408 30.8898 13.1181 31.8035 13.5514C35.9289 15.5083 39.1821 12.1634 39.6389 5.49508L39.7035 4.55329L37.9678 4.56486C37.0132 4.5713 35.9428 4.61356 35.5893 4.65877ZM23.8989 23.8995C22.4958 24.1612 20.4102 24.9348 19.7629 25.4337C19.5953 25.5629 19.6177 25.5805 20.1311 25.7252C21.0273 25.9776 22.4629 26.738 23.287 27.3967L24.0555 28.011L27.1239 27.8926C28.8115 27.8275 30.3639 27.8016 30.5737 27.835C31.5572 27.9921 32.5632 28.8685 32.835 29.8052C32.9182 30.0918 33.0124 30.3952 33.0445 30.4793C33.095 30.6118 33.3511 30.5334 34.9436 29.8978C35.956 29.4938 36.8222 29.1267 36.8684 29.0821C36.9181 29.0339 36.618 28.6585 36.1321 28.1609C34.1246 26.1053 31.5832 24.6808 28.7392 24.0172C27.6662 23.7668 24.9634 23.7011 23.8989 23.8995ZM3.97257 25.4489L1.71763 25.5484L1.74441 26.4213C1.80331 28.339 2.22632 38.1234 2.25136 38.1485C2.29811 38.195 8.50465 37.915 8.55582 37.864C8.58261 37.8372 8.49314 35.1172 8.35683 31.8196C8.22053 28.522 8.11017 25.7103 8.11164 25.5713L8.11431 25.3187L7.17092 25.334C6.652 25.3425 5.21279 25.3941 3.97257 25.4489ZM12.5404 26.7548C11.0515 26.8234 9.82623 26.8902 9.81749 26.9032C9.78702 26.9479 10.2102 36.4461 10.2436 36.4685C10.3541 36.5428 23.9313 39.7597 24.4972 39.8456C25.9166 40.0611 27.9532 39.8212 29.4213 39.2655C29.8262 39.1122 33.5486 37.1224 37.6933 34.8436L45.2291 30.7006L44.9184 30.434C43.9135 29.5719 42.8451 29.0856 41.958 29.0864C41.431 29.0869 41.0356 29.2265 36.9027 30.8726C33.4923 32.2309 32.3028 32.7453 31.9326 33.022C31.0772 33.6615 31.1828 33.6483 24.6824 33.9203L18.7801 34.1673L18.5331 33.9832C18.0373 33.6136 18.0784 32.8562 18.6075 32.6104C18.7536 32.5425 20.9238 32.4156 24.5842 32.2607C30.8569 31.9955 30.7875 32.0042 31.1346 31.4362C31.4138 30.9793 31.4395 30.6254 31.2281 30.1483C31.0757 29.8043 30.9601 29.6869 30.6301 29.5412C30.2293 29.3642 30.1605 29.3634 27.152 29.4988C22.9295 29.6887 23.3842 29.7235 22.8646 29.1708C21.6937 27.9252 19.5293 27.0066 17.0445 26.7009C16.1403 26.5898 16.109 26.5901 12.5404 26.7548Z" fill="#331812"/>
</svg>
