<svg width="35" height="48" viewBox="0 0 35 48" fill="none" xmlns="http://www.w3.org/2000/svg">
<path fill-rule="evenodd" clip-rule="evenodd" d="M11.8956 0.18579C11.6294 0.315665 11.4029 0.524309 11.249 0.781433C11.015 1.17218 11.0121 1.20482 11.0121 3.396V5.61484H6.65709C2.49974 5.61484 2.27817 5.62356 1.77659 5.80726C1.12625 6.04544 0.376182 6.80585 0.14963 7.45681C-0.380396 8.97958 0.568344 10.7223 2.1272 11.089L2.39063 11.151V14.4668V17.7825L2.1043 17.8987C1.74527 18.0442 1.17376 18.656 0.977383 19.1049C0.753705 19.6164 0.784072 20.4824 1.04434 21.0158C1.26496 21.468 1.75178 21.9577 2.16293 22.1411C2.38095 22.2384 2.39063 22.2832 2.39063 23.1972C2.39063 24.1112 2.38095 24.156 2.16293 24.2532C1.75178 24.4367 1.26496 24.9263 1.04434 25.3785C0.784072 25.912 0.753705 26.778 0.977383 27.2894C1.17414 27.7391 1.74546 28.3503 2.10583 28.4964L2.39369 28.6131L2.36821 31.107L2.34273 33.6008L1.92929 33.6699C0.845284 33.851 0 34.8705 0 35.9971C0 37.1237 0.845284 38.1434 1.92929 38.3244L2.34273 38.3934L2.39063 42.6106C2.43249 46.2925 2.45855 46.8636 2.59639 47.1093C3.01769 47.8609 3.44647 48 5.34213 48C6.74483 48 6.89513 47.9832 7.27994 47.784C7.56502 47.6364 7.76686 47.4389 7.91764 47.1598C8.13059 46.7657 8.13825 46.6712 8.13882 44.4454C8.13911 43.1652 8.18289 41.9858 8.23721 41.7944C8.41107 41.1814 8.90652 40.5754 9.46633 40.2907L9.98017 40.0293H17.1429H24.3055L24.8194 40.2907C25.3792 40.5754 25.8746 41.1814 26.0485 41.7944C26.1028 41.9858 26.1466 43.1652 26.1469 44.4454C26.1475 46.6712 26.1551 46.7657 26.3681 47.1598C26.5189 47.4389 26.7207 47.6364 27.0058 47.784C27.3906 47.9832 27.5409 48 28.9436 48C30.8392 48 31.268 47.8609 31.6893 47.1093C31.8272 46.8636 31.8532 46.2925 31.8951 42.6106L31.943 38.3934L32.3564 38.3244C33.4404 38.1434 34.2857 37.1237 34.2857 35.9971C34.2857 34.8705 33.4405 33.851 32.3564 33.6698L31.943 33.6008L31.9187 22.3759L31.8943 11.1512L32.1581 11.0891C33.3003 10.8203 34.1948 9.74824 34.2732 8.55376C34.3301 7.68853 34.0939 7.09579 33.4364 6.45279C32.5602 5.5959 32.6956 5.61484 27.4299 5.61484H22.903L22.8728 3.38775C22.839 0.899305 22.8136 0.789404 22.1557 0.29813L21.8039 0.0353793L17.0546 0.0106234C12.3739 -0.0137574 12.2993 -0.0112256 11.8956 0.18579ZM12.6406 3.59873V5.61484H16.9513H21.262V3.59873V1.58263H16.9513H12.6406V3.59873ZM2.34273 7.29796C1.49994 7.64126 1.40616 8.93926 2.19138 9.39331C2.44897 9.54222 3.48517 9.55328 17.183 9.55328H31.8979L32.2558 9.2323C32.5867 8.93542 32.6135 8.87222 32.6135 8.39013C32.6135 7.92661 32.579 7.83509 32.3004 7.5624L31.9872 7.25586L17.2608 7.23785C9.16123 7.22801 2.4481 7.25502 2.34273 7.29796ZM4.0628 11.265C4.03732 11.3301 4.02784 12.7755 4.04173 14.4771L4.06702 17.5708H4.91824H5.76946L5.90367 17.0551C6.49261 14.7924 9.13958 13.3469 13.4475 12.9353C14.7848 12.8076 19.6423 12.8055 20.8586 12.9322C25.1955 13.384 27.6389 14.699 28.3608 16.9698C28.5337 17.5135 28.5423 17.9724 28.5423 26.6143V35.688L28.3268 35.9981C28.0402 36.4103 27.6983 36.6476 27.2417 36.7513C26.7468 36.8637 7.53896 36.8637 7.044 36.7513C6.61523 36.6539 6.2742 36.4288 5.98883 36.0549C5.79983 35.8072 5.7892 35.6459 5.74341 32.3098L5.69551 28.8235H4.88126H4.06702L4.04163 31.7728C4.01136 35.3055 4.08215 35.1038 2.84814 35.1737C2.1498 35.2133 2.04845 35.2435 1.84767 35.472C1.56335 35.7956 1.56278 36.198 1.84623 36.5207C2.04424 36.7459 2.15057 36.7782 2.82812 36.8182C3.41859 36.8531 3.63614 36.9061 3.80358 37.056L4.01912 37.2489V41.8273V46.4059H5.26444H6.50976V44.2537C6.50976 43.0293 6.55583 41.8873 6.61666 41.6046C6.87895 40.3852 7.69837 39.3597 8.85469 38.8036L9.52323 38.4821H17.1429H24.7625L25.4279 38.8028C26.5786 39.3573 27.4049 40.3906 27.6682 41.6046C27.7302 41.8903 27.776 43.0162 27.776 44.2537V46.4059H29.0213H30.2666V41.8273V37.2489L30.4821 37.056C30.6496 36.9061 30.8671 36.8531 31.4576 36.8182C32.1351 36.7782 32.2415 36.7459 32.4395 36.5207C32.7229 36.198 32.7224 35.7956 32.438 35.472C32.2373 35.2435 32.1359 35.2133 31.4376 35.1737C30.1218 35.0992 30.2713 36.6282 30.243 22.9571L30.2187 11.1943L17.1639 11.1705C6.72893 11.1515 4.09987 11.1705 4.0628 11.265ZM14.0296 14.4897C10.8283 14.8128 9.0299 15.3956 8.09581 16.4126C7.35255 17.2218 7.3719 17.0383 7.3719 23.2608V28.7766H10.1976H13.0233L12.5792 28.1906C11.2791 26.4749 11.0764 24.3255 12.0378 22.451C12.3195 21.9018 12.8972 21.1849 14.2701 19.6807C15.4318 18.4078 15.7842 17.7678 15.9053 16.7111C15.9958 15.9208 16.1658 15.5865 16.5214 15.4991C16.9714 15.3887 17.236 15.5595 18.4595 16.7514C21.6478 19.8572 22.8221 21.9969 22.8204 24.6975C22.8198 25.5535 22.7773 25.8568 22.57 26.4792C22.3253 27.2143 21.8617 28.0057 21.3749 28.5188L21.1304 28.7766H24.0221H26.9138V23.2608C26.9138 17.0383 26.9332 17.2218 26.1899 16.4126C25.4282 15.5832 23.9024 14.9776 21.7688 14.658C21.0021 14.543 19.9189 14.4963 17.5739 14.477C15.8353 14.4627 14.2403 14.4685 14.0296 14.4897ZM16.973 18.7664C16.6893 19.3254 16.3107 19.8363 15.6089 20.6077C13.5885 22.8285 13.3174 23.2318 13.1114 24.3225C12.9936 24.9461 13.1077 25.7957 13.3973 26.4514L13.5753 26.8543L13.6427 26.4792C13.8748 25.1891 14.466 24.1268 15.8017 22.6C16.3123 22.0164 17.28 21.2748 17.531 21.2748C17.8316 21.2748 18.1702 21.4718 18.2818 21.7115C18.3403 21.8373 18.3882 22.1743 18.3882 22.4607C18.3882 23.1186 18.5464 23.4413 19.2618 24.2426C19.9897 25.0576 20.2985 25.5655 20.4961 26.2721L20.6533 26.8341L20.8547 26.4148C21.6623 24.7329 21.1364 22.3902 19.4694 20.2433C19.0092 19.6508 17.5066 17.9928 17.4296 17.9928C17.3945 17.9928 17.189 18.341 16.973 18.7664ZM2.74957 19.3979C2.6167 19.5002 2.48067 19.6905 2.44724 19.8207C2.36668 20.1351 2.62015 20.6016 2.93541 20.7189C3.07191 20.7697 3.74879 20.7995 4.43956 20.7852L5.69551 20.7591L5.72329 19.9855L5.75117 19.2118H4.37116C3.13993 19.2118 2.9652 19.2319 2.74957 19.3979ZM4.01912 23.1972V23.9942H4.88126H5.74341V23.1972V22.4001H4.88126H4.01912V23.1972ZM16.6949 24.0177C16.386 24.3539 15.9486 25.0232 15.6073 25.6821C15.3518 26.1756 15.29 26.4078 15.2833 26.9012C15.2724 27.6927 15.4973 28.1481 16.0771 28.508C16.4372 28.7316 16.6126 28.7766 17.1232 28.7766C18.2453 28.7766 18.8716 28.262 18.9441 27.2805C18.996 26.5774 18.7845 26.1227 18.0041 25.2602C17.6775 24.8992 17.3199 24.4244 17.2095 24.2052C17.0992 23.986 16.9819 23.8067 16.9489 23.8067C16.9159 23.8067 16.8016 23.9016 16.6949 24.0177ZM2.71211 25.8106C2.51104 25.98 2.4481 26.117 2.4481 26.3854C2.4481 26.6539 2.51104 26.7909 2.71211 26.9603C2.96347 27.1719 3.04212 27.1825 4.35976 27.1825H5.74341V26.3854V25.5884H4.35976C3.04212 25.5884 2.96347 25.599 2.71211 25.8106ZM7.3719 32.762V35.1532H17.1429H26.9138V32.762V30.3708H17.1429H7.3719V32.762ZM16.798 32.0985C16.3118 32.3061 16.2029 32.9916 16.5982 33.3552C17.1117 33.8274 17.9092 33.4772 17.9092 32.7794C17.9092 32.4496 17.6536 32.0587 17.4381 32.0587C17.3897 32.0587 17.2927 32.0391 17.2226 32.0152C17.1523 31.9914 16.9613 32.0288 16.798 32.0985Z" fill="#331812"/>
</svg>
