<svg width="48" height="48" viewBox="0 0 48 48" fill="none" xmlns="http://www.w3.org/2000/svg">
<path fill-rule="evenodd" clip-rule="evenodd" d="M46.5 24C46.5 36.4264 36.4264 46.5 24 46.5C18.5178 46.5 13.4936 44.5394 9.59027 41.2811L41.2811 9.59027C44.5394 13.4936 46.5 18.5178 46.5 24ZM40.2805 8.46949L8.46949 40.2805C4.17541 36.183 1.5 30.404 1.5 24C1.5 11.5736 11.5736 1.5 24 1.5C30.404 1.5 36.183 4.17541 40.2805 8.46949ZM48 24C48 37.2548 37.2548 48 24 48C10.7452 48 0 37.2548 0 24C0 10.7452 10.7452 0 24 0C37.2548 0 48 10.7452 48 24Z" fill="#331812"/>
<path fill-rule="evenodd" clip-rule="evenodd" d="M13.229 7.7907C11.9352 8.21361 11.5811 9.92724 12.5958 10.8554C13.2922 11.4925 14.2658 11.5091 14.9507 10.8956C15.6968 10.2274 15.7686 9.08099 15.114 8.29201C14.7149 7.81111 13.8612 7.58408 13.229 7.7907ZM26.8237 8.43305C24.8665 8.80964 23.0275 9.97192 21.933 11.524L21.6744 11.8907L21.094 11.6924C18.9039 10.9441 16.495 11.5411 14.8847 13.2313C14.6138 13.5156 14.243 14.0029 14.0609 14.3142C13.679 14.9667 13.3244 15.986 13.2648 16.6023C13.1772 17.5097 13.195 17.4724 12.8248 17.5249C11.1268 17.766 9.48468 18.5854 8.30047 19.7826C4.57118 23.553 5.50834 29.9414 10.154 32.4176C10.4726 32.5874 10.8916 32.7838 11.0851 32.854C11.2786 32.9242 11.4641 33.0056 11.4972 33.0348C11.5303 33.064 11.6337 33.3183 11.7269 33.5999C12.1055 34.7439 12.6336 35.5742 13.5298 36.4348C15.5297 38.3555 18.458 38.7714 20.9697 37.4916C21.5487 37.1965 21.7187 37.1369 21.7611 37.2139C21.9239 37.5099 22.4332 38.0835 22.7851 38.3669C23.6665 39.0771 24.6616 39.4285 25.7909 39.4285C26.6429 39.4285 27.1914 39.2947 28.0065 38.8882C28.7413 38.5216 29.6026 37.6847 29.965 36.9853C30.0925 36.7392 30.2066 36.5378 30.2185 36.5378C30.2303 36.5378 30.5442 36.6844 30.916 36.8636C31.2878 37.0428 31.9015 37.2739 32.2799 37.3771C32.8915 37.5439 33.1007 37.5651 34.164 37.5676C35.027 37.5697 35.4974 37.5382 35.8527 37.4544C38.1793 36.9055 40.0694 35.4193 41.1236 33.3099C41.5485 32.4599 41.7394 31.8744 41.9011 30.9261C42.2288 29.0038 41.7294 26.7975 40.5938 25.1502L40.2978 24.7207L40.4833 24.1678C40.8491 23.0779 40.8995 22.031 40.6359 20.996C40.1288 19.0044 38.5249 17.4303 36.5614 16.9972L35.9935 16.8719L36.0158 16.5494C36.0281 16.372 36.0027 15.8995 35.9594 15.4994C35.7535 13.5949 35.0754 12.1097 33.7915 10.7513C32.7946 9.69649 31.5277 8.93716 30.1534 8.57073C29.2829 8.33869 27.6624 8.27168 26.8237 8.43305ZM13.5271 8.97711C13.3391 9.05378 13.1418 9.47985 13.2071 9.66771C13.2318 9.73881 13.3162 9.86954 13.3946 9.9581C13.7031 10.3068 14.3569 10.0518 14.3569 9.58287C14.3569 9.2448 14.2982 9.12667 14.0704 9.00682C13.8451 8.88818 13.7565 8.88339 13.5271 8.97711ZM27.163 9.57893C24.1481 10.0833 21.8404 12.6662 21.6274 15.7748C21.5853 16.3893 21.5622 16.4733 21.3869 16.6518C21.132 16.9111 20.8187 16.9154 20.5707 16.663C20.3912 16.4804 20.3885 16.4632 20.4295 15.7501C20.4728 14.9976 20.7177 13.8712 20.9585 13.3173L21.0968 12.9991L20.9305 12.9219C20.2274 12.596 18.8507 12.5045 18.0199 12.7286C16.6289 13.1038 15.5105 14.0249 14.888 15.3082C14.5541 15.9964 14.4139 16.6627 14.4165 17.5483C14.4184 18.2101 14.4028 18.302 14.2596 18.4714C14.1145 18.6431 14.036 18.6648 13.3668 18.7186C12.4024 18.796 11.6499 18.9987 10.874 19.3899C9.34128 20.1628 8.13343 21.5342 7.57313 23.1379C6.46077 26.3218 7.83467 29.8384 10.7949 31.384L11.3665 31.6825L11.4164 31.0495C11.4439 30.7013 11.5305 30.1587 11.609 29.8436C11.7712 29.1926 12.3411 27.9708 12.6694 27.5705C12.8553 27.3438 12.9327 27.302 13.1659 27.302C13.4753 27.302 13.6919 27.4706 13.7654 27.7683C13.7992 27.9054 13.7483 28.0556 13.5645 28.3608C12.9113 29.4458 12.6711 30.1789 12.6169 31.2529C12.534 32.899 13.1456 34.4184 14.3437 35.542C14.944 36.105 15.4657 36.4299 16.1852 36.689C17.5931 37.1959 19.0153 37.1087 20.373 36.4322C21.6437 35.7989 22.5834 34.7369 23.0823 33.3704C23.2448 32.925 23.4301 32.7433 23.7214 32.7433C23.9579 32.7433 24.2492 32.9743 24.3067 33.2075C24.4063 33.6112 23.6637 35.1179 23.0023 35.8543C22.5876 36.3161 22.588 36.3243 23.0664 36.9393C23.7957 37.877 25.1667 38.3943 26.3737 38.1871C27.7131 37.9572 28.7689 37.018 29.2444 35.6334C29.333 35.3753 29.463 35.1199 29.5332 35.0657C29.7425 34.9043 30.0589 34.9467 30.3996 35.1819C30.935 35.5514 31.7724 35.955 32.4203 36.156C32.9758 36.3283 33.1521 36.3482 34.164 36.3526C35.1322 36.3568 35.3668 36.3348 35.8398 36.196C37.841 35.6083 39.34 34.3366 40.176 32.5173C40.6274 31.5351 40.7681 30.8677 40.77 29.7005C40.7729 28.0326 40.3473 26.786 39.3246 25.4662C39.1258 25.2097 38.9839 24.9528 38.9839 24.8497C38.9839 24.7524 39.0817 24.4533 39.2012 24.1851C39.7565 22.9391 39.7403 21.6531 39.154 20.4409C38.8522 19.8169 38.184 19.0663 37.6257 18.7241C37.1421 18.4277 36.3558 18.1414 36.0202 18.1393C35.7757 18.1379 35.7618 18.1515 35.674 18.4779C35.4362 19.3614 34.64 20.9098 34.3394 21.0735C34.1224 21.1917 33.8663 21.1546 33.6614 20.9752C33.3822 20.7307 33.4041 20.4262 33.7392 19.8975C34.5403 18.6336 34.9327 16.9672 34.7649 15.5425C34.6561 14.6195 34.5176 14.1335 34.1257 13.2999C33.4612 11.8862 32.5018 10.8966 31.1118 10.1908C29.9597 9.60585 28.4242 9.36794 27.163 9.57893ZM9.0364 11.4344C8.29161 11.6245 7.73863 12.0979 7.39821 12.8365C7.24883 13.1607 7.2152 13.339 7.2152 13.8078C7.21513 14.3124 7.2432 14.4401 7.44641 14.8601C7.87295 15.7417 8.63955 16.2229 9.61576 16.2218C11.2582 16.22 12.3955 14.5181 11.8129 12.9338C11.4107 11.8401 10.1386 11.153 9.0364 11.4344ZM9.19823 12.6572C8.84761 12.7844 8.66685 12.9542 8.50847 13.3052C8.34755 13.6616 8.34361 13.8997 8.49214 14.2776C8.6684 14.7256 9.06694 14.9877 9.57242 14.9877C10.0107 14.9877 10.319 14.8302 10.5783 14.4739C10.7525 14.2346 10.8164 13.6316 10.6983 13.3415C10.5799 13.0507 10.1981 12.7211 9.87322 12.6293C9.54491 12.5365 9.52873 12.5372 9.19823 12.6572ZM38.645 12.6301C37.5421 12.8503 36.9125 14.1233 37.3902 15.1671C37.8283 16.1244 38.9372 16.5098 39.8352 16.0168C41.1164 15.3136 41.1124 13.4612 39.8282 12.828C39.3669 12.6005 39.0548 12.5483 38.645 12.6301ZM38.8622 13.825C38.6517 13.8608 38.421 14.1724 38.421 14.4206C38.421 14.7092 38.6866 14.9947 38.9625 15.0027C39.4353 15.0164 39.7342 14.5725 39.5343 14.1536C39.4326 13.9408 39.1095 13.7827 38.8622 13.825ZM17.9454 19.3604C17.3982 19.4577 16.6387 19.846 16.1921 20.2566C14.4459 21.8619 14.6676 24.7313 16.6381 26.0271C17.8118 26.799 19.3484 26.811 20.5057 26.0573C22.7179 24.6165 22.7289 21.3648 20.5264 19.894C19.8197 19.422 18.7925 19.2096 17.9454 19.3604ZM27.6203 20.0141C26.7244 20.3327 26.2249 21.3214 26.4904 22.2506C26.9436 23.8369 29.0727 24.038 29.7952 22.5628C30.384 21.3606 29.5204 19.9212 28.2184 19.935C28.0055 19.9372 27.7364 19.9728 27.6203 20.0141ZM18.1104 20.5712C17.3913 20.7254 16.7373 21.2607 16.4253 21.9505C16.1431 22.5742 16.1359 23.3572 16.407 23.9456C17.157 25.5736 19.1486 25.9058 20.3464 24.6028C20.8108 24.0978 20.9933 23.5648 20.9547 22.8273C20.9169 22.1055 20.7096 21.6666 20.1688 21.1637C19.6071 20.6414 18.8284 20.4172 18.1104 20.5712ZM27.7673 21.3651C27.5286 21.6538 27.5357 21.8932 27.7908 22.1527C28.02 22.3859 28.1995 22.4126 28.4948 22.2572C29.021 21.9804 28.7941 21.1448 28.1926 21.1448C28.0074 21.1448 27.906 21.1974 27.7673 21.3651ZM30.6968 28.5197C29.9757 28.6736 29.3346 29.2128 29.0069 29.941C28.864 30.2588 28.8266 30.4538 28.827 30.8803C28.8284 32.3173 29.818 33.3225 31.2322 33.3236C33.1363 33.325 34.2451 31.1145 33.1516 29.4973C32.6406 28.7416 31.5997 28.3271 30.6968 28.5197ZM30.8398 29.7416C30.3258 29.8996 29.9087 30.5968 30.0148 31.1205C30.1367 31.7223 30.6031 32.0989 31.2266 32.0989C32.0879 32.0989 32.6368 31.1538 32.2533 30.3314C32.0328 29.8588 31.365 29.58 30.8398 29.7416Z" fill="#331812"/>
</svg>
