<svg width="34" height="48" viewBox="0 0 34 48" fill="none" xmlns="http://www.w3.org/2000/svg">
<path fill-rule="evenodd" clip-rule="evenodd" d="M7.15461 3.4594C6.13159 3.50301 6.03633 3.52348 5.40078 3.8371C4.22646 4.41643 3.42618 5.53408 3.26674 6.81733C3.22663 7.14043 3.18016 7.41669 3.1636 7.43134C3.14704 7.446 2.91078 7.5217 2.63871 7.59964C1.64675 7.88376 0.62597 8.83508 0.211014 9.86227L0 10.3846V26.0253V41.6661L0.324623 42.3364C0.827942 43.3757 1.62921 44.0831 2.67049 44.4076C3.16387 44.5614 3.8355 44.5703 15.0002 44.5714C22.7916 44.5723 26.9483 44.5413 27.2202 44.4805C28.6314 44.1648 29.9261 42.7711 30.0857 41.3959C30.1774 40.6053 30.1951 40.5675 30.5061 40.4995C31.3937 40.3052 32.3771 39.5785 32.8753 38.7489C33.4769 37.7469 33.4432 38.8038 33.4171 21.7729L33.3934 6.36268L33.07 5.68655C32.4749 4.44253 31.2958 3.57192 30.0889 3.48532C29.2962 3.42847 8.43448 3.40488 7.15461 3.4594ZM5.95737 5.07888C5.15906 5.47714 4.63372 6.25203 4.61742 7.05534L4.61062 7.3905H6.89355C8.32024 7.3905 9.17648 7.35779 9.17648 7.30318C9.17648 7.12058 8.71282 5.99686 8.39544 5.41029L8.06446 4.7986H7.29185C6.60509 4.7986 6.45684 4.8297 5.95737 5.07888ZM9.93315 5.44658C10.0967 5.80292 10.3236 6.38618 10.4374 6.74252L10.6442 7.3905H15.6074H20.5708L20.5087 6.42971C20.4746 5.90123 20.4237 5.31814 20.3956 5.13376L20.3444 4.7986H14.9901H9.63575L9.93315 5.44658ZM21.742 4.93124C21.7701 5.00417 21.8207 5.58734 21.8545 6.22718L21.916 7.3905H22.9419C23.9608 7.3905 23.9674 7.38916 23.9182 7.1894C23.8065 6.73645 23.7628 5.62032 23.8413 5.22314L23.9253 4.7986H22.8082C21.8574 4.7986 21.6986 4.81835 21.742 4.93124ZM25.2348 5.12867C25.1505 5.55973 25.1508 6.22075 25.2354 6.86533L25.3013 7.36798L26.2587 7.41177C27.401 7.46405 27.9709 7.65442 28.6999 8.22741C29.2623 8.66947 29.6713 9.2353 29.9616 9.97301C30.1371 10.4189 30.1628 10.6803 30.1955 12.3509L30.2323 14.2279L30.6751 14.4943C30.9185 14.6407 31.3377 14.9699 31.6066 15.2257L32.0953 15.6908V11.3335C32.0953 6.47538 32.0858 6.38413 31.5079 5.71015C31.3303 5.50306 30.997 5.22332 30.7672 5.08845L30.3495 4.84329L27.8254 4.81585L25.3013 4.78841L25.2348 5.12867ZM3.15957 8.86189C2.28633 9.08533 1.58068 9.82831 1.38713 10.7282C1.31631 11.0576 1.2959 15.4959 1.3155 26.2935L1.3429 41.398L1.58552 41.8572C1.719 42.1098 1.99555 42.4595 2.2003 42.6344C2.91311 43.2435 2.76002 43.2302 9.05087 43.2302H14.7125L14.8991 42.6704C15.3666 41.2678 15.5322 39.6328 15.3585 38.134C15.1999 36.7669 14.7595 35.167 13.8382 32.6113C13.0073 30.3063 12.619 28.9976 12.524 28.1803C12.4793 27.7968 12.502 27.6841 12.6654 27.4777C12.7996 27.3082 12.9428 27.2319 13.1262 27.2319C13.5696 27.2319 13.7752 27.532 13.9525 28.4385C14.0391 28.8809 14.3534 29.9467 14.651 30.8069C14.9487 31.6672 15.428 33.0547 15.7163 33.8904C16.619 36.5072 16.9484 38.8127 16.7004 40.7792C16.5995 41.5799 16.3634 42.6675 16.2023 43.0738C16.1441 43.2206 16.304 43.2302 18.8175 43.2302H21.4947L21.6036 42.5962C21.8057 41.4193 22.4357 40.3065 23.7982 38.7194C24.7802 37.5756 25.3259 36.6676 25.7174 35.5261C25.9817 34.7553 26.0367 34.4578 26.069 33.6257C26.1188 32.3404 26.1381 32.2665 26.4708 32.0948C26.7284 31.9618 26.7778 31.9614 27.049 32.0906C27.4327 32.2732 27.4747 32.4624 27.4159 33.7428C27.3196 35.8398 26.5389 37.6284 24.8932 39.5222C23.71 40.884 23.1025 41.9271 22.9256 42.901L22.8637 43.2421L24.9503 43.2138C26.9026 43.1873 27.0608 43.1728 27.4071 42.9879C27.9204 42.7138 28.325 42.2863 28.5717 41.7573L28.781 41.3086V26.0253V10.7421L28.572 10.2952C28.2772 9.66493 27.9551 9.31699 27.4202 9.05092L26.9571 8.82051H24.5099C22.2634 8.82051 22.0574 8.83338 21.9984 8.97692C21.9629 9.06299 21.9383 9.55563 21.9436 10.0718C21.9587 11.5475 22.4046 12.743 23.81 15.0768C25.7441 18.2881 26.8739 21.517 26.9321 23.9993C26.946 24.5895 26.9266 24.6715 26.7361 24.826C26.4526 25.0561 26.0812 25.0437 25.8537 24.7964C25.7087 24.639 25.6378 24.3527 25.527 23.4781C25.3559 22.1286 24.9022 20.432 24.3569 19.1028C23.8353 17.8315 23.6686 17.5088 22.6338 15.7677C21.679 14.161 21.3585 13.5091 20.9891 12.4225C20.6507 11.4277 20.5119 10.488 20.5686 9.57868L20.6161 8.82051H19.5455H18.475L18.5474 9.55786C18.7316 11.4322 18.5502 14.2621 18.1232 16.1758C17.8624 17.3447 17.2597 19.137 17.0699 19.3086C16.8488 19.5082 16.3159 19.4993 16.1287 19.2928C15.9096 19.0512 15.9453 18.702 16.2949 17.6655C16.6799 16.5243 17.0036 15.0077 17.1487 13.6653C17.2614 12.6237 17.2322 9.12403 17.1092 8.92535C17.0606 8.84705 15.6986 8.82051 11.7265 8.82051H6.40867L6.65917 9.37911C7.49302 11.2379 7.81522 13.0918 7.64477 15.0507C7.48944 16.8372 7.12972 18.04 6.08691 20.2606C4.99156 22.593 4.51688 24.173 4.34222 26.0684C4.12538 28.4208 4.67606 30.8052 5.90159 32.8203C6.14457 33.2198 6.31162 33.6025 6.31162 33.7595C6.31162 34.1045 6.02827 34.382 5.67607 34.382C5.31689 34.382 5.04608 34.0908 4.50408 33.1218C3.01221 30.4546 2.56816 27.3466 3.22842 24.1931C3.46513 23.0621 4.11706 21.2418 4.81769 19.7554C6.05549 17.1291 6.26453 16.3073 6.258 14.0937C6.25379 12.6938 6.22854 12.4373 6.01708 11.6504C5.76551 10.7142 4.96747 8.93259 4.77239 8.87154C4.45332 8.77171 3.53352 8.76617 3.15957 8.86189ZM11.8905 10.8748C11.6025 10.9935 11.5347 11.1909 11.4739 12.0874C11.3656 13.6865 10.8537 14.9643 9.22858 17.6914C7.23813 21.0319 6.81038 22.1997 6.81458 24.2825C6.81736 25.6673 6.96669 26.3677 7.57028 27.8273C8.72105 30.61 9.16573 32.4317 9.35965 35.1573C9.45983 36.566 9.3592 38.5899 9.12562 39.8626C9.05186 40.2647 8.96788 40.7213 8.93905 40.8775C8.8326 41.4536 9.60969 41.8532 10.0465 41.4469C10.363 41.1525 10.6742 39.3311 10.7572 37.2867C10.8796 34.2718 10.3084 30.9378 9.21497 28.2844C8.2471 25.9359 8.04217 24.9838 8.20099 23.5737C8.3608 22.1553 8.854 20.9761 10.3038 18.5462C11.8659 15.928 12.4582 14.5986 12.7135 13.1369C12.8982 12.0797 12.8895 11.3035 12.6904 11.0686C12.5028 10.8473 12.1593 10.7641 11.8905 10.8748ZM30.2152 27.5097V39.1383L30.4551 39.0781C31.0414 38.9313 31.6877 38.2681 31.9319 37.5629C32.0782 37.1404 32.0896 36.457 32.0923 27.988C32.0956 18.0259 32.1114 18.3523 31.5775 17.3672C31.3308 16.9118 30.4414 15.8812 30.2951 15.8812C30.2487 15.8812 30.2152 20.7528 30.2152 27.5097ZM20.4891 23.3087C19.2189 23.4693 17.9272 24.7603 17.3588 26.4374C16.9923 27.5189 16.8477 28.5715 16.906 29.7344C17.0293 32.1935 18.0346 34.1788 19.5802 35.0155C20.1025 35.2983 20.2021 35.3204 20.9492 35.3204C21.6963 35.3204 21.796 35.2983 22.3183 35.0155C24.6634 33.746 25.6948 29.736 24.5336 26.4024C23.7952 24.2826 22.2335 23.0881 20.4891 23.3087ZM20.233 24.7883C18.9752 25.4491 18.0783 27.7361 18.2536 29.8353C18.4129 31.7427 19.1701 33.2778 20.2057 33.793C20.7914 34.0843 21.1071 34.0843 21.6927 33.793C22.4448 33.4189 23.054 32.5188 23.4006 31.2703C24.1018 28.7441 23.2769 25.6268 21.6914 24.8109C21.2876 24.6032 20.6055 24.5926 20.233 24.7883Z" fill="#331812"/>
</svg>
