<svg width="45" height="48" viewBox="0 0 45 48" fill="none" xmlns="http://www.w3.org/2000/svg">
<path fill-rule="evenodd" clip-rule="evenodd" d="M21.1757 3.52227C20.9196 3.63258 20.8707 3.73773 20.3553 5.2867C19.5701 7.64683 18.9004 9.26226 17.7172 11.6499C16.7681 13.5654 14.8945 16.8468 14.7503 16.846C14.7173 16.8458 14.5588 16.5924 14.398 16.283C14.2371 15.9735 13.7661 15.2761 13.3512 14.7332C11.2398 11.9703 9.58229 8.95118 8.63788 6.14782C8.26603 5.04426 8.02925 4.74435 7.59754 4.83029C7.18892 4.91159 7.11573 5.0184 6.82155 5.96284C5.94761 8.76891 4.57264 11.3148 2.25931 14.4106C1.67437 15.1934 1.06249 16.0753 0.899518 16.3704C-0.473174 18.8554 -0.260262 22.0254 1.43873 24.4008C1.86622 24.9984 2.82985 25.9438 3.41286 26.3376C4.52954 27.0918 5.78104 27.5007 7.17409 27.5666L8.17089 27.6137L8.11578 27.9286C7.81967 29.6199 7.78544 30.0459 7.83125 31.4749C7.89734 33.5334 8.22987 34.9322 9.08643 36.7549C10.8383 40.483 14.5071 43.4005 18.5244 44.2604C22.23 45.0536 25.9666 44.3209 29.2187 42.1634C30.7299 41.1609 32.6686 39.0374 33.42 37.562C33.5722 37.2631 33.6462 37.1972 33.7813 37.2399C34.1514 37.3567 35.623 37.4215 36.4168 37.3559C42.5196 36.8515 46.3364 30.2953 43.7504 24.7589C43.4322 24.0777 42.5846 22.8077 40.9759 20.6017C38.8996 17.7543 37.6752 15.3896 36.5673 12.0866C36.374 11.5102 36.1816 10.9739 36.14 10.8949C36.0162 10.6603 35.6066 10.561 35.2969 10.6906C35.0098 10.8108 34.9671 10.8992 34.5182 12.3049C33.8243 14.4778 32.5561 17.0615 31.0333 19.4047L30.4775 20.2601L29.9899 19.5794C26.7268 15.0242 24.1011 9.93169 22.5013 5.05613C21.9864 3.48699 21.7888 3.25835 21.1757 3.52227ZM21.2323 7.04204C20.5522 9.00139 19.4614 11.5062 18.4269 13.4839C17.1978 15.8336 15.9958 17.7178 13.8864 20.6017C11.941 23.2612 11.5556 23.8132 10.9661 24.7844C9.53472 27.1426 8.98682 29.3186 9.20245 31.7894C9.4818 34.9918 10.5687 37.3405 12.798 39.5588C14.291 41.0446 15.8238 41.9966 17.6968 42.6014C20.1267 43.3861 22.9059 43.3689 25.3535 42.5544C28.091 41.6432 30.6049 39.6322 32.0474 37.1993L32.278 36.8103L31.6461 36.499C30.6753 36.0208 30.0272 35.5596 29.251 34.7947C27.1832 32.7568 26.2722 30.0319 26.676 27.0926C26.7923 26.246 27.1995 25.0067 27.5893 24.3135C27.7513 24.0252 28.2623 23.2795 28.7249 22.6562C29.1875 22.033 29.566 21.4891 29.566 21.4477C29.566 21.4063 29.2742 20.973 28.9175 20.4849C26.053 16.565 23.2015 11.2976 21.8416 7.41417C21.6818 6.95785 21.5255 6.55454 21.4942 6.51803C21.4629 6.48144 21.3451 6.71724 21.2323 7.04204ZM7.4429 8.26656C6.50832 10.5835 5.16205 12.8681 3.16036 15.5337C1.71641 17.4566 1.34158 18.4586 1.41319 20.2033C1.47761 21.7746 2.01094 23.0572 3.08787 24.2313C4.33147 25.5869 6.40485 26.4028 8.14597 26.2216L8.65675 26.1685L8.89195 25.5904C9.29785 24.5924 9.88094 23.6818 11.527 21.4751C14.0309 18.1185 13.8116 18.468 13.6832 18.041C13.4752 17.3495 13.0421 16.6243 12.0567 15.318C10.218 12.8804 8.71318 10.305 7.93429 8.2628C7.84661 8.03311 7.74569 7.82718 7.71005 7.80526C7.67433 7.78325 7.5541 7.99084 7.4429 8.26656ZM35.1389 14.598C34.2484 16.8363 32.8314 19.3526 31.2415 21.5187C29.8666 23.392 28.8568 24.9469 28.5593 25.6489C27.4153 28.3481 27.9923 31.4506 30.0365 33.5921C31.1056 34.7121 32.2973 35.4257 33.7348 35.8065C34.7228 36.0684 36.4297 36.0688 37.4208 35.8075C40.3887 35.025 42.6051 32.6197 43.0839 29.6618C43.2371 28.7156 43.153 27.1929 42.9043 26.4095C42.5221 25.2061 42.0442 24.4086 40.2509 21.9829C38.368 19.436 36.9939 17.0419 36.0247 14.6193C35.7941 14.0429 35.5961 13.5617 35.5848 13.55C35.5735 13.5383 35.3728 14.0099 35.1389 14.598ZM3.10174 19.7681C2.84828 20.0203 2.83073 20.2934 3.02547 20.957C3.40698 22.2572 4.56948 23.6115 5.85239 24.2505C6.59363 24.6196 7.20226 24.7687 7.53681 24.6631C7.80817 24.5774 7.98071 24.1332 7.86776 23.8108C7.77754 23.5532 7.62106 23.4587 6.80005 23.1663C6.26768 22.9767 5.46878 22.4004 5.10983 21.9469C4.75948 21.5043 4.41265 20.815 4.28346 20.3045C4.10618 19.6038 3.52967 19.3422 3.10174 19.7681ZM30.099 28.43C29.886 28.6994 29.8764 28.8697 30.0398 29.4803C30.4824 31.1345 31.7643 32.6891 33.3415 33.4845C33.9587 33.7957 34.7091 34.0513 35.0057 34.0513C35.5126 34.0513 35.8456 33.3069 35.5059 32.9334C35.4261 32.8457 35.1333 32.7041 34.855 32.6186C33.2262 32.1185 31.9332 30.8482 31.4353 29.2591C31.3078 28.8522 31.1313 28.4474 31.043 28.3596C30.7967 28.1144 30.3204 28.1499 30.099 28.43ZM12.1659 32.1518C11.8895 32.3607 11.8528 32.6603 12.0187 33.3526C12.4021 34.9514 13.3211 36.517 14.6345 37.8087C15.5381 38.6972 16.1406 39.1342 17.1915 39.663C17.8979 40.0183 19.0906 40.4267 19.4222 40.4267C19.7605 40.4267 20.0877 40.1064 20.0877 39.775C20.0877 39.3486 19.8595 39.151 19.1223 38.9391C17.7833 38.554 16.1732 37.5485 15.2723 36.5346C14.3989 35.5517 13.7555 34.3804 13.4046 33.1343C13.2964 32.75 13.1297 32.3472 13.0342 32.2391C12.8396 32.0188 12.4003 31.9746 12.1659 32.1518Z" fill="#331812"/>
</svg>
