<svg width="177" height="55" viewBox="0 0 177 55" fill="none" xmlns="http://www.w3.org/2000/svg">
<path d="M66.9044 10.1801C66.9044 15.9566 63.3663 20.4333 57.1206 20.4333C50.6582 20.4333 47.3007 16.8952 47.3007 10.3607C47.3007 4.58424 50.8026 0.21582 57.0123 0.21582C63.5468 0.21582 66.9044 3.64557 66.9044 10.1801ZM62.4999 11.6603C62.4999 5.59511 60.1893 1.84044 56.4707 1.84044C53.1493 1.84044 51.7413 4.25931 51.7413 8.69993C51.7413 14.7291 54.0157 18.7726 57.7343 18.7726C61.0558 18.7726 62.4999 16.101 62.4999 11.6603ZM65.2437 22.1662L65.5686 22.2023V23.5742C65.027 24.8739 63.5468 27.0401 61.489 27.0401C59.72 27.0401 58.2397 26.318 56.8679 25.5599C55.3515 24.7295 53.9435 23.9352 52.4633 23.9352C51.4525 23.9352 50.5138 24.91 49.9361 25.7765L49.6473 25.7404V24.3324C50.1889 22.9966 51.633 20.8304 53.763 20.8304C55.5321 20.8304 57.1567 21.6608 58.7091 22.4911C60.1171 23.2493 61.4529 23.9352 62.7526 23.9352C63.8718 23.9352 64.666 22.9966 65.2437 22.1662Z" fill="#FAF6F0"/>
<path d="M86.3276 2.85131L86.0749 10.6134C85.9666 17.4368 82.609 20.4333 78.3128 20.4333C72.6447 20.4333 70.2258 17.5812 70.2258 11.4798V2.81521C69.5399 2.38198 68.7095 2.02095 68.0597 1.76823L68.3846 0.540744C69.6482 0.61295 71.2367 0.649052 72.7169 0.649052C74.0166 0.649052 75.8217 0.61295 77.0131 0.540744L77.3741 1.80434C76.616 2.05705 75.3885 2.38198 74.4137 2.88741V11.0827C74.4137 15.6316 75.8939 18.0866 79.0348 18.0866C82.1036 18.0866 83.8004 16.101 83.7282 10.83L83.6199 3.06793C82.7895 2.56249 81.562 2.12926 80.7317 1.80434L81.0566 0.540744C82.248 0.61295 83.3311 0.649052 84.5947 0.649052C85.9304 0.649052 87.0135 0.61295 88.1327 0.540744L88.5298 1.80434C87.8078 2.05705 87.0857 2.41808 86.3276 2.85131Z" fill="#FAF6F0"/>
<path d="M108.733 18.7365L108.372 20.0001C107.145 19.9278 105.52 19.8917 104.112 19.8917C102.74 19.8917 101.224 19.9278 99.9964 20.0001L99.6714 18.7365C100.357 18.5198 101.188 18.1227 101.874 17.6895L100.61 13.8626H93.2813L92.0177 17.6534C92.7397 18.1588 93.3535 18.4837 94.2561 18.7726L93.895 20.0001C92.8119 19.9278 91.5484 19.8917 90.718 19.8917C89.4905 19.8917 88.6962 19.9278 87.6132 20.0001L87.2882 18.7726C87.9381 18.5198 88.7324 18.1949 89.4905 17.7617L95.0864 2.85131C94.3644 2.41808 93.4618 2.02095 92.7758 1.76823L93.1008 0.576846C94.1838 0.61295 95.9168 0.649052 97.2526 0.649052C98.444 0.649052 99.5631 0.61295 100.321 0.576846L106.567 17.7256C107.361 18.1588 108.119 18.4837 108.733 18.7365ZM97.1443 3.21234H96.8193L93.8589 12.0936H100.105L97.1443 3.21234Z" fill="#FAF6F0"/>
<path d="M124.814 19.7473L124.634 20.0001C121.601 19.8556 118.965 19.8195 117.233 19.8195C115.175 19.8195 111.998 19.8556 109.579 20.0001L109.218 18.7365C109.904 18.4837 110.698 18.1227 111.42 17.6895V2.85131C110.698 2.34587 109.904 2.02095 109.218 1.76823L109.579 0.540744C110.698 0.576846 111.998 0.61295 113.37 0.61295C114.85 0.61295 116.222 0.576846 117.521 0.540744L117.846 1.80434C117.196 2.05705 116.366 2.45418 115.644 2.92352V18.1588H121.384L123.298 14.5125H124.561C124.561 16.1371 124.634 18.0866 124.814 19.7473Z" fill="#FAF6F0"/>
<path d="M134.877 18.7726L134.516 20.0001C133.252 19.9639 131.952 19.9278 130.472 19.9278C129.1 19.9278 127.728 19.9639 126.609 20.0001L126.248 18.7365C126.934 18.4837 127.728 18.1588 128.45 17.6895V2.81521C127.728 2.34587 126.934 2.02095 126.248 1.76823L126.609 0.540744C127.728 0.576846 129.1 0.61295 130.472 0.61295C131.916 0.61295 133.288 0.576846 134.552 0.540744L134.877 1.80434C134.227 2.05705 133.396 2.41808 132.674 2.88741V17.7256C133.396 18.1949 134.227 18.5198 134.877 18.7726Z" fill="#FAF6F0"/>
<path d="M150.226 18.7726L149.901 20.0001C148.745 19.9639 147.446 19.9278 146.182 19.9278C144.738 19.9278 143.113 19.9639 141.922 20.0001L141.561 18.7365C142.211 18.5198 143.113 18.1227 143.799 17.6895V2.34587H139.9L137.734 6.42547H136.47C136.47 4.54813 136.398 2.7069 136.218 0.757359L136.434 0.540744C139.467 0.649053 144.124 0.721257 145.893 0.721257C147.626 0.721257 152.247 0.649053 155.388 0.540744L155.605 0.757359C155.46 2.7069 155.388 4.54813 155.352 6.42547H154.089L151.922 2.34587H148.023V17.7256C148.745 18.1588 149.612 18.5559 150.226 18.7726Z" fill="#FAF6F0"/>
<path d="M170.337 18.7726L169.976 20.0001C168.676 19.9639 167.305 19.9278 165.86 19.9278C164.489 19.9278 163.117 19.9639 161.998 20.0001L161.636 18.7365C162.214 18.5198 163.081 18.1949 163.875 17.6895V12.2741L158.459 2.92352C157.557 2.41808 156.727 2.02095 156.113 1.80434L156.51 0.540744C157.593 0.576846 159.47 0.61295 160.662 0.61295C161.925 0.61295 163.983 0.61295 165.102 0.540744L165.427 1.80434C164.741 2.05705 163.947 2.45418 163.117 2.95962L166.871 10.2162H167.196L171.095 2.81521C170.265 2.30977 169.651 2.02095 169.038 1.80434L169.399 0.540744C170.482 0.576846 171.565 0.61295 172.756 0.61295C173.911 0.61295 174.742 0.576846 175.753 0.540744L176.078 1.80434C175.536 1.98485 174.489 2.45418 173.55 2.92352L168.099 11.9853V17.7256C168.857 18.1949 169.723 18.5559 170.337 18.7726Z" fill="#FAF6F0"/>
<path d="M81.9449 36.5398H81.8005L77.7209 49.8978H74.1106L68.6952 32.6407C67.9371 32.2436 67.1428 31.9187 66.5291 31.702L66.9262 30.4384C68.1176 30.5107 69.9588 30.5107 71.2946 30.5107C72.7387 30.5107 74.1467 30.5107 75.3742 30.4384L75.6991 31.702C74.8688 31.9909 74.255 32.388 73.4247 32.8934L76.8183 45.8904H77.1071L80.9701 31.5937H84.9414L88.7322 45.8904H89.021L92.4868 32.8573C91.8009 32.388 90.9705 31.9187 90.2485 31.6659L90.6456 30.4384C91.5843 30.4746 92.6312 30.5107 93.6421 30.5107C94.9057 30.5107 95.9166 30.5107 96.9636 30.4384L97.2885 31.702C96.6386 31.9548 95.8444 32.3158 95.0501 32.749L89.6347 49.8978H85.9162L81.9449 36.5398Z" fill="#FAF6F0"/>
<path d="M106.773 50.331C100.31 50.331 96.9528 46.7929 96.9528 40.2584C96.9528 34.4819 100.455 30.1135 106.664 30.1135C113.199 30.1135 116.557 33.5433 116.557 40.0778C116.557 45.8543 113.018 50.331 106.773 50.331ZM107.386 48.6703C110.708 48.6703 112.152 45.9987 112.152 41.5581C112.152 35.4928 109.841 31.7381 106.123 31.7381C102.801 31.7381 101.393 34.157 101.393 38.5976C101.393 44.6268 103.668 48.6703 107.386 48.6703Z" fill="#FAF6F0"/>
<path d="M128.316 50.331C121.853 50.331 118.496 46.7929 118.496 40.2584C118.496 34.4819 121.998 30.1135 128.208 30.1135C134.742 30.1135 138.1 33.5433 138.1 40.0778C138.1 45.8543 134.562 50.331 128.316 50.331ZM128.93 48.6703C132.251 48.6703 133.695 45.9987 133.695 41.5581C133.695 35.4928 131.385 31.7381 127.666 31.7381C124.345 31.7381 122.937 34.157 122.937 38.5976C122.937 44.6268 125.211 48.6703 128.93 48.6703Z" fill="#FAF6F0"/>
<path d="M159.075 39.4641C159.075 46.1792 155.176 49.8978 148.786 49.8978H140.085L139.724 48.6342C140.374 48.3814 141.241 47.9843 141.927 47.5511V32.7129C141.241 32.2797 140.374 31.9187 139.724 31.6659L140.085 30.4384H149.183C155.393 30.4384 159.075 33.3267 159.075 39.4641ZM148.353 32.1714H146.151V48.1648H149.255C153.082 48.1648 154.635 45.6015 154.635 41.197C154.635 35.4206 152.721 32.1714 148.353 32.1714Z" fill="#FAF6F0"/>
<path fill-rule="evenodd" clip-rule="evenodd" d="M13.1188 3.7256C14.7786 6.18306 13.1188 10.2345 10.0647 13.2233C7.77651 15.4626 3.4253 17.4741 1.16791 15.8136L14.3426 29.2468L25.9444 40.9859L25.8098 41.6082C25.1707 41.6763 24.5315 41.744 23.8924 41.8117C26.5967 43.7755 26.9287 47.2292 26.145 49.0556L31.709 48.2919L33.4352 48.6728C33.4352 48.6728 34.7135 49.8633 36.3857 51.5424C39.8884 55.0595 39.8126 55.0084 41.5062 54.9987C42.3544 54.9938 42.6714 54.9389 43.4501 54.6618C45.8146 53.8204 48.4371 51.7082 50.1298 49.2818C51.4072 47.4506 52.0008 45.8826 52.0088 44.3188C52.0178 42.5451 52.8195 43.4912 42.0852 32.6078C38.0451 28.5115 35.298 25.6151 33.9664 24.0494L33.2361 21.0606C33.4542 18.8262 33.719 13.0104 33.719 13.0104C31.4362 14.2584 27.5047 13.8895 26.3981 11.2419L26.1599 13.3709C26.0817 14.0699 25.9992 15.0166 25.9992 15.0166L25.3352 15.3128C21.5682 11.7431 16.877 7.30457 13.1188 3.7256Z" fill="#FAF6F0"/>
<path d="M24.4833 44.6354C25.441 46.4675 25.6204 48.5744 24.3715 49.2276C23.1227 49.8808 20.9186 48.8331 19.961 47.0009C19.0033 45.1688 19.2394 43.154 20.4882 42.5008C21.737 41.8476 23.5257 42.8033 24.4833 44.6354Z" fill="#FAF6F0"/>
<path d="M8.99157 12.1061C6.10294 15.3796 2.6954 17.0922 1.38062 15.9311C0.0658344 14.7701 1.34169 11.1752 4.23031 7.90164C7.11894 4.62811 10.5265 2.91558 11.8413 4.07661C13.156 5.23764 11.8802 8.83257 8.99157 12.1061Z" fill="#FAF6F0"/>
<path d="M30.182 12.4837C28.1653 12.4837 26.5304 11.5024 26.5304 10.2919C26.5304 9.08141 28.1653 8.10011 30.182 8.10011C32.1988 8.10011 33.8337 9.08141 33.8337 10.2919C33.8337 11.5024 32.1988 12.4837 30.182 12.4837Z" fill="#FAF6F0"/>
</svg>
