<svg width="80" height="80" viewBox="0 0 80 80" fill="none" xmlns="http://www.w3.org/2000/svg">
<path d="M21.621 20.2845C20.9225 20.2845 20.2823 20.1919 19.7002 20.0067C19.1181 19.8118 18.6185 19.5048 18.2014 19.0857C17.7939 18.6666 17.4738 18.1258 17.241 17.463C17.0081 16.8003 16.8917 15.9914 16.8917 15.0363V14.7586C16.8917 13.8619 17.013 13.092 17.2555 12.4488C17.498 11.8056 17.8327 11.2793 18.2596 10.87C18.6864 10.4606 19.186 10.1585 19.7584 9.9636C20.3405 9.76868 20.9613 9.67122 21.621 9.67122C22.2128 9.67122 22.7657 9.73944 23.2799 9.87588C23.8038 10.0123 24.2597 10.2267 24.6478 10.5191C25.0455 10.8115 25.3656 11.1916 25.6082 11.6594C25.8604 12.1272 26.0108 12.6973 26.0593 13.3698H23.3527C23.3042 13.0969 23.2265 12.8679 23.1198 12.6827C23.0131 12.4878 22.8822 12.3318 22.7269 12.2149C22.5717 12.0882 22.3971 12.0005 22.2031 11.9518C22.0188 11.8933 21.8247 11.864 21.621 11.864C21.33 11.864 21.0583 11.9176 20.8061 12.0248C20.5636 12.1223 20.3502 12.288 20.1658 12.5219C19.9912 12.746 19.8506 13.0433 19.7438 13.4136C19.6468 13.784 19.5983 14.2323 19.5983 14.7586V15.0656C19.5983 15.6308 19.6517 16.1084 19.7584 16.4982C19.8748 16.8783 20.0252 17.1902 20.2095 17.4338C20.3938 17.6677 20.6072 17.8383 20.8498 17.9455C21.0923 18.0429 21.3494 18.0916 21.621 18.0916C22.1158 18.0916 22.5087 17.9747 22.7997 17.7408C23.1004 17.4971 23.2848 17.1122 23.3527 16.5859H26.0593C26.0205 17.2681 25.8798 17.8431 25.6373 18.3109C25.4044 18.7787 25.0892 19.1588 24.6914 19.4512C24.3034 19.7436 23.8474 19.958 23.3236 20.0944C22.7997 20.2211 22.2322 20.2845 21.621 20.2845Z" fill="#331812"/>
<path d="M32.898 16.0158C32.6458 16.1815 32.3111 16.3325 31.8939 16.469C31.4768 16.5957 30.9869 16.659 30.4242 16.659C29.3668 16.659 28.5664 16.3959 28.0232 15.8696C27.4896 15.3336 27.2228 14.4759 27.2228 13.2967V9.86127H29.8421V12.8581C29.8421 13.4429 29.9634 13.8571 30.2059 14.1007C30.4485 14.3444 30.788 14.4662 31.2245 14.4662C31.632 14.4662 31.9667 14.4223 32.2286 14.3346C32.5002 14.2372 32.7234 14.1348 32.898 14.0276V9.86127H35.5173V20.0944H32.898V16.0158Z" fill="#331812"/>
<path d="M37.5483 9.86127H44.9696V11.8787H40.1676V13.8814H44.5331V15.7819H40.1676V18.077H44.9696V20.0944H37.5483V9.86127ZM39.44 9.27652C39.0228 9.27652 38.6978 9.15469 38.465 8.91104C38.2419 8.6674 38.1303 8.37502 38.1303 8.03392C38.1303 7.69281 38.2419 7.40044 38.465 7.15679C38.6978 6.91314 39.0228 6.79132 39.44 6.79132C39.8571 6.79132 40.1773 6.91314 40.4004 7.15679C40.6332 7.40044 40.7496 7.69281 40.7496 8.03392C40.7496 8.37502 40.6332 8.6674 40.4004 8.91104C40.1773 9.15469 39.8571 9.27652 39.44 9.27652ZM43.0779 9.27652C42.6607 9.27652 42.3358 9.15469 42.1029 8.91104C41.8798 8.6674 41.7682 8.37502 41.7682 8.03392C41.7682 7.69281 41.8798 7.40044 42.1029 7.15679C42.3358 6.91314 42.6607 6.79132 43.0779 6.79132C43.495 6.79132 43.8152 6.91314 44.0383 7.15679C44.2711 7.40044 44.3875 7.69281 44.3875 8.03392C44.3875 8.37502 44.2711 8.6674 44.0383 8.91104C43.8152 9.15469 43.495 9.27652 43.0779 9.27652Z" fill="#331812"/>
<path d="M49.3283 12.0248H46.1997V9.86127H55.0762V12.0248H51.9476V20.0944H49.3283V12.0248Z" fill="#331812"/>
<path fill-rule="evenodd" clip-rule="evenodd" d="M4.59339 0.0983478C2.88445 0.359262 1.30849 1.55991 0.497466 3.21896L0.0631997 4.10751L0.020695 14.5472C-0.027279 26.2796 -0.0966616 25.5397 1.14848 26.5529L1.73213 27.0278L5.07782 27.0757L8.4235 27.1235V49.8047C8.4235 74.4347 8.37709 73.0787 9.2514 74.0192C10.0412 74.869 9.28328 74.8307 25.2926 74.8307H40.1458V76.3271C40.1458 78.601 40.7005 79.5299 42.2515 79.8535C42.7767 79.9629 47.5102 80.0039 56.3744 79.9755L69.7075 79.9328L70.0845 79.4923C70.5463 78.9529 70.5594 78.6086 70.1384 78.0709L69.8151 77.6582L56.1916 77.618L42.5679 77.5779L42.5277 66.942L42.4876 56.3061H77.6521L77.6119 66.942L77.5718 77.5779L75.8006 77.6564C73.8537 77.7428 73.5869 77.8787 73.5869 78.7853C73.5869 79.7659 74.4742 80.1025 76.7206 79.9737C78.4483 79.8748 79.1366 79.5497 79.6392 78.5951L80 77.9095L79.9578 66.7268C79.9162 55.6591 79.9123 55.5395 79.5889 55.1009C79.409 54.8571 79.0294 54.4988 78.7453 54.3045C78.2401 53.9591 78.1328 53.9512 73.8764 53.9512H69.524V48.5273C69.524 42.536 69.5117 42.4522 68.5397 41.8569C68.0998 41.5873 67.7436 41.5503 65.5831 41.5498L63.1267 41.5492L63.0828 22.9853L63.0389 4.42149L62.6618 3.48066C62.1521 2.20874 60.866 0.916727 59.5999 0.404632L58.6634 0.0258193H39.486H20.3086L19.9676 0.368367C19.5569 0.780932 19.5355 1.57341 19.9234 2.00403C20.1843 2.29367 20.7192 2.30215 38.834 2.30215C51.9307 2.30215 57.7172 2.35411 58.2868 2.47687C59.4369 2.7246 60.3642 3.6681 60.6035 4.83389C60.7257 5.42919 60.7646 10.944 60.7357 23.574L60.6949 41.4707L45.8495 41.5492C33.9882 41.6118 30.9318 41.6691 30.6441 41.834C30.1411 42.1222 29.6771 42.9453 29.6765 43.5508L29.6758 44.061H23.4252C17.3828 44.061 17.164 44.0715 16.8619 44.375C16.4408 44.798 16.4491 45.648 16.8782 46.0382C17.1881 46.3202 17.5644 46.3398 23.4414 46.3817L29.6758 46.4262V49.5607V52.6953H23.4252C17.3828 52.6953 17.164 52.7058 16.8619 53.0093C16.3966 53.4768 16.4452 54.317 16.9612 54.7247C17.3618 55.0414 17.5376 55.0502 23.5244 55.0502H29.6758L29.6765 59.4066C29.6773 65.6462 29.2747 65.2544 35.6843 65.2544H40.1458V68.8659V72.4774L25.4957 72.4374L10.8456 72.3973L10.7675 38.1739L10.6894 3.95052L10.3378 3.2896C10.1445 2.92602 9.98617 2.55521 9.98617 2.46541C9.98617 2.35819 11.0014 2.30215 12.9463 2.30215C15.8282 2.30215 15.9131 2.29288 16.1498 1.95316C16.4983 1.45363 16.4578 0.682815 16.0645 0.324882C15.7562 0.0445008 15.4119 0.0244064 10.5561 0.00227107C7.70717 -0.010602 5.0239 0.0325698 4.59339 0.0983478ZM5.06375 2.41942C4.22241 2.55929 3.9952 2.66479 3.4281 3.17955C2.2847 4.21725 2.31673 3.86559 2.36455 14.8612L2.40721 24.673L5.41864 24.7157L8.43022 24.7582L8.38771 14.5783L8.34537 4.39841L7.91626 3.74707C7.31994 2.84203 6.0573 2.25427 5.06375 2.41942ZM17.3307 26.7466C16.5264 27.0438 16.2734 28.0849 16.8619 28.6761C17.1688 28.9845 17.3828 28.9901 28.8673 28.9901H40.56L40.8999 28.6269C41.4611 28.0267 41.3289 27.2419 40.6033 26.865C40.2267 26.6692 38.4904 26.6372 28.8633 26.6477C22.6493 26.6545 17.4597 26.699 17.3307 26.7466ZM49.8912 26.8136C49.5579 26.9811 49.2093 27.565 49.2093 27.9559C49.2093 28.0697 49.3551 28.349 49.5332 28.5765L49.857 28.9901H52.7193C55.2173 28.9901 55.6248 28.955 55.9208 28.7141C56.3835 28.3378 56.3975 27.5075 55.9489 27.0563C55.6282 26.7337 55.4514 26.7118 52.9167 26.6799C51.2517 26.659 50.0976 26.71 49.8912 26.8136ZM16.808 35.7138C16.4369 36.1257 16.4749 37.037 16.8782 37.4039C17.194 37.691 17.6458 37.7048 28.2466 37.7502C34.3186 37.7761 39.5866 37.754 39.9537 37.7008C41.1171 37.5325 41.6215 36.5257 40.921 35.7703L40.6024 35.4266H28.8345C17.6325 35.4266 17.0541 35.4405 16.808 35.7138ZM49.5332 35.8403C49.1114 36.3788 49.1244 36.7229 49.5863 37.2625L49.9636 37.703H52.7734C55.3174 37.703 55.6145 37.6747 55.9123 37.4039C56.336 37.0188 56.3602 36.0544 55.9555 35.6865C55.7112 35.4643 55.2485 35.4266 52.7634 35.4266H49.857L49.5332 35.8403ZM32.0199 45.9554V48.0069L32.3715 47.8975C33.8063 47.451 35.2229 46.2072 35.7779 44.9067C35.9456 44.5136 36.0828 44.1271 36.0828 44.048C36.0828 43.968 35.1791 43.904 34.0513 43.904H32.0199V45.9554ZM38.3709 44.5064C37.986 46.9246 35.1052 49.803 32.6059 50.2667L32.0199 50.3755V53.4054V56.4354L32.6546 56.5433C35.0944 56.9572 37.9721 59.8609 38.3709 62.3109L38.4668 62.8996H39.2982H40.1297L40.1768 59.2215C40.2292 55.1319 40.2384 55.0949 41.3943 54.3045C41.8878 53.9671 42.0549 53.9509 45.1304 53.9443C52.4802 53.9286 59.8302 53.9512 67.18 53.9512V52.1633V50.3755L66.594 50.2667C64.0947 49.803 61.2139 46.9246 60.829 44.5064L60.733 43.904H49.5999H38.4668L38.3709 44.5064ZM63.1205 44.1002C63.1281 44.5406 63.7591 45.6565 64.3881 46.342C65.0065 47.016 65.9708 47.6306 66.8284 47.8975L67.18 48.0069V45.9554V43.904H65.1485C63.6257 43.904 63.1178 43.9531 63.1205 44.1002ZM32.0199 60.8482V62.8996H34.0513C36.3078 62.8996 36.2652 62.9258 35.7757 61.8427C35.2008 60.5703 33.7463 59.3139 32.3715 58.902L32.0199 58.7967V60.8482ZM47.881 59.7526C47.7091 59.824 47.3926 60.0725 47.1778 60.3047C46.7902 60.7235 46.7871 60.7507 46.7871 63.6307V66.5345L47.3708 67.0718L47.9546 67.6092H51.4654C55.3191 67.6092 55.5851 67.5583 56.0989 66.723C56.394 66.2437 56.4141 65.9977 56.3686 63.4409L56.3194 60.6769L55.7358 60.1399L55.1519 59.6028L51.6728 59.6127C49.7592 59.6182 48.0529 59.6811 47.881 59.7526ZM68.97 61.2441C68.4778 61.7385 68.4686 62.4196 68.948 62.8722C69.2741 63.1799 69.4788 63.2135 71.0304 63.2135C72.627 63.2135 72.7756 63.1873 73.091 62.8503C73.5416 62.3682 73.524 61.7232 73.0471 61.2441C72.6881 60.8834 72.5573 60.8587 71.0085 60.8587C69.4598 60.8587 69.329 60.8834 68.97 61.2441ZM49.053 63.606V65.2544H51.5533H54.0535V63.606V61.9576H51.5533H49.053V63.606ZM47.5686 72.0152C47.3109 72.0925 47.012 72.2765 46.9045 72.4242C46.6119 72.8262 46.6685 73.5341 47.0215 73.8887C47.2978 74.1663 47.5424 74.2027 49.1311 74.2027C50.7199 74.2027 50.9644 74.1663 51.2407 73.8887C51.8714 73.2551 51.5615 72.2661 50.6529 72.0126C49.9543 71.8177 48.2232 71.8192 47.5686 72.0152ZM54.913 71.9521C54.3465 72.1064 54.0535 72.4991 54.0535 73.1038C54.0535 74.0696 54.3422 74.2027 56.4376 74.2027C58.2095 74.2027 58.2573 74.1934 58.5739 73.789C58.9941 73.2524 58.9828 72.9066 58.5276 72.375C58.1782 71.9667 58.0757 71.9405 56.6915 71.9049C55.8853 71.884 55.0849 71.9053 54.913 71.9521ZM62.2216 71.9498C61.8139 72.0388 61.2418 72.7127 61.2418 73.1038C61.2418 73.2532 61.3876 73.5616 61.5658 73.789C61.8832 74.1944 61.9268 74.2027 63.7446 74.2027C65.4843 74.2027 65.6147 74.181 65.8428 73.8537C66.1882 73.3586 66.1508 72.5834 65.7647 72.2323C65.5075 71.9983 65.157 71.9334 64.0067 71.9068C63.2166 71.8885 62.4132 71.9078 62.2216 71.9498ZM69.446 72.0152C69.1883 72.0925 68.8894 72.2765 68.7819 72.4242C68.4894 72.8262 68.5459 73.5341 68.8989 73.8887C69.1752 74.1663 69.4198 74.2027 71.0085 74.2027C72.5973 74.2027 72.8419 74.1663 73.1181 73.8887C73.7488 73.2551 73.439 72.2661 72.5303 72.0126C71.8318 71.8177 70.1006 71.8192 69.446 72.0152Z" fill="#331812"/>
</svg>
