<svg width="80" height="80" viewBox="0 0 80 80" fill="none" xmlns="http://www.w3.org/2000/svg">
<path fill-rule="evenodd" clip-rule="evenodd" d="M15.1376 8.37659C7.1236 13.0115 0.439073 16.9574 0.283325 17.1451C0.0174852 17.4657 0 18.5366 0 34.5323V51.578L0.364275 51.9157C0.564545 52.1013 1.8578 52.9071 3.238 53.7062C22.2154 64.6934 29.7258 68.9695 30.0457 68.9695C30.2575 68.9695 32.9489 67.5114 36.0268 65.7293C39.1045 63.9472 41.6394 62.4891 41.6596 62.4891C41.68 62.4891 42.132 62.895 42.6644 63.3909C45.4908 66.0246 48.8721 67.3677 52.6984 67.3766C55.2074 67.3824 57.0163 66.9695 59.1932 65.8939L60.7934 65.1033L61.8053 66.1001C62.6861 66.9678 62.8172 67.1749 62.8172 67.6987C62.8172 68.0296 62.8943 68.5056 62.9885 68.7564C63.2428 69.4338 73.1131 79.3045 73.9073 79.6761C75.3591 80.3549 76.161 80.0416 78.149 78.0184C80.0715 76.0619 80.3375 75.3425 79.6689 73.9107C79.2975 73.1159 69.4334 63.2391 68.7565 62.9846C68.5059 62.8903 68.0302 62.8131 67.6994 62.8131C67.176 62.8131 66.9691 62.6819 66.102 61.8006L65.1058 60.788L65.8959 59.1868C66.9712 57.0076 67.3824 55.1997 67.3747 52.6876C67.365 49.6202 66.5807 47.0587 64.8537 44.4552C64.0449 43.2359 62.1288 41.3354 60.9846 40.618L60.0804 40.051L60.0727 28.76L60.0649 17.469L59.7006 17.0717C59.2301 16.5588 30.6485 0.0676714 30.1134 0.000438022C29.8195 -0.0364999 25.7157 2.25883 15.1376 8.37659ZM26.0212 4.70483C23.8252 5.96785 22.0262 7.04602 22.0234 7.10061C22.0207 7.15537 27.8651 10.5755 35.0109 14.7012C42.1566 18.8269 48.117 22.2722 48.2557 22.3574C48.4473 22.475 49.4745 21.9542 52.5056 20.2032C54.7042 18.933 56.5031 17.8448 56.5031 17.7847C56.5031 17.6961 32.282 3.61274 30.5251 2.67973L30.0141 2.40853L26.0212 4.70483ZM16.6404 10.1209C14.5812 11.3209 13.9809 11.7418 14.131 11.8807C14.2394 11.9811 20.21 15.4576 27.399 19.6065L40.4697 27.1498L43.3123 25.5124C45.5642 24.2153 46.1114 23.8351 45.9458 23.6823C45.8308 23.5762 43.0775 21.9587 39.8274 20.088C36.5773 18.2173 30.7853 14.8767 26.9563 12.6646C23.1274 10.4524 19.8489 8.62025 19.6708 8.59319C19.4864 8.56501 18.1815 9.22292 16.6404 10.1209ZM7.55166 15.3903C5.35597 16.6534 3.57815 17.742 3.60114 17.8092C3.65538 17.9683 29.9994 33.1792 30.128 33.1255C30.7377 32.8706 38.0376 28.522 38.007 28.4319C37.9727 28.3311 13.304 14.0093 11.9646 13.3125C11.5637 13.104 11.354 13.2027 7.55166 15.3903ZM2.30627 35.1582L2.34755 50.5757L8.9045 54.3643C12.5108 56.448 18.4728 59.8941 22.1533 62.0221C25.8337 64.1502 28.8755 65.8913 28.9126 65.8913C28.9497 65.8913 28.9801 58.9795 28.9801 50.5318V35.1723L18.3382 29.0252C12.4852 25.6442 6.47438 22.1722 4.98069 21.3095L2.26498 19.7408L2.30627 35.1582ZM53.7508 22.0729L49.7842 24.3953L49.7033 29.6659C49.633 34.2367 49.5875 34.9714 49.3602 35.1987C48.9563 35.6026 40.7556 40.294 40.4536 40.294C40.3071 40.294 40.015 40.1547 39.8049 39.9846C39.4231 39.6754 39.4225 39.6695 39.3417 35.0683L39.2607 30.4616L35.2942 32.7572L31.3276 35.0527L31.2864 50.4642L31.2451 65.8757L34.7672 63.8419C39.0305 61.3802 40.2161 60.6889 40.2833 60.6259C40.3113 60.5995 40.1151 60.1876 39.8471 59.7108C38.6667 57.6107 37.9268 54.2489 38.1232 51.8776C38.5451 46.7819 41.04 42.7147 45.348 40.0994C48.6299 38.1072 53.2066 37.5339 56.8272 38.6616L57.7983 38.9639V29.3414C57.7983 24.0491 57.78 19.7261 57.7578 19.7348C57.7356 19.7436 55.9324 20.7957 53.7508 22.0729ZM44.4415 27.4728L41.6892 29.0649L41.646 33.0594C41.6221 35.2563 41.6585 37.0524 41.727 37.0508C41.7953 37.049 43.0897 36.3275 44.6034 35.4475L47.3557 33.8474L47.399 29.8613C47.4229 27.669 47.3865 25.8764 47.318 25.8779C47.2497 25.8793 45.9553 26.597 44.4415 27.4728ZM50.5937 40.531C43.4203 41.8459 38.8814 49.046 40.8179 56.0384C41.9879 60.2638 45.4189 63.6558 49.6568 64.777C51.3165 65.216 54.0174 65.247 55.6126 64.845C59.2821 63.9205 62.2646 61.5179 63.8663 58.1959C64.8337 56.1896 65.1353 54.8675 65.1231 52.6876C65.1073 49.8847 64.4082 47.7545 62.7243 45.3781C60.1075 41.6855 55.135 39.6986 50.5937 40.531ZM50.108 42.0037C47.1498 42.7437 44.2609 45.0588 42.942 47.7464C41.9797 49.7075 41.7211 50.9716 41.8158 53.2547C41.9055 55.4171 42.2454 56.6118 43.2674 58.3579C46.1463 63.2758 52.4331 65.1717 57.5554 62.6668C59.955 61.4934 61.5829 59.84 62.7602 57.3802C64.2887 54.187 64.0876 50.2677 62.2316 47.0828C61.0138 44.9926 58.5854 43.0452 56.1793 42.2292C54.798 41.7607 51.5604 41.6404 50.108 42.0037ZM49.9374 44.4788C48.4058 45.0123 47.4997 45.6014 46.3738 46.7956C44.777 48.4893 44.0368 50.3772 44.0368 52.7563C44.0368 55.2052 44.8724 57.2101 46.6086 58.9274C48.3432 60.643 50.4182 61.5122 52.7794 61.5122C55.1425 61.5122 57.2184 60.6393 58.9316 58.9249C60.6448 57.2106 61.5171 55.1333 61.5171 52.7686C61.5171 50.4059 60.6485 48.3294 58.934 46.5937C56.5609 44.1911 53.0991 43.3773 49.9374 44.4788ZM63.0562 63.1412L62.5868 63.6314L63.3492 64.3942L64.1114 65.1571L64.6331 64.6349L65.1549 64.1129L64.438 63.382C64.0437 62.98 63.677 62.6511 63.6233 62.6511C63.5694 62.6511 63.3142 62.8716 63.0562 63.1412ZM66.2535 66.2597C65.6101 66.9077 65.0838 67.5461 65.0838 67.6783C65.0838 67.8103 67.2962 70.1312 70 72.8359C74.0001 76.8371 74.9764 77.7344 75.2386 77.6512C75.6482 77.5211 77.712 75.3924 77.712 75.1C77.712 74.7966 67.9734 65.0813 67.6692 65.0813C67.5338 65.0813 66.8969 65.6115 66.2535 66.2597Z" fill="#331812"/>
</svg>
