<svg width="66" height="72" viewBox="0 0 66 72" fill="none" xmlns="http://www.w3.org/2000/svg">
<path d="M0.46991 18C0.46991 16.3431 1.81306 15 3.46991 15H62.5302C64.187 15 65.5302 16.3431 65.5302 18V54C65.5302 55.6569 64.187 57 62.5302 57H3.46991C1.81305 57 0.46991 55.6569 0.46991 54V18Z" fill="#331812"/>
<path d="M6.54224 37.7144C6.54224 36.0575 7.88538 34.7144 9.54224 34.7144H18.2892C19.9461 34.7144 21.2892 36.0575 21.2892 37.7144V40.2858C21.2892 41.9426 19.9461 43.2858 18.2892 43.2858H9.54224C7.88538 43.2858 6.54224 41.9426 6.54224 40.2858V37.7144Z" fill="#E95E2A"/>
<rect y="49" width="66" height="3" fill="#FAF6F0"/>
</svg>
