<svg width="88" height="56" viewBox="0 0 88 56" fill="none" xmlns="http://www.w3.org/2000/svg">
<path fill-rule="evenodd" clip-rule="evenodd" d="M0.421131 0.414191L0 0.828211V24.3843V47.9405L0.501411 48.4336L1.00282 48.9268H6.40736H11.8119L12.0963 49.8969C12.911 52.6764 15.3655 55.0237 18.2464 55.7782C19.376 56.0739 21.6221 56.0739 22.7517 55.7782C25.5617 55.0423 27.9217 52.8257 28.8338 50.0656L29.21 48.9268H45.3898H61.5696L61.7636 49.6438C62.533 52.4868 65.0051 54.914 67.9962 55.7633C69.3486 56.1473 71.9047 56.0421 73.2961 55.545C75.7996 54.6508 77.8498 52.4944 78.6662 49.8969L78.971 48.9268H82.9078H86.8445L87.4222 48.3243L88 47.7218L87.8266 31.2735L87.2601 30.3569C85.5238 27.5475 74.5123 10.8155 74.1658 10.4602L73.7546 10.0384L66.1249 9.98966L58.4951 9.94074V5.38447V0.828211L58.074 0.414191L57.653 0H29.2476H0.84209L0.421131 0.414191ZM0.0833684 24.379C0.0833684 37.3699 0.103782 42.6594 0.128655 36.1336C0.153528 29.6076 0.153528 18.9787 0.128655 12.5138C0.103782 6.0487 0.0833684 11.3881 0.0833684 24.379ZM2.91618 21.5953V40.3224H6.61115H10.3063L10.2564 41.7143L10.2066 43.1062L6.5614 43.1517L2.91618 43.1973V44.6279V46.0586H7.35581H11.7956L11.9948 45.2802C12.7533 42.3178 15.4274 39.7861 18.5675 39.0581C22.9625 38.0389 27.4352 40.58 28.8498 44.8997L29.2294 46.0586H42.4042H55.5789V44.6246V43.1905H43.1423H30.7057V41.7565V40.3224H43.1423H55.5789V24.4634V8.60436H30.7057H5.83236V7.1703V5.73624H30.7057H55.5789V4.30218V2.86812H29.2476H2.91618V21.5953ZM58.6667 29.4404V46.0586H60.1081H61.5494L61.9074 44.8996C63.2241 40.6357 67.7923 38.0412 72.1883 39.0606C73.8807 39.453 75.1069 40.1218 76.355 41.3337C77.5412 42.4851 78.3941 43.8907 78.7499 45.2802L78.949 46.0586H81.9307H84.9123V44.6296V43.2006L82.7251 43.1534L80.538 43.1062L80.4883 41.7143L80.4383 40.3224H82.6754H84.9123V36.1383C84.9123 33.1089 84.8555 31.8984 84.7064 31.7518C84.5505 31.5984 81.8083 31.5493 73.4146 31.5493H62.3289L61.9129 31.1139L61.4971 30.6786V23.7042V16.7297L61.9129 16.2945L62.3289 15.859H68.217C71.8938 15.859 74.1053 15.7978 74.1053 15.6959C74.1053 15.6061 73.7116 14.9228 73.2304 14.1775L72.3556 12.8222H65.5111H58.6667V29.4404ZM64.3275 23.7042V28.6812H73.5217H82.7159L82.3989 28.1983C82.2246 27.9326 80.7696 25.6965 79.1657 23.2291L76.2495 18.7427L70.2885 18.7349L64.3275 18.7271V23.7042ZM19.0288 41.8923C17.9635 42.189 16.7969 42.8851 16.1493 43.6106C13.577 46.4919 14.4233 50.7791 17.9259 52.6113C18.6898 53.011 18.9713 53.0599 20.499 53.0599C22.0281 53.0599 22.3076 53.0111 23.0721 52.6103C26.565 50.7792 27.384 46.32 24.7362 43.548C23.3075 42.0522 20.9306 41.3627 19.0288 41.8923ZM68.7753 41.8923C66.2227 42.6034 64.4973 44.7747 64.4783 47.3005C64.4645 49.1007 65.0015 50.3986 66.2429 51.5663C67.5409 52.7874 68.2719 53.0602 70.2456 53.0602C71.7238 53.0602 72.067 53.0047 72.7276 52.6583C73.9265 52.0299 74.4079 51.6248 75.0467 50.7067C77.1168 47.7321 75.984 43.7434 72.6417 42.2385C71.5365 41.7408 69.8588 41.5906 68.7753 41.8923ZM19.0409 47.4927V48.9268H20.499H21.9571V47.4927V46.0586H20.499H19.0409V47.4927ZM68.7875 47.4927V48.9268H70.2456H71.7037V47.4927V46.0586H70.2456H68.7875V47.4927Z" fill="#331812"/>
</svg>
