<svg width="80" height="76" viewBox="0 0 80 76" fill="none" xmlns="http://www.w3.org/2000/svg">
<path fill-rule="evenodd" clip-rule="evenodd" d="M33.3319 0.188429C33.0794 0.280376 29.8821 2.45927 26.2267 5.03066C22.5712 7.60189 19.2883 9.90776 18.9311 10.1545C18.5742 10.4014 18.0823 10.9437 17.838 11.3595L17.3942 12.1157L17.3508 22.0845L17.3072 32.0532H16.7982C16.5183 32.0532 15.9919 32.2115 15.6287 32.4051C15.0533 32.7117 2.50094 41.4756 1.34818 42.3757C1.1116 42.5604 0.725108 43.0401 0.489309 43.4418L0.0606544 44.1721L0.0183355 58.3965C-0.0277312 73.8962 -0.0578698 73.3137 0.855188 74.5124C1.08927 74.8197 1.6035 75.2611 1.99795 75.4935L2.71535 75.9157L17.8021 75.9578L32.8889 76L33.754 75.5442L34.619 75.0885L35.5153 75.5412L36.4115 75.9939L51.2636 75.9905C65.823 75.9872 66.1295 75.9808 66.8183 75.6713C67.343 75.4355 68.9978 73.881 73.3486 69.5371C78.7148 64.1792 79.7156 63.0558 79.8154 62.2785L80 54.0236C79.952 33.538 80.0065 34.6562 78.9946 33.4268C78.7395 33.1169 78.1654 32.6811 77.719 32.4582L76.9073 32.0532H69.989C66.1839 32.0532 63.0705 32.0238 63.0705 31.9879C63.0705 31.9519 63.2637 31.5474 63.5 31.0887L63.9294 30.2549V16.6505C63.9294 1.57154 63.9978 2.58562 62.896 1.32901C62.6067 0.999064 62.0182 0.56513 61.5881 0.364504L60.8062 0L47.2985 0.0107896C38.1406 0.0181391 33.643 0.0753715 33.3319 0.188429ZM29.6224 5.90197C27.072 7.68539 24.9813 9.19752 24.9767 9.26194C24.9718 9.32637 27.3179 9.37922 30.19 9.37922H35.4122L39.6376 6.09102C41.9617 4.28257 43.8631 2.76967 43.8631 2.72901C43.8631 2.68851 41.7023 2.65614 39.0612 2.65724L34.2593 2.65927L29.6224 5.90197ZM44.0987 5.98703L39.884 9.30103L45.1918 9.3972C48.1112 9.45006 50.6539 9.52042 50.8424 9.55358C51.106 9.59986 52.0873 8.82551 55.0977 6.19563C57.2497 4.31557 59.0104 2.74997 59.0104 2.71635C59.0104 2.68273 56.6036 2.65927 53.662 2.66412L48.3136 2.67303L44.0987 5.98703ZM57.0296 8.06898C54.2084 10.5445 53.0194 11.6827 53.0684 11.861C53.107 12.0011 53.1773 17.904 53.2246 24.9786L53.3106 37.8415L57.1682 33.97C59.2898 31.8407 61.0994 29.9004 61.1893 29.6584C61.4015 29.087 61.4185 4.53167 61.2068 4.53167C61.1264 4.53167 59.2465 6.12339 57.0296 8.06898ZM20.3542 12.4214L19.9708 12.8052V26.6584V40.5116L20.3542 40.8953L20.7374 41.2792H35.2744H49.8113L50.1945 40.8953L50.5779 40.5116V26.6584V12.8052L50.1945 12.4214L49.8113 12.0376H35.2744H20.7374L20.3542 12.4214ZM24.2652 30.8675C23.6832 31.1277 23.0111 31.8337 22.7917 32.4152C22.7003 32.6573 22.6255 33.6842 22.6255 34.6972C22.6255 36.3228 22.6682 36.6196 22.9886 37.2281C23.213 37.6539 23.5859 38.0523 23.9646 38.2709C24.5585 38.6137 24.6874 38.6234 28.119 38.5837C31.4174 38.5455 31.6902 38.5205 32.0915 38.2202C33.1039 37.4626 33.1662 37.2561 33.1662 34.6611C33.1662 32.406 33.1475 32.2615 32.7913 31.7613C32.0898 30.7764 31.5451 30.6524 27.9349 30.6554C25.6027 30.6574 24.6066 30.715 24.2652 30.8675ZM41.7479 31.0298C41.1984 31.5799 41.2121 32.536 41.776 32.98C42.1531 33.2772 42.3949 33.3042 44.672 33.3042C47.1018 33.3042 47.165 33.2958 47.5398 32.9203C47.9611 32.4986 48.0508 31.6853 47.723 31.2578C47.3203 30.7325 46.8626 30.6459 44.4908 30.6459C42.1937 30.6459 42.121 30.656 41.7479 31.0298ZM25.2802 34.6334V35.9625H27.9349H30.5896V34.6334V33.3042H27.9349H25.2802V34.6334ZM13.0034 37.4242C10.9319 38.8994 8.85893 40.3697 8.3967 40.6914L7.55625 41.2764L12.5326 41.2778L17.5087 41.2792L17.4145 40.9274C17.3628 40.7338 17.3194 39.2562 17.3183 37.6435C17.3163 34.9505 17.2938 34.7128 17.0429 34.7267C16.8925 34.735 15.0748 35.9489 13.0034 37.4242ZM56.9023 37.9954L53.6258 41.2792H59.5726C64.3459 41.2792 65.6695 41.3244 66.2797 41.5083C66.9036 41.6964 67.0832 41.7011 67.2806 41.5352C68.7044 40.3375 74.9386 34.844 74.9386 34.7869C74.9386 34.7455 71.6176 34.7116 67.5587 34.7116H60.1788L56.9023 37.9954ZM42.0672 36.1432C41.5602 36.4209 41.3645 36.7675 41.3645 37.3885C41.3645 37.8334 41.4626 38.05 41.776 38.2967C42.1531 38.5938 42.3949 38.6209 44.672 38.6209C47.1018 38.6209 47.165 38.6124 47.5398 38.237C48.1042 37.6719 48.0636 36.8906 47.4427 36.3674C46.973 35.9715 46.9114 35.9627 44.6709 35.9672C43.316 35.97 42.252 36.042 42.0672 36.1432ZM73.1428 39.9979C69.6195 43.0906 69.0909 43.6126 69.1448 43.9452C69.179 44.156 69.2493 50.0478 69.3009 57.038L69.395 69.7473L73.338 65.7878L77.2809 61.8281V49.1299C77.2809 42.1458 77.2633 36.4321 77.2419 36.4328C77.2205 36.4334 75.3758 38.0378 73.1428 39.9979ZM3.46943 44.1641C3.19709 44.2836 2.89836 44.523 2.80576 44.6964C2.56497 45.1469 2.56965 72.0777 2.8106 72.6073C2.90602 72.8169 3.15524 73.0665 3.3645 73.162C3.63465 73.2852 7.91526 73.3356 18.1115 73.3356H32.4777L32.8609 72.9517L33.2443 72.5679V58.671V44.774L32.8414 44.3948L32.4384 44.0157L18.2016 43.9815C6.34462 43.9529 3.88185 43.9835 3.46943 44.1641ZM36.7285 44.1666C36.3614 44.3264 36.1852 44.5402 36.0569 44.9813C35.9333 45.406 35.8966 49.4935 35.9301 59.0802L35.9771 72.5809L36.4152 72.9582L36.8534 73.3356H51.2806H65.7077L66.1459 72.9582L66.5841 72.5809L66.6308 59.0802C66.6637 49.5088 66.6267 45.4053 66.5037 44.9809C66.1864 43.8872 66.9167 43.9368 51.2465 43.9436C39.6487 43.9488 37.1403 43.9873 36.7285 44.1666ZM0.0573751 58.7147C0.0573751 66.5412 0.0764264 69.7201 0.099694 65.7787C0.122962 61.8375 0.122962 55.434 0.099694 51.5488C0.0764264 47.6637 0.0573751 50.8883 0.0573751 58.7147ZM6.93162 62.9196C6.34728 63.1862 5.67658 63.8927 5.45811 64.4716C5.36676 64.7137 5.29196 65.7119 5.29196 66.6897C5.29196 68.6309 5.41001 69.1187 6.0437 69.7973C6.79935 70.6067 7.17616 70.6774 10.7135 70.6747C13.7832 70.6722 13.9917 70.6532 14.5687 70.3229C15.7183 69.6646 15.8262 69.3795 15.8829 66.8494C15.9399 64.309 15.8434 63.9631 14.8695 63.2186L14.2962 62.7804L10.8482 62.743C8.20072 62.7144 7.29125 62.7554 6.93162 62.9196ZM24.4143 63.0861C23.9424 63.5585 23.9038 64.3867 24.3291 64.9132C24.6142 65.2661 24.7284 65.2846 26.926 65.3334C28.1902 65.3614 29.393 65.342 29.5988 65.2902C30.5954 65.0398 30.9333 63.814 30.2062 63.0861C29.8311 62.7104 29.7699 62.7022 27.3103 62.7022C24.8506 62.7022 24.7894 62.7104 24.4143 63.0861ZM40.1855 62.9223C39.6174 63.17 38.9116 63.9706 38.7489 64.5517C38.6844 64.7815 38.6332 65.814 38.6349 66.8461C38.6385 68.9773 38.7896 69.4259 39.7511 70.1609L40.3242 70.599L43.5381 70.6478C45.3058 70.6746 46.9783 70.6542 47.255 70.6025C47.9293 70.4763 48.6848 69.8139 49.035 69.0417C49.3722 68.2986 49.4462 65.4467 49.1512 64.5629C48.9243 63.883 48.2961 63.1923 47.6549 62.9176C46.9548 62.6176 40.8753 62.6214 40.1855 62.9223ZM57.676 63.0861C57.1387 63.6241 57.1667 64.3202 57.7491 64.9035L58.2056 65.3606H60.6293C62.9542 65.3606 63.0707 65.3454 63.4834 64.99C64.0865 64.4705 64.0865 63.5923 63.4834 63.0728C63.0695 62.7163 62.9581 62.7022 60.5562 62.7022C58.1133 62.7022 58.051 62.7105 57.676 63.0861ZM7.94665 66.6897V68.0189H10.6013H13.256V66.6897V65.3606H10.6013H7.94665V66.6897ZM41.3645 66.6897V68.0189H44.0192H46.6739V66.6897V65.3606H44.0192H41.3645V66.6897ZM24.4143 68.4028C24.1496 68.6677 24.031 68.9604 24.031 69.3481C24.031 69.7357 24.1496 70.0284 24.4143 70.2933C24.7894 70.6691 24.8506 70.6772 27.3103 70.6772C29.7699 70.6772 29.8311 70.6691 30.2062 70.2933C30.4709 70.0284 30.5896 69.7357 30.5896 69.3481C30.5896 68.9604 30.4709 68.6677 30.2062 68.4028C29.8311 68.027 29.7699 68.0189 27.3103 68.0189C24.8506 68.0189 24.7894 68.027 24.4143 68.4028ZM57.9954 68.2078C57.1813 68.6752 57.0492 69.6091 57.7043 70.265C58.1144 70.6757 58.1256 70.6772 60.5847 70.6772C62.9565 70.6772 63.0699 70.6627 63.4834 70.3066C64.0865 69.7872 64.0865 68.909 63.4834 68.3895C63.0709 68.0342 62.955 68.0191 60.6804 68.0236C59.1902 68.0267 58.1915 68.0951 57.9954 68.2078Z" fill="#331812"/>
</svg>
