<svg width="109" height="80" viewBox="0 0 109 80" fill="none" xmlns="http://www.w3.org/2000/svg">
<path fill-rule="evenodd" clip-rule="evenodd" d="M54.2026 0.301114C44.6448 1.9104 37.251 9.60485 35.9393 19.3072C35.4641 22.8205 36.0073 27.7177 37.3125 31.6871C37.6003 32.5624 37.796 33.3185 37.7471 33.3673C37.6984 33.416 36.2924 33.2392 34.6228 32.9744C31.4828 32.4762 29.2202 31.7122 29.408 31.2138C30.1161 29.3357 30.6709 27.201 30.5626 26.7699C30.4899 26.4796 29.4757 25.3704 28.292 24.2866C26.5818 22.7205 26.0241 22.3278 25.5097 22.3278C24.9616 22.3278 24.2175 22.9584 20.463 26.6056L16.0595 30.8833L12.506 32.6673C10.5516 33.6484 8.86633 34.6203 8.76104 34.8272C8.65554 35.0338 8.16121 36.8559 7.66219 38.8763L6.7552 42.5497L7.41907 45.202C7.78429 46.6606 8.08293 47.9468 8.08293 48.0603C8.08293 48.1737 7.43417 48.4755 6.6414 48.7308L5.19988 49.1954L3.6688 48.424C1.86758 47.5163 1.23073 47.4659 0.5222 48.175C0.0325444 48.6646 0 48.84 0 50.9807V53.2642L3.66922 58.8599C6.23492 62.7726 7.50457 64.5245 7.89064 64.6852C8.84719 65.0829 9.50595 64.7148 11.2268 62.8207C12.6172 61.2906 13.1528 60.8705 14.7214 60.0812C17.056 58.9062 17.4472 58.2536 16.6921 56.7928L16.3677 56.165H18.0111H19.6547L22.2366 58.7188C25.5084 61.955 25.5106 61.9554 27.8619 59.6662L29.5118 58.0597L32.0016 58.6894C33.371 59.0356 34.5207 59.3515 34.5564 59.3913C34.5924 59.431 34.9655 60.1508 35.3858 60.9907C35.8061 61.8305 36.2719 62.5966 36.421 62.6932C36.5702 62.7896 37.3548 62.9165 38.1644 62.975L39.6368 63.0814L40.3666 65.2751L41.0964 67.4688L44.1045 69.4781C45.759 70.5833 47.3045 71.4875 47.5389 71.4875C47.7733 71.4875 49.01 71.1391 50.2871 70.7133L52.6092 69.9393L54.1731 70.7133C55.0331 71.1391 55.9758 71.4875 56.268 71.4875C56.5748 71.4875 57.1297 71.1849 57.58 70.7718L58.3607 70.0561L63.049 71.6231C65.6274 72.485 67.9092 73.19 68.1193 73.19C68.3297 73.19 69.263 72.8069 70.1939 72.3388C71.7673 71.5473 72.0117 71.4875 73.6753 71.4875C75.9887 71.4875 76.1678 71.336 77.0729 68.6145C77.7671 66.5268 77.7939 66.4851 78.4865 66.4172C79.1163 66.3557 79.3671 66.52 80.8087 67.9408C82.0524 69.1664 82.8768 69.7582 84.3879 70.5103C86.5297 71.5762 86.9187 71.6495 87.8593 71.1628C88.2043 70.9842 88.4868 70.8906 88.4868 70.9548C88.4868 71.0189 88.1039 71.8331 87.636 72.7644C86.6903 74.6463 86.5794 75.4916 87.2042 76.0572C87.8557 76.6471 94.8544 80 95.4343 80C95.7185 80 96.1858 79.7648 96.473 79.4775L96.9952 78.9553V71.6014V64.2474L95.0844 60.4285C94.0238 58.3087 92.989 56.5106 92.7586 56.3872C92.5302 56.265 91.9644 56.165 91.5011 56.165H90.6586L91.1501 54.232C91.4205 53.169 91.6736 52.2716 91.7127 52.2382C91.7519 52.2046 93.2923 51.4159 95.1361 50.4853L98.4884 48.7936L98.6943 49.5582C98.8478 50.1288 99.6478 51.0643 101.847 53.2439C104.405 55.78 104.883 56.165 105.477 56.165C105.92 56.165 106.345 55.9807 106.683 55.6426L107.205 55.1203V50.3169V45.5138L106.458 44.0294L105.711 42.545L106.428 41.1085C106.875 40.2111 107.492 38.2556 108.072 35.8965L109 32.1208L108.309 30.7182L107.617 29.3155L108.262 28.5809C108.617 28.1768 108.907 27.6084 108.907 27.3176C108.907 26.4334 106.848 22.5626 106.227 22.2797C105.773 22.0727 105.062 22.184 101.819 22.9697L97.9523 23.9065L95.5062 26.2885L93.06 28.6705L91.0393 27.954C89.9279 27.5596 88.8146 27.2338 88.5653 27.2298C88.3162 27.2257 87.2633 27.6484 86.2255 28.1689C79.2297 31.6786 78.223 32.1389 78.3725 31.7607C78.7486 30.8084 79.3837 28.0021 79.6643 26.0521C80.4054 20.9041 79.7107 16.3733 77.5178 12.049C73.1962 3.5265 63.6412 -1.28796 54.2026 0.301114ZM54.5598 3.69824C50.8187 4.38264 47.5187 6.10855 44.7773 8.81425C39.0135 14.5031 37.6809 22.2219 40.8545 31.5345C41.5312 33.5203 41.6528 33.7927 43.4908 37.4375C45.8145 42.0458 49.988 47.6157 54.8125 52.5472L57.8312 55.633L59.8837 53.6113C65.0399 48.5325 69.9463 42.0607 72.4079 37.0908C72.8642 36.1696 73.4515 34.9849 73.7133 34.4581C74.4046 33.0666 75.4658 29.8525 75.9434 27.7039C76.5653 24.9061 76.7006 21.3732 76.278 18.9571C74.4904 8.73423 64.686 1.84592 54.5598 3.69824ZM55.6233 10.3997C51.2045 11.3548 47.9358 14.3167 46.4528 18.71C45.9025 20.3402 45.9042 23.899 46.4562 25.52C47.7801 29.4085 50.4513 32.1442 54.1714 33.4215C56.0728 34.0744 59.4804 34.1249 61.2601 33.5265C65.0531 32.2511 67.903 29.4566 69.1673 25.7733C69.8114 23.8973 69.8565 20.4751 69.2607 18.71C67.5503 13.6432 63.4974 10.5061 58.3885 10.295C57.3356 10.2514 56.0913 10.2986 55.6233 10.3997ZM55.8611 13.8256C54.5151 14.1639 52.5994 15.2982 51.6695 16.3076C51.192 16.826 50.4981 17.8901 50.128 18.6717C49.5184 19.959 49.4548 20.2853 49.4548 22.1261C49.4548 24.0446 49.4994 24.2491 50.2492 25.7669C51.206 27.7039 52.4376 28.9103 54.4151 29.8476C55.7001 30.4566 56.0294 30.5211 57.8568 30.5211C59.6841 30.5211 60.0134 30.4566 61.2984 29.8476C63.2759 28.9103 64.5075 27.7039 65.4643 25.7669C66.2149 24.2474 66.2588 24.0463 66.2588 22.115C66.2588 20.1838 66.2149 19.9826 65.4643 18.4632C64.027 15.5534 61.4734 13.846 58.3351 13.6966C57.4286 13.6534 56.3153 13.7115 55.8611 13.8256ZM102.1 26.4192L99.654 27.0363L96.9769 29.6833C95.0389 31.5994 94.158 32.33 93.7862 32.3302C93.5038 32.3302 92.2473 31.971 90.994 31.5322L88.7153 30.7339L82.5627 33.805L76.4098 36.8759L75.9408 37.8485C74.3413 41.1647 70.7484 46.5497 67.6245 50.3127C65.2175 53.2122 59.0862 59.3074 58.4045 59.4787C58.1033 59.5543 57.6155 59.5555 57.3209 59.4817C56.6345 59.3093 50.4266 53.132 47.9994 50.2063C45.5586 47.2641 43.0065 43.5855 41.1176 40.2871C40.276 38.8172 39.5581 37.5318 39.5223 37.4309C39.4866 37.3298 37.3516 36.8946 34.7779 36.4635C30.2174 35.6997 30.044 35.652 27.9712 34.5901C25.2045 33.1728 25.1762 33.0998 26.2006 29.9978L26.9647 27.6839L26.2619 27.0023L25.5591 26.3208L21.7665 30.0453L17.9739 33.7695L14.8896 35.3083C13.1933 36.1547 11.7726 36.8772 11.7326 36.9138C11.6926 36.9502 11.3452 38.2285 10.9607 39.7542L10.2615 42.5282L11.1366 46.0558C12.2727 50.6351 12.3886 50.385 8.5043 51.7345C5.3007 52.8473 4.93527 52.9032 4.00743 52.4231C3.22296 52.0173 3.01195 51.6268 6.2464 56.5674L8.80869 60.4811L9.88159 59.2976C10.4716 58.6466 11.3852 57.903 11.9117 57.6453C12.4381 57.3876 12.8993 57.1501 12.9363 57.1178C12.9735 57.0852 12.7581 56.5734 12.4577 55.9805C11.7743 54.6311 11.7683 53.9481 12.4339 53.2825C12.9518 52.764 12.9876 52.76 17.038 52.76H21.1198L23.319 54.9252L25.5182 57.0903L26.8857 55.7764C27.6885 55.0054 28.4406 54.4625 28.7067 54.4625C29.2317 54.4625 35.8231 56.0739 36.5263 56.374C36.8029 56.4921 37.3104 57.1954 37.752 58.0729L38.5056 59.57H39.9684C41.0479 59.57 41.549 59.6675 41.8817 59.9424C42.1569 60.1699 42.6474 61.267 43.1422 62.7622L43.9524 65.2095L45.9121 66.5552L47.872 67.9008L50.1527 67.1404C51.4072 66.7222 52.6035 66.38 52.8113 66.38C53.0193 66.38 53.767 66.6718 54.4732 67.0285L55.7571 67.6769L56.4952 67.0285C56.9013 66.6718 57.4454 66.38 57.7045 66.38C57.9635 66.38 60.3684 67.1112 63.0488 68.005L67.9217 69.6301L69.3237 68.9178C70.3634 68.3896 71.1057 68.1759 72.1965 68.0908L73.6674 67.9761L74.3755 65.848C74.7905 64.6 75.2697 63.5658 75.5337 63.3474C75.9025 63.0425 76.4092 62.975 78.3289 62.975H80.6738L82.6129 64.8667C83.724 65.9508 85.0279 66.9967 85.6676 67.317L86.7834 67.8759L88.2679 67.128C90.0228 66.2438 90.6632 66.1972 91.368 66.9025C91.8565 67.3911 91.8901 67.5694 91.8901 69.676C91.8901 71.6554 91.8259 72.054 91.3584 72.9772C91.0659 73.5546 90.8266 74.0823 90.8266 74.1496C90.8266 74.217 91.4249 74.5552 92.156 74.9012L93.4855 75.5305L93.5423 70.3211L93.5993 65.1119L92.2113 62.3408L90.8236 59.57H89.3264C88.0205 59.57 87.7627 59.5034 87.3073 59.0476C87.0202 58.7603 86.7851 58.3251 86.7851 58.0803C86.7851 57.5608 88.3987 50.962 88.6965 50.2641C88.8352 49.939 89.9543 49.261 92.2558 48.1077L95.6125 46.4254L96.4236 43.9557C97.2783 41.3541 97.6556 40.8425 98.7206 40.8425C99.8591 40.8425 100.15 41.359 101.059 44.9924C101.885 48.2973 101.938 48.4254 102.856 49.3522L103.802 50.3071V48.3367C103.802 46.4618 103.761 46.2839 102.951 44.6731C102.483 43.7419 102.1 42.7844 102.1 42.5454C102.1 42.3065 102.517 41.275 103.027 40.253C103.654 38.9959 104.185 37.4484 104.668 35.4671L105.382 32.539L104.592 30.9412C104.157 30.0625 103.802 29.1091 103.802 28.8224C103.802 28.5358 104.095 27.9678 104.453 27.56C105.041 26.889 105.077 26.7703 104.825 26.3104L104.546 25.8022L102.1 26.4192Z" fill="#331812"/>
</svg>
