<svg width="86" height="56" viewBox="0 0 86 56" fill="none" xmlns="http://www.w3.org/2000/svg">
<path d="M0 3C0 1.34315 1.34315 0 3 0H53C54.6569 0 56 1.34315 56 3V47H3C1.34314 47 0 45.6569 0 44V3Z" fill="#331812"/>
<path fill-rule="evenodd" clip-rule="evenodd" d="M70.3735 8H58V47H83C84.6569 47 86 45.6569 86 44V30.3907C86 29.8094 85.8312 29.2407 85.514 28.7536L72.8875 9.36298C72.3339 8.51278 71.3881 8 70.3735 8ZM72.3772 17H65C63.3431 17 62 18.3431 62 20V27C62 28.6569 63.3431 30 65 30H80.6514C81.446 30 81.9232 29.1179 81.4883 28.4528L74.8881 18.3583C74.334 17.5108 73.3897 17 72.3772 17Z" fill="#EA6836"/>
<circle cx="19.5" cy="47.5" r="8.5" fill="#331812"/>
<circle cx="69.5" cy="47.5" r="8.5" fill="#331812"/>
<circle cx="69.5" cy="47.5" r="4.5" fill="#FAF6F0"/>
<circle cx="19.5" cy="47.5" r="4.5" fill="#FAF6F0"/>
</svg>
