<svg width="47" height="12" viewBox="0 0 47 12" fill="none" xmlns="http://www.w3.org/2000/svg">
<rect width="47" height="12" fill="#DCDBDB"/>
<g id="Main 768" clip-path="url(#clip0_325_186)">
<rect width="768" height="9912" transform="translate(-472 -9886)" fill="#FAF6F0"/>
<g id="Frame 68">
<g id="Logo">
<path d="M5.31963 0V1.66956C3.65324 1.29689 1.55423 1.35652 1.55423 3.42857H5.31963V4.65093H2.64379V11.8509H1.00945V4.65093H0V3.42857H1.00945C1.00945 1.02857 2.03492 0 5.31963 0Z" fill="#331812"/>
<path d="M9.70404 12C7.89345 12 5.98671 11.1652 6.03478 9.13789C6.06683 7.33416 7.70117 6.66335 9.23938 6.51429C10.7936 6.36522 12.5241 6.81242 13.2131 7.43851V6.27578C13.2131 4.94907 11.771 4.18882 10.4892 4.18882C9.38358 4.18882 7.76526 4.66584 7.73322 6.09689H6.24308C6.19501 3.77143 8.58243 2.90683 10.6013 2.90683C12.9086 2.90683 14.7833 4.05466 14.7833 5.90311V11.8509H13.2291L13.4054 9.8236L13.0528 9.83851C12.8125 10.9267 11.5627 12 9.70404 12ZM9.97643 10.7329C11.6588 10.7329 12.9247 10.0472 13.2291 9.25714V8.86957C12.9086 8.12422 11.4505 7.60248 9.91234 7.6323C8.80676 7.6472 7.52492 8.01988 7.5089 9.1677C7.47685 10.3602 8.80676 10.7478 9.97643 10.7329Z" fill="#331812"/>
<path d="M22.5108 2.90683C25.5552 2.90683 26.7088 4.93416 26.7088 7.45342C26.7088 9.95776 25.3629 12 22.3345 12C20.1714 12 19.0338 10.9565 18.5691 9.49565H18.5371V11.8509H16.9829V0.819876H18.5371V4.82981L17.6718 6.73789L18.0404 6.87205C18.8575 4.32298 20.1073 2.90683 22.5108 2.90683ZM22.3345 10.7031C24.4656 10.6882 25.2988 9.21242 25.2988 7.45342C25.2828 5.6795 24.5457 4.20373 22.3345 4.20373C20.1394 4.20373 19.3703 5.6646 19.3703 7.45342C19.3703 9.21242 20.2035 10.6882 22.3345 10.7031Z" fill="#331812"/>
<path d="M32.8163 12C29.2111 12 27.6409 9.95776 27.6409 7.45342C27.6409 4.94907 29.2111 2.90683 32.8163 2.90683C36.3254 2.90683 38.2161 4.85963 37.9116 8.19876L29.2432 8.18385C29.4515 9.65963 30.525 10.7627 32.8163 10.7627C34.8032 10.7776 35.7806 9.88323 35.9889 8.7205H37.6873C37.3829 10.6584 35.7645 12 32.8163 12ZM29.2272 6.91677H36.3093C36.2292 5.2323 35.0115 4.20373 32.8003 4.20373C30.6372 4.20373 29.3874 5.15776 29.2272 6.91677Z" fill="#331812"/>
<path d="M46.8 3.29441L45.9989 4.63602C45.5983 4.33789 44.9894 4.20373 44.1722 4.20373C42.2014 4.20373 41.4483 5.11304 41.4483 6.87205V11.8509H39.8941V3.0559H41.4483V4.18882L40.551 5.99255L40.9035 6.14161C41.4804 4.56149 42.5539 2.90683 44.6369 2.90683C45.5502 2.90683 46.2552 3.02609 46.8 3.29441Z" fill="#331812"/>
</g>
</g>
</g>
<defs>
<clipPath id="clip0_325_186">
<rect width="768" height="9912" fill="white" transform="translate(-472 -9886)"/>
</clipPath>
</defs>
</svg>
