<svg width="79" height="56" viewBox="0 0 79 56" fill="none" xmlns="http://www.w3.org/2000/svg">
<path d="M0 3C0 1.34315 1.34315 0 3 0H53.2963C54.9531 0 56.2963 1.34315 56.2963 3V45.5602C56.2963 47.217 54.9531 48.5602 53.2963 48.5602H3C1.34315 48.5602 0 47.217 0 45.5602V3Z" fill="#331812"/>
<ellipse cx="58.2716" cy="38.6497" rx="15.8025" ry="15.8564" fill="#FAF6F0"/>
<rect x="25.679" width="5.92592" height="28.7397" fill="#E95E2A"/>
<path fill-rule="evenodd" clip-rule="evenodd" d="M70.1885 45.6908C71.4023 43.6269 72.0987 41.22 72.0987 38.65C72.0987 30.9874 65.9081 24.7756 58.2716 24.7756C50.635 24.7756 44.4444 30.9874 44.4444 38.65C44.4444 46.3126 50.635 52.5243 58.2716 52.5243C61.8637 52.5243 65.1358 51.1499 67.5943 48.8966L75.6469 55.3731C76.0772 55.7193 76.7055 55.6501 77.0502 55.2185L78.3758 53.5591C78.7205 53.1276 78.6511 52.4972 78.2207 52.151L70.1885 45.6908Z" fill="#331812"/>
<ellipse cx="58.2716" cy="38.6505" rx="9.87654" ry="9.91024" fill="#FAF6F0"/>
</svg>
