<svg width="64" height="64" viewBox="0 0 64 64" fill="none" xmlns="http://www.w3.org/2000/svg">
<path fill-rule="evenodd" clip-rule="evenodd" d="M3.67471 0.0786782C2.30756 0.28741 1.04679 1.24793 0.397973 2.57517L0.0505598 3.28601L0.016556 11.6378C-0.0218232 21.0237 -0.0773293 20.4317 0.918781 21.2423L1.38571 21.6222L4.06225 21.6605L6.7388 21.6988V39.8438C6.7388 59.5478 6.70167 58.4629 7.40112 59.2153C8.03294 59.8952 7.42662 59.8645 20.234 59.8645H32.1166V61.0617C32.1166 62.8808 32.5604 63.6239 33.8012 63.8828C34.2213 63.9703 38.0081 64.0031 45.0995 63.9804L55.766 63.9462L56.0676 63.5938C56.437 63.1623 56.4475 62.8869 56.1108 62.4567L55.8521 62.1265L44.9533 62.0944L34.0543 62.0624L34.0222 53.5536L33.9901 45.0448H62.1217L62.0895 53.5536L62.0574 62.0624L60.6405 62.1252C59.083 62.1942 58.8696 62.303 58.8696 63.0283C58.8696 63.8127 59.5794 64.082 61.3765 63.979C62.7586 63.8999 63.3093 63.6398 63.7113 62.8761L64 62.3276L63.9662 53.3814C63.933 44.5273 63.9299 44.4316 63.6711 44.0807C63.5272 43.8856 63.2235 43.599 62.9963 43.4436C62.5921 43.1673 62.5062 43.161 59.1011 43.161H55.6192V38.8218C55.6192 34.0288 55.6093 33.9617 54.8317 33.4855C54.4798 33.2699 54.1949 33.2402 52.4665 33.2398L50.5014 33.2393L50.4663 18.3883L50.4311 3.53719L50.1295 2.78453C49.7217 1.76699 48.6928 0.733381 47.6799 0.323705L46.9307 0.0206554H31.5888H16.2468L15.9741 0.294694C15.6455 0.624746 15.6284 1.25873 15.9387 1.60322C16.1475 1.83494 16.5754 1.84172 31.0672 1.84172C41.5445 1.84172 46.1738 1.88329 46.6295 1.9815C47.5496 2.17968 48.2914 2.93448 48.4828 3.86712C48.5805 4.34335 48.6117 8.75522 48.5885 18.8592L48.5559 33.1765L36.6796 33.2393C27.1906 33.2894 24.7454 33.3353 24.5153 33.4672C24.1128 33.6977 23.7417 34.3562 23.7412 34.8406L23.7407 35.2488H18.7401C13.9062 35.2488 13.7312 35.2572 13.4895 35.5C13.1526 35.8384 13.1593 36.5184 13.5025 36.8306C13.7504 37.0562 14.0515 37.0719 18.7531 37.1054L23.7407 37.1409V39.6486V42.1563H18.7401C13.9062 42.1563 13.7312 42.1647 13.4895 42.4074C13.1173 42.7815 13.1561 43.4536 13.5689 43.7798C13.8895 44.0331 14.0301 44.0401 18.8195 44.0401H23.7407L23.7412 47.5253C23.7418 52.517 23.4198 52.2035 28.5475 52.2035H32.1166V55.0927V57.9819L20.3966 57.9499L8.67651 57.9179L8.61401 30.5391L8.5515 3.16042L8.27022 2.63168C8.11558 2.34081 7.98894 2.04417 7.98894 1.97233C7.98894 1.88655 8.80115 1.84172 10.3571 1.84172C12.6626 1.84172 12.7305 1.83431 12.9199 1.56253C13.1986 1.1629 13.1663 0.546252 12.8516 0.259905C12.6049 0.0356007 12.3295 0.0195251 8.44486 0.00181686C6.16574 -0.00848156 4.01912 0.0260558 3.67471 0.0786782ZM4.051 1.93553C3.37793 2.04743 3.19616 2.13183 2.74248 2.54364C1.82776 3.3738 1.85338 3.09247 1.89164 11.889L1.92577 19.7384L4.33491 19.7725L6.74417 19.8066L6.71017 11.6626L6.67629 3.51873L6.333 2.99765C5.85595 2.27362 4.84584 1.80341 4.051 1.93553ZM13.8646 21.3973C13.2211 21.635 13.0187 22.4679 13.4895 22.9409C13.7351 23.1876 13.9062 23.1921 23.0939 23.1921H32.448L32.7199 22.9015C33.1688 22.4214 33.0631 21.7935 32.4826 21.492C32.1814 21.3354 30.7923 21.3097 23.0906 21.3182C18.1194 21.3236 13.9677 21.3592 13.8646 21.3973ZM39.913 21.4509C39.6463 21.5849 39.3674 22.052 39.3674 22.3647C39.3674 22.4558 39.484 22.6792 39.6266 22.8612L39.8856 23.1921H42.1755C44.1738 23.1921 44.4998 23.164 44.7366 22.9713C45.1068 22.6703 45.118 22.006 44.7591 21.6451C44.5026 21.387 44.3611 21.3694 42.3334 21.3439C41.0013 21.3272 40.0781 21.368 39.913 21.4509ZM13.4464 28.571C13.1495 28.9006 13.1799 29.6296 13.5025 29.9231C13.7552 30.1528 14.1166 30.1639 22.5973 30.2002C27.4548 30.2209 31.6693 30.2032 31.963 30.1606C32.8937 30.026 33.2972 29.2206 32.7368 28.6162L32.4819 28.3413H23.0676C14.106 28.3413 13.6433 28.3524 13.4464 28.571ZM39.6266 28.6722C39.2891 29.103 39.2995 29.3783 39.6691 29.81L39.9708 30.1624H42.2187C44.2539 30.1624 44.4916 30.1398 44.7299 29.9231C45.0688 29.615 45.0882 28.8435 44.7644 28.5492C44.569 28.3715 44.1988 28.3413 42.2107 28.3413H39.8856L39.6266 28.6722ZM25.6159 36.7643V38.4055L25.8972 38.318C27.045 37.9608 28.1783 36.9657 28.6223 35.9253C28.7565 35.6109 28.8662 35.3017 28.8662 35.2384C28.8662 35.1744 28.1433 35.1232 27.2411 35.1232H25.6159V36.7643ZM30.6967 35.6051C30.3888 37.5397 28.0842 39.8424 26.0847 40.2134L25.6159 40.3004V42.7243V45.1483L26.1237 45.2346C28.0755 45.5658 30.3777 47.8887 30.6967 49.8487L30.7735 50.3196H31.4385H32.1037L32.1415 47.3772C32.1834 44.1056 32.1907 44.0759 33.1155 43.4436C33.5103 43.1737 33.6439 43.1607 36.1043 43.1555C41.9841 43.1428 47.8641 43.161 53.744 43.161V41.7306V40.3004L53.2752 40.2134C51.2757 39.8424 48.9711 37.5397 48.6632 35.6051L48.5864 35.1232H39.6799H30.7735L30.6967 35.6051ZM50.4964 35.2802C50.5025 35.6325 51.0073 36.5252 51.5105 37.0736C52.0052 37.6128 52.7766 38.1045 53.4627 38.318L53.744 38.4055V36.7643V35.1232H52.1188C50.9006 35.1232 50.4943 35.1625 50.4964 35.2802ZM25.6159 48.6786V50.3196H27.2411C29.0463 50.3196 29.0121 50.3406 28.6206 49.4742C28.1607 48.4563 26.997 47.4512 25.8972 47.1216L25.6159 47.0373V48.6786ZM38.3048 47.8021C38.1673 47.8592 37.9141 48.058 37.7422 48.2438C37.4322 48.5788 37.4297 48.6006 37.4297 50.9045V53.2276L37.8966 53.6575L38.3637 54.0874H41.1724C44.2553 54.0874 44.4681 54.0467 44.8791 53.3784C45.1152 52.995 45.1313 52.7982 45.0949 50.7527L45.0555 48.5415L44.5886 48.1119L44.1216 47.6822L41.3382 47.6902C39.8073 47.6945 38.4423 47.7449 38.3048 47.8021ZM55.176 48.9953C54.7822 49.3908 54.7749 49.9357 55.1584 50.2978C55.4193 50.5439 55.5831 50.5708 56.8243 50.5708C58.1016 50.5708 58.2205 50.5499 58.4728 50.2802C58.8333 49.8945 58.8192 49.3786 58.4376 48.9953C58.1505 48.7067 58.0458 48.687 56.8068 48.687C55.5678 48.687 55.4632 48.7067 55.176 48.9953ZM39.2424 50.8848V52.2035H41.2426H43.2428V50.8848V49.5661H41.2426H39.2424V50.8848ZM38.0549 57.6122C37.8487 57.674 37.6096 57.8212 37.5236 57.9393C37.2895 58.261 37.3348 58.8273 37.6172 59.111C37.8382 59.333 38.0339 59.3622 39.3049 59.3622C40.5759 59.3622 40.7716 59.333 40.9926 59.111C41.4971 58.6041 41.2492 57.8129 40.5223 57.6101C39.9635 57.4542 38.5786 57.4553 38.0549 57.6122ZM43.9304 57.5617C43.4772 57.6852 43.2428 57.9993 43.2428 58.483C43.2428 59.2557 43.4737 59.3622 45.15 59.3622C46.5676 59.3622 46.6058 59.3547 46.8591 59.0312C47.1953 58.602 47.1863 58.3253 46.8221 57.9C46.5426 57.5734 46.4606 57.5524 45.3532 57.5239C44.7082 57.5072 44.0679 57.5243 43.9304 57.5617ZM49.7773 57.5598C49.4511 57.631 48.9935 58.1702 48.9935 58.483C48.9935 58.6026 49.1101 58.8492 49.2526 59.0312C49.5065 59.3555 49.5414 59.3622 50.9957 59.3622C52.3875 59.3622 52.4917 59.3448 52.6742 59.083C52.9505 58.6869 52.9207 58.0667 52.6117 57.7859C52.406 57.5986 52.1256 57.5467 51.2053 57.5254C50.5733 57.5108 49.9306 57.5263 49.7773 57.5598ZM55.5568 57.6122C55.3507 57.674 55.1115 57.8212 55.0255 57.9393C54.7915 58.261 54.8367 58.8273 55.1191 59.111C55.3402 59.333 55.5358 59.3622 56.8068 59.3622C58.0778 59.3622 58.2735 59.333 58.4945 59.111C58.9991 58.6041 58.7512 57.8129 58.0242 57.6101C57.4654 57.4542 56.0805 57.4553 55.5568 57.6122Z" fill="#331812"/>
</svg>
