<svg width="376" height="459" viewBox="0 0 376 459" fill="none" xmlns="http://www.w3.org/2000/svg">
<path fill-rule="evenodd" clip-rule="evenodd" d="M296.214 363.981V380.02L159.097 459L76.0381 411.657V395.291H77.3644V410.885L159.094 457.47L294.888 379.252V363.981H296.214Z" fill="#331812"/>
<path fill-rule="evenodd" clip-rule="evenodd" d="M219.948 341.414V367.981L178.493 391.958L149.651 376.072V359.517H150.977V375.287L178.478 390.434L218.622 367.215V341.414H219.948Z" fill="#331812"/>
<path fill-rule="evenodd" clip-rule="evenodd" d="M177.505 391.196V358.672H178.831V391.196H177.505Z" fill="#331812"/>
<path fill-rule="evenodd" clip-rule="evenodd" d="M83.6741 310.976L100.254 320.932L99.5712 322.07L82.9917 312.114L83.6741 310.976Z" fill="#998C89"/>
<path fill-rule="evenodd" clip-rule="evenodd" d="M69.0948 255.227L90.3166 268.502L89.6136 269.627L68.3918 256.352L69.0948 255.227Z" fill="#998C89"/>
<path fill-rule="evenodd" clip-rule="evenodd" d="M181.493 162.059C177.394 153.893 172.558 144.642 169.356 138.616L170.528 137.993C173.733 144.025 178.573 153.285 182.678 161.463C184.73 165.551 186.601 169.374 187.992 172.389C188.688 173.896 189.266 175.207 189.688 176.252C190.101 177.273 190.391 178.103 190.47 178.615C190.997 182.044 192.215 201.407 192.757 210.615L192.843 212.081L191.686 211.177C182.634 204.097 173.887 192.366 167.125 181.636C160.363 170.906 155.529 161.082 154.333 157.757L155.58 157.307C156.73 160.501 161.506 170.231 168.247 180.928C174.695 191.16 182.886 202.189 191.344 209.197C190.766 199.504 189.647 181.995 189.159 178.817C189.107 178.481 188.879 177.79 188.459 176.75C188.048 175.733 187.48 174.444 186.788 172.946C185.406 169.95 183.542 166.142 181.493 162.059Z" fill="#331812"/>
<path fill-rule="evenodd" clip-rule="evenodd" d="M247.795 267.902C248.116 245.549 237.764 223.731 224.261 213.845L225.044 212.773C239.078 223.048 249.629 245.61 249.11 268.512L249.097 269.092L248.521 269.156L248.447 268.497C248.521 269.156 248.521 269.156 248.521 269.156L248.519 269.157L248.092 269.204C247.811 269.236 247.398 269.282 246.868 269.342C245.807 269.461 244.279 269.633 242.407 269.845C238.664 270.269 233.55 270.85 228.064 271.483C217.089 272.749 204.637 274.217 198.697 275.032L198.25 275.094L194.17 267.843L195.326 267.191L198.963 273.656C205.08 272.828 217.209 271.398 227.913 270.164C233.4 269.531 238.515 268.95 242.258 268.526C244.13 268.314 245.659 268.142 246.72 268.023C247.163 267.973 247.524 267.932 247.795 267.902Z" fill="#331812"/>
<path fill-rule="evenodd" clip-rule="evenodd" d="M118.577 286.974L135.82 258.433L136.955 259.119L119.712 287.661L118.577 286.974Z" fill="#331812"/>
<path fill-rule="evenodd" clip-rule="evenodd" d="M149.705 196.309C158.691 194.841 168.837 193.512 175.438 192.737L175.593 194.055C169.004 194.829 158.879 196.155 149.919 197.619C145.438 198.351 141.257 199.116 137.958 199.862C136.308 200.235 134.888 200.601 133.766 200.953C132.625 201.312 131.854 201.638 131.456 201.91L130.709 200.813C131.283 200.421 132.219 200.048 133.369 199.687C134.54 199.319 135.998 198.944 137.666 198.567C141.003 197.812 145.214 197.042 149.705 196.309Z" fill="#331812"/>
<path fill-rule="evenodd" clip-rule="evenodd" d="M164.87 246.314C178.201 238.562 188.342 229.473 193.586 223.491L194.583 224.367C189.243 230.458 178.989 239.639 165.537 247.462C152.082 255.286 135.39 261.775 117.179 262.426L117.132 261.1C135.062 260.458 151.541 254.066 164.87 246.314Z" fill="#331812"/>
<path fill-rule="evenodd" clip-rule="evenodd" d="M240.785 96.5967C241.786 93.3186 242.385 90.9688 242.5 89.7861L243.82 89.9143C243.69 91.2523 243.047 93.7302 242.053 96.9849C241.051 100.263 239.673 104.391 238.041 109.065C234.776 118.414 230.489 129.967 226.152 141.313C221.816 152.659 217.427 163.803 213.96 172.335C212.227 176.601 210.722 180.217 209.569 182.88C208.992 184.211 208.501 185.309 208.113 186.132C207.736 186.93 207.428 187.529 207.221 187.813L206.149 187.031C206.268 186.869 206.522 186.393 206.914 185.564C207.293 184.76 207.778 183.678 208.352 182.352C209.499 179.702 211 176.097 212.732 171.835C216.195 163.313 220.579 152.178 224.914 140.838C229.248 129.499 233.53 117.959 236.789 108.627C238.418 103.961 239.79 99.8511 240.785 96.5967Z" fill="#331812"/>
<path fill-rule="evenodd" clip-rule="evenodd" d="M212.388 343.904C241.587 327.152 270.827 297.494 293.11 258.865C315.393 220.236 326.435 180.063 326.331 146.378C326.227 112.654 314.975 85.7132 293.016 73.0242C271.057 60.3352 242.121 64.0526 212.888 80.8244C183.689 97.577 154.449 127.235 132.166 165.864C109.883 204.492 98.8408 244.666 98.9447 278.351C99.0488 312.075 110.301 339.016 132.259 351.705C154.218 364.394 183.155 360.676 212.388 343.904ZM131.596 352.854C176.674 378.903 249.5 337.119 294.258 259.529C339.016 181.939 338.757 97.9228 293.679 71.8745C248.602 45.8263 175.775 87.6094 131.017 165.2C86.2593 242.79 86.5185 326.806 131.596 352.854Z" fill="#331812"/>
<path fill-rule="evenodd" clip-rule="evenodd" d="M286.073 65.909L286.08 65.9127C287.369 66.6574 289.053 67.937 290.667 69.2275C291.479 69.8767 292.281 70.5358 293.017 71.1413L293.221 71.309C293.877 71.8497 294.473 72.3399 294.97 72.7376L294.142 73.7748C293.637 73.3707 293.034 72.8741 292.379 72.3351L292.174 72.1666C291.439 71.5611 290.643 70.9073 289.839 70.2646C288.223 68.9723 286.611 67.753 285.42 67.0643C263.671 54.832 234.405 58.6661 204.868 75.3828C175.349 92.0885 145.69 121.599 123.288 160.434C100.886 199.27 90.2004 239.491 90.502 273.329C90.8038 307.183 102.091 334.517 123.475 347.819C124.124 348.193 125.66 348.919 127.246 349.65C127.955 349.977 128.67 350.303 129.307 350.594C130.08 350.946 130.737 351.246 131.122 351.428L130.556 352.628C130.176 352.449 129.535 352.156 128.773 351.809C128.137 351.519 127.416 351.19 126.691 350.856C125.121 350.132 123.511 349.373 122.802 348.964L122.793 348.958L122.784 348.953C100.851 335.314 89.4796 307.43 89.1757 273.341C88.8717 239.232 99.6373 198.779 122.14 159.77C144.642 120.76 174.461 91.066 204.215 74.2272C233.947 57.4002 263.745 53.3491 286.073 65.909Z" fill="#331812"/>
<path fill-rule="evenodd" clip-rule="evenodd" d="M156.883 53.4155C128.61 69.3378 100.5 97.9401 79.1105 135.02C57.7231 172.096 47.361 210.826 47.8681 243.453C48.3754 276.091 59.7467 302.494 81.673 315.17L103.202 326.72L102.575 327.89L81.0281 316.33L81.019 316.325C58.523 303.325 47.0531 276.363 46.5419 243.474C46.0304 210.569 56.4753 171.605 77.9619 134.356C99.4463 97.112 127.714 68.3191 156.233 52.2585C184.739 36.2049 213.615 32.8195 236.163 46.6548C236.164 46.6555 236.166 46.6562 236.167 46.6569L256.31 58.6885L255.631 59.8285L235.473 47.7886C213.495 34.3015 185.167 37.487 156.883 53.4155Z" fill="#331812"/>
<path fill-rule="evenodd" clip-rule="evenodd" d="M212.32 322.055C236.672 308.083 261.071 283.34 279.669 251.099C298.267 218.859 307.477 185.338 307.39 157.245C307.303 129.113 297.918 106.704 279.671 96.1594C261.423 85.6151 237.34 88.6848 212.955 102.675C188.603 116.647 164.204 141.39 145.606 173.631C127.008 205.871 117.798 239.392 117.885 267.485C117.972 295.617 127.357 318.026 145.604 328.571C163.852 339.115 187.935 336.045 212.32 322.055ZM144.941 329.72C182.596 351.479 243.43 316.576 280.818 251.763C318.205 186.949 317.989 116.769 280.334 95.0097C242.679 73.2509 181.845 108.154 144.457 172.967C107.07 237.781 107.286 307.961 144.941 329.72Z" fill="#331812"/>
<path fill-rule="evenodd" clip-rule="evenodd" d="M212.047 227.957C215.315 226.084 218.658 222.719 221.226 218.268C223.793 213.818 225.033 209.237 225.02 205.469C225.006 201.661 223.738 198.96 221.632 197.743C219.526 196.527 216.555 196.778 213.254 198.67C209.986 200.543 206.643 203.908 204.076 208.358C201.509 212.809 200.268 217.389 200.282 221.158C200.295 224.965 201.564 227.666 203.669 228.883C205.775 230.1 208.746 229.849 212.047 227.957ZM203.006 230.033C208.376 233.136 217.048 228.166 222.374 218.932C227.701 209.698 227.665 199.697 222.295 196.594C216.925 193.491 208.254 198.461 202.927 207.695C197.601 216.928 197.636 226.93 203.006 230.033Z" fill="#331812"/>
<path fill-rule="evenodd" clip-rule="evenodd" d="M214.871 220.196C215.958 219.573 217.123 218.418 218.033 216.841C218.943 215.263 219.36 213.675 219.356 212.422C219.351 211.131 218.924 210.468 218.489 210.217C218.054 209.965 217.267 209.926 216.147 210.568C215.06 211.191 213.895 212.346 212.985 213.924C212.075 215.501 211.658 217.089 211.663 218.342C211.667 219.634 212.095 220.296 212.529 220.548C212.964 220.799 213.751 220.838 214.871 220.196ZM211.866 221.697C213.895 222.869 217.17 220.992 219.182 217.504C221.194 214.017 221.18 210.239 219.152 209.067C217.124 207.895 213.848 209.772 211.836 213.26C209.824 216.748 209.838 220.525 211.866 221.697Z" fill="#998C89"/>
<path fill-rule="evenodd" clip-rule="evenodd" d="M212.297 207.319C211.1 208.144 209.804 209.654 208.796 211.402C207.78 213.162 207.119 214.947 207.03 216.322C206.986 217.006 207.087 217.53 207.297 217.897C207.494 218.242 207.819 218.508 208.371 218.636L208.072 219.93C207.193 219.726 206.542 219.25 206.145 218.556C205.762 217.884 205.652 217.072 205.706 216.236C205.814 214.571 206.584 212.581 207.647 210.738C208.718 208.882 210.135 207.197 211.546 206.226C212.248 205.742 213.003 205.398 213.749 205.35C214.533 205.299 215.261 205.581 215.815 206.247L214.796 207.097C214.522 206.767 214.209 206.65 213.835 206.674C213.421 206.701 212.899 206.905 212.297 207.319Z" fill="#998C89"/>
<path fill-rule="evenodd" clip-rule="evenodd" d="M243.271 172.627C252.789 141.17 253.424 111.448 245.127 90.0776L246.364 89.5968C254.805 111.34 254.109 141.388 244.54 173.012L243.271 172.627ZM225.812 214.109C231.981 202.764 237.02 191.26 240.92 179.905L242.174 180.337C238.249 191.763 233.181 203.335 226.977 214.744L225.812 214.109Z" fill="#331812"/>
<path opacity="0.4" d="M214.816 92.2987C213.602 94.4019 211.628 95.5345 210.406 94.8284C209.184 94.1223 209.177 91.845 210.391 89.7418C211.604 87.6386 213.578 86.506 214.8 87.2121C216.022 87.9181 216.029 90.1955 214.816 92.2987Z" fill="#998C89"/>
<path opacity="0.4" d="M267.468 78.6361C266.255 80.7393 264.281 81.8719 263.059 81.1658C261.837 80.4597 261.83 78.1824 263.043 76.0792C264.256 73.976 266.231 72.8434 267.452 73.5495C268.674 74.2555 268.681 76.5329 267.468 78.6361Z" fill="#998C89"/>
<path opacity="0.4" d="M162.163 139.141C160.949 141.245 158.975 142.377 157.754 141.671C156.532 140.965 156.525 138.688 157.738 136.585C158.951 134.481 160.925 133.349 162.147 134.055C163.369 134.761 163.376 137.038 162.163 139.141Z" fill="#998C89"/>
<path opacity="0.4" d="M123.811 206.153C122.597 208.256 120.623 209.389 119.401 208.683C118.18 207.977 118.173 205.699 119.386 203.596C120.599 201.493 122.573 200.36 123.795 201.067C125.017 201.773 125.024 204.05 123.811 206.153Z" fill="#998C89"/>
<path opacity="0.4" d="M109.51 275.117C108.297 277.22 106.323 278.353 105.101 277.647C103.879 276.941 103.872 274.663 105.085 272.56C106.298 270.457 108.272 269.324 109.494 270.03C110.716 270.736 110.723 273.014 109.51 275.117Z" fill="#998C89"/>
<path opacity="0.4" d="M123.811 327.164C122.597 329.268 120.623 330.4 119.401 329.694C118.18 328.988 118.173 326.711 119.386 324.607C120.599 322.504 122.573 321.372 123.795 322.078C125.017 322.784 125.024 325.061 123.811 327.164Z" fill="#998C89"/>
<path opacity="0.4" d="M161.513 350.586C160.299 352.689 158.325 353.822 157.103 353.116C155.881 352.409 155.874 350.132 157.088 348.029C158.301 345.926 160.275 344.793 161.497 345.499C162.719 346.205 162.726 348.483 161.513 350.586Z" fill="#998C89"/>
<path opacity="0.4" d="M214.816 336.273C213.602 338.376 211.628 339.509 210.406 338.803C209.184 338.096 209.177 335.819 210.391 333.716C211.604 331.613 213.578 330.48 214.8 331.186C216.022 331.892 216.029 334.17 214.816 336.273Z" fill="#998C89"/>
<path opacity="0.4" d="M266.818 290.08C265.605 292.184 263.631 293.316 262.409 292.61C261.187 291.904 261.18 289.627 262.393 287.524C263.606 285.42 265.58 284.288 266.802 284.994C268.024 285.7 268.031 287.977 266.818 290.08Z" fill="#998C89"/>
<path opacity="0.4" d="M305.82 223.719C304.607 225.822 302.633 226.954 301.411 226.248C300.189 225.542 300.182 223.265 301.395 221.162C302.608 219.058 304.582 217.926 305.804 218.632C307.026 219.338 307.033 221.615 305.82 223.719Z" fill="#998C89"/>
<path opacity="0.4" d="M319.471 154.756C318.258 156.859 316.284 157.992 315.062 157.286C313.84 156.58 313.833 154.302 315.046 152.199C316.259 150.096 318.233 148.963 319.455 149.67C320.677 150.376 320.684 152.653 319.471 154.756Z" fill="#998C89"/>
<path opacity="0.4" d="M305.82 100.106C304.607 102.209 302.633 103.342 301.411 102.636C300.189 101.929 300.182 99.6521 301.395 97.5489C302.608 95.4457 304.582 94.3131 305.804 95.0192C307.026 95.7253 307.033 98.0026 305.82 100.106Z" fill="#998C89"/>
<path fill-rule="evenodd" clip-rule="evenodd" d="M299.31 158.926C300.787 133.114 295.035 111.239 282.138 97.6083L283.101 96.6955C296.347 110.695 302.122 132.996 300.634 159.002C299.145 185.024 290.382 214.85 274.429 244.023C256.435 276.93 232.626 302.602 208.547 317.463C184.485 332.312 160.022 336.431 140.859 325.934C138.025 324.382 136.364 323.055 133.968 321.011L134.828 320.001C137.198 322.022 138.779 323.281 141.496 324.77C160.063 334.94 183.986 331.061 207.851 316.333C231.699 301.615 255.361 276.13 273.266 243.386C289.139 214.358 297.834 184.722 299.31 158.926Z" fill="#331812"/>
<path fill-rule="evenodd" clip-rule="evenodd" d="M209.209 146.911C215.401 128.687 222.864 107.742 227.949 94.2622L229.19 94.7311C224.111 108.194 216.653 129.124 210.465 147.338C207.37 156.445 204.595 164.868 202.594 171.337C201.593 174.572 200.788 177.312 200.233 179.403C199.956 180.448 199.743 181.325 199.6 182.016C199.453 182.722 199.39 183.19 199.39 183.44H198.063C198.063 183.041 198.154 182.456 198.301 181.747C198.451 181.022 198.671 180.119 198.951 179.062C199.512 176.946 200.324 174.186 201.327 170.944C203.333 164.459 206.113 156.022 209.209 146.911Z" fill="#331812"/>
<path fill-rule="evenodd" clip-rule="evenodd" d="M198.44 228.474C196.409 227.052 194.415 225.48 193.341 224.397L194.283 223.462C195.272 224.46 197.187 225.977 199.2 227.386C201.22 228.8 203.257 230.048 204.484 230.543C204.844 230.689 205.039 230.998 205.144 231.262C205.252 231.532 205.309 231.853 205.336 232.193C205.392 232.877 205.341 233.791 205.203 234.882C204.927 237.075 204.285 240.114 203.319 243.753C201.387 251.037 198.14 260.792 193.854 271.11C189.569 281.428 184.238 292.326 178.134 301.887C172.036 311.439 165.137 319.705 157.698 324.708L157.338 324.949L122.769 303.029L123.479 301.907L157.315 323.363C164.401 318.483 171.06 310.503 177.016 301.172C183.067 291.694 188.364 280.87 192.629 270.601C196.895 260.331 200.122 250.633 202.037 243.412C202.996 239.799 203.621 236.824 203.887 234.716C204.021 233.657 204.059 232.849 204.014 232.3C203.992 232.024 203.951 231.851 203.913 231.755C203.911 231.75 203.909 231.746 203.907 231.741C202.526 231.167 200.426 229.864 198.44 228.474Z" fill="#331812"/>
<path fill-rule="evenodd" clip-rule="evenodd" d="M145.138 198.264C140.056 183.921 149.213 171.022 157.923 165.618L158.622 166.747C150.213 171.963 141.593 184.287 146.388 197.821L145.138 198.264Z" fill="#331812"/>
<path fill-rule="evenodd" clip-rule="evenodd" d="M258.619 165.03C242.999 174.024 224.55 184.819 212.326 192.015L211.654 190.871C223.879 183.673 242.332 172.877 257.957 163.879C265.77 159.38 272.878 155.33 278.148 152.404C280.782 150.941 282.962 149.756 284.543 148.937C285.332 148.527 285.979 148.205 286.461 147.984C286.701 147.874 286.91 147.785 287.08 147.722C287.164 147.69 287.248 147.662 287.326 147.641C287.393 147.623 287.501 147.597 287.619 147.597C288.296 147.597 288.913 147.767 289.39 148.122C289.877 148.485 290.176 149.013 290.235 149.629C290.348 150.825 289.561 152.166 288.027 153.364C287.695 153.623 286.683 154.261 285.187 155.173C283.669 156.098 281.605 157.332 279.128 158.801C274.172 161.738 267.55 165.618 260.301 169.845C245.801 178.299 228.784 188.147 217.537 194.635L216.875 193.485C228.121 186.997 245.136 177.151 259.633 168.698C266.882 164.471 273.5 160.593 278.452 157.658C280.928 156.191 282.986 154.96 284.497 154.039C286.03 153.105 286.956 152.517 287.211 152.317C288.61 151.225 288.964 150.277 288.914 149.755C288.891 149.512 288.783 149.325 288.598 149.187C288.409 149.046 288.103 148.932 287.663 148.925C287.638 148.932 287.598 148.945 287.542 148.966C287.416 149.013 287.241 149.087 287.013 149.191C286.56 149.399 285.936 149.709 285.153 150.115C283.589 150.926 281.423 152.103 278.791 153.564C273.53 156.486 266.43 160.532 258.619 165.03ZM287.687 148.919C287.687 148.919 287.686 148.919 287.683 148.92C287.686 148.919 287.687 148.919 287.687 148.919Z" fill="#331812"/>
<path fill-rule="evenodd" clip-rule="evenodd" d="M222.26 197.948L189.101 178.035L189.783 176.897L222.942 196.81L222.26 197.948Z" fill="#331812"/>
<path fill-rule="evenodd" clip-rule="evenodd" d="M181.711 210.969C179.411 205.986 178.397 201.099 178.17 198.093L179.493 197.993C179.708 200.846 180.683 205.578 182.915 210.412C185.146 215.244 188.61 220.132 193.773 223.367L193.069 224.492C187.622 221.079 184.012 215.953 181.711 210.969Z" fill="#331812"/>
<path fill-rule="evenodd" clip-rule="evenodd" d="M211.729 221.552L207.087 219.561L207.609 218.341L212.251 220.332L211.729 221.552Z" fill="#998C89"/>
<path fill-rule="evenodd" clip-rule="evenodd" d="M218.857 210.497L214.546 206.846L215.403 205.833L219.714 209.484L218.857 210.497Z" fill="#998C89"/>
<path fill-rule="evenodd" clip-rule="evenodd" d="M83.6638 184.192L105.549 196.804L104.887 197.954L83.002 185.343L83.6638 184.192Z" fill="#998C89"/>
<path fill-rule="evenodd" clip-rule="evenodd" d="M124.783 114.499L145.342 126.447L144.676 127.595L124.117 115.647L124.783 114.499Z" fill="#998C89"/>
<path fill-rule="evenodd" clip-rule="evenodd" d="M179.172 65.3857L199.068 77.3334L198.385 78.4717L178.49 66.5241L179.172 65.3857Z" fill="#998C89"/>
<path fill-rule="evenodd" clip-rule="evenodd" d="M234.216 51.4468L247.48 59.4119L246.798 60.5502L233.534 52.5851L234.216 51.4468Z" fill="#998C89"/>
<path fill-rule="evenodd" clip-rule="evenodd" d="M220.182 341.517L253.771 362.736V372.87L171.536 419.174L130.419 395.506V385.681L149.35 374.816L150.009 375.968L131.745 386.45V394.738L171.543 417.646L252.444 372.093V363.468L219.474 342.639L220.182 341.517Z" fill="#998C89"/>
<path fill-rule="evenodd" clip-rule="evenodd" d="M253.434 363.895L171.209 410.546L130.748 386.96L131.416 385.813L171.218 409.015L252.78 362.74L253.434 363.895Z" fill="#998C89"/>
<path fill-rule="evenodd" clip-rule="evenodd" d="M170.21 419.073V409.781H171.536V419.073H170.21Z" fill="#998C89"/>
<path fill-rule="evenodd" clip-rule="evenodd" d="M235.622 328.89L296.22 363.509L158.439 443.071L75.374 394.963L141.176 357.1L141.837 358.251L78.0287 394.966L158.44 441.538L293.556 363.515L234.965 330.043L235.622 328.89Z" fill="#331812"/>
<path fill-rule="evenodd" clip-rule="evenodd" d="M156.946 457.572V442.305H158.273V457.572H156.946Z" fill="#331812"/>
</svg>
