<svg width="545" height="428" viewBox="0 0 545 428" fill="none" xmlns="http://www.w3.org/2000/svg">
<path opacity="0.5" fill-rule="evenodd" clip-rule="evenodd" d="M409.607 189.064C409.741 188.351 409.893 187.545 410.099 186.633L410.879 186.808C410.675 187.709 410.529 188.484 410.397 189.187C410.325 189.568 410.257 189.927 410.186 190.274C409.987 191.251 409.768 192.105 409.378 192.938C408.593 194.614 407.148 196.137 403.967 198.496L403.938 198.518L403.905 198.534C400.553 200.169 390.615 203.502 380.327 206.845C376.9 207.958 373.431 209.074 370.145 210.131C363.542 212.255 357.68 214.14 354.39 215.291L354.369 215.298L354.348 215.303L354.348 215.303L354.344 215.304L354.327 215.308C354.311 215.312 354.286 215.319 354.252 215.328C354.184 215.347 354.082 215.377 353.948 215.42C353.682 215.507 353.293 215.647 352.812 215.861C351.85 216.289 350.52 217.009 349.066 218.174C346.162 220.5 342.747 224.613 340.791 231.758C339.436 236.707 336.092 241.708 331.56 246.452C327.024 251.2 321.275 255.714 315.071 259.689C302.673 267.632 288.397 273.456 278.259 274.657C270.683 275.554 261.36 273.695 253.078 271.187C244.785 268.675 237.485 265.496 233.932 263.711C232.182 262.832 228.261 261.207 223.141 259.087L223.018 259.036C217.93 256.93 211.695 254.348 205.293 251.547C198.84 248.724 192.214 245.676 186.421 242.667C180.635 239.661 175.653 236.679 172.506 233.985C169.428 231.348 164.58 228.305 159.066 225.082C156.387 223.516 153.556 221.912 150.703 220.294L150.466 220.16C147.533 218.497 144.58 216.821 141.751 215.163C136.096 211.85 130.912 208.594 127.35 205.635C125.571 204.157 124.174 202.733 123.328 201.395C122.483 200.057 122.149 198.736 122.642 197.519L123.382 197.818C123.028 198.694 123.223 199.733 124.004 200.969C124.783 202.203 126.107 203.564 127.862 205.022C131.368 207.935 136.501 211.162 142.155 214.475C144.979 216.13 147.927 217.803 150.861 219.466L151.099 219.601C153.951 221.218 156.786 222.825 159.47 224.394C164.98 227.614 169.886 230.69 173.027 233.379C176.1 236.011 181.012 238.957 186.79 241.959C192.561 244.957 199.168 247.996 205.614 250.816C212.008 253.614 218.238 256.193 223.327 258.3L223.447 258.35C228.548 260.462 232.508 262.103 234.291 262.999C237.806 264.764 245.064 267.926 253.31 270.423C261.565 272.924 270.758 274.742 278.165 273.864C288.14 272.682 302.3 266.922 314.639 259.017C320.804 255.068 326.5 250.592 330.982 245.901C335.467 241.206 338.714 236.319 340.02 231.548C342.021 224.237 345.532 219.981 348.565 217.551C350.08 216.338 351.471 215.584 352.487 215.132C352.995 214.906 353.41 214.756 353.701 214.661C353.846 214.614 353.96 214.581 354.039 214.559C354.079 214.548 354.109 214.54 354.131 214.535L354.144 214.531C357.447 213.377 363.318 211.489 369.916 209.366C373.199 208.31 376.663 207.196 380.08 206.086C390.367 202.743 400.2 199.443 403.521 197.833C406.66 195.502 407.96 194.082 408.654 192.6C409.004 191.853 409.208 191.073 409.403 190.115C409.47 189.789 409.536 189.439 409.607 189.064Z" fill="#998C89"/>
<path opacity="0.5" fill-rule="evenodd" clip-rule="evenodd" d="M370.894 144.323C370.91 143.426 370.93 142.336 371.895 140.912L372.559 141.356C371.734 142.575 371.715 143.433 371.697 144.309C371.693 144.497 371.689 144.686 371.676 144.88C371.641 145.441 371.534 146.023 371.132 146.653C370.738 147.273 370.079 147.91 368.998 148.631L368.958 148.658L368.912 148.674C365.614 149.861 359.384 151.584 353.115 153.29C352.382 153.49 351.648 153.689 350.918 153.887C345.394 155.389 340.093 156.829 336.977 157.835L336.941 157.846L336.905 157.851L336.899 157.852L336.877 157.855C336.857 157.858 336.826 157.862 336.786 157.868C336.705 157.881 336.584 157.901 336.429 157.93C336.119 157.987 335.669 158.08 335.121 158.222C334.022 158.505 332.53 158.98 330.952 159.749C327.792 161.287 324.329 163.978 322.953 168.618C321.97 171.929 319.552 175.26 316.294 178.407C313.031 181.56 308.898 184.554 304.442 187.189C295.538 192.453 285.282 196.316 277.992 197.114C272.538 197.71 265.836 196.475 259.89 194.813C253.935 193.149 248.692 191.042 246.139 189.858C244.887 189.277 242.079 188.203 238.403 186.798L238.314 186.764C234.664 185.37 230.19 183.66 225.596 181.805C220.966 179.935 216.21 177.916 212.05 175.922C207.898 173.931 204.315 171.953 202.047 170.16C199.847 168.421 196.377 166.411 192.42 164.276C190.498 163.24 188.468 162.177 186.421 161.106L186.251 161.017C184.147 159.916 182.028 158.806 179.997 157.708C175.94 155.515 172.214 153.355 169.65 151.389C168.371 150.408 167.356 149.456 166.737 148.552C166.12 147.651 165.848 146.718 166.232 145.843L166.966 146.161C166.742 146.671 166.85 147.302 167.399 148.104C167.947 148.904 168.883 149.795 170.139 150.759C172.647 152.682 176.323 154.815 180.379 157.009C182.405 158.104 184.519 159.211 186.624 160.313L186.795 160.402C188.841 161.473 190.875 162.537 192.802 163.576C196.755 165.708 200.283 167.749 202.545 169.537C204.739 171.271 208.254 173.218 212.398 175.205C216.536 177.189 221.274 179.2 225.897 181.067C230.484 182.919 234.953 184.627 238.604 186.022L238.69 186.055C242.348 187.453 245.193 188.541 246.477 189.136C248.994 190.303 254.196 192.394 260.107 194.047C266.026 195.701 272.608 196.901 277.904 196.322C285.043 195.542 295.188 191.734 304.033 186.505C308.451 183.892 312.529 180.934 315.736 177.836C318.948 174.734 321.258 171.517 322.185 168.392C323.648 163.46 327.327 160.627 330.6 159.033C332.238 158.236 333.784 157.744 334.92 157.451C335.488 157.304 335.956 157.207 336.282 157.147C336.445 157.117 336.574 157.095 336.662 157.082C336.687 157.078 336.709 157.075 336.727 157.072C336.741 157.07 336.753 157.068 336.763 157.067C339.903 156.055 345.207 154.614 350.706 153.12C351.436 152.921 352.171 152.722 352.904 152.522C359.157 150.82 365.32 149.115 368.593 147.942C369.599 147.267 370.148 146.711 370.456 146.227C370.761 145.748 370.847 145.311 370.877 144.831C370.887 144.668 370.891 144.499 370.894 144.323Z" fill="#998C89"/>
<path opacity="0.5" fill-rule="evenodd" clip-rule="evenodd" d="M339.495 86.8346C340.057 85.7394 340.651 84.5823 342.31 83.4937L342.754 84.1529C341.279 85.1212 340.774 86.1011 340.217 87.182C340.129 87.3523 340.04 87.5252 339.946 87.7009C339.597 88.3505 339.179 89.0263 338.489 89.7049C337.801 90.3822 336.856 91.0476 335.467 91.7023C335.021 91.9124 334.393 92.0741 333.653 92.205C332.907 92.3371 332.018 92.4424 331.036 92.529C329.07 92.7022 326.702 92.8026 324.289 92.8877C323.697 92.9085 323.102 92.9285 322.51 92.9484C320.685 93.0096 318.882 93.0701 317.249 93.1545C315.078 93.2666 313.236 93.4196 312.049 93.6655L312.035 93.6683L312.022 93.6701L312.021 93.6701L312.021 93.6702L312.02 93.6703L312.012 93.6715C312.005 93.6726 311.993 93.6745 311.976 93.6772C311.943 93.6825 311.894 93.6911 311.829 93.7036C311.699 93.7286 311.509 93.7694 311.273 93.8313C310.802 93.9554 310.152 94.1636 309.444 94.4992C308.027 95.1714 306.398 96.3422 305.47 98.3498C304.759 99.8858 303.04 101.387 300.794 102.779C298.531 104.18 295.671 105.509 292.593 106.676C286.44 109.009 279.358 110.719 274.327 111.072C270.566 111.336 265.94 110.789 261.835 110.053C257.724 109.316 254.103 108.383 252.339 107.859C251.462 107.598 249.504 107.118 246.959 106.495C244.441 105.878 241.348 105.12 238.158 104.294C231.783 102.643 225.014 100.718 221.886 99.1324C220.373 98.366 217.983 97.4772 215.25 96.5317C213.923 96.0728 212.522 95.6025 211.108 95.1281L210.991 95.0889C209.539 94.6015 208.075 94.11 206.673 93.6236C203.873 92.6527 201.296 91.6952 199.521 90.822C198.639 90.3883 197.92 89.9589 197.472 89.5391C197.248 89.3299 197.061 89.0949 196.975 88.8334C196.881 88.5495 196.915 88.2586 197.092 88.0002L197.756 88.4436C197.723 88.492 197.718 88.5275 197.738 88.5877C197.765 88.6703 197.845 88.7969 198.024 88.9649C198.381 89.2994 199.01 89.6862 199.878 90.1133C201.604 90.9619 204.137 91.9051 206.939 92.8766C208.337 93.3615 209.796 93.8517 211.25 94.3393L211.368 94.3792C212.781 94.8531 214.185 95.3244 215.515 95.7845C218.243 96.728 220.684 97.6331 222.252 98.4281C225.285 99.9655 231.958 101.87 238.361 103.528C241.51 104.343 244.591 105.098 247.113 105.717C249.689 106.348 251.683 106.837 252.57 107.101C254.307 107.617 257.898 108.543 261.978 109.274C266.064 110.007 270.611 110.539 274.27 110.282C279.202 109.936 286.205 108.25 292.305 105.937C295.354 104.781 298.163 103.474 300.367 102.108C302.587 100.732 304.132 99.3346 304.74 98.021C305.772 95.7904 307.574 94.5075 309.097 93.7856C309.859 93.4241 310.558 93.2002 311.066 93.0663C311.321 92.9993 311.529 92.9546 311.675 92.9265C311.748 92.9125 311.805 92.9025 311.845 92.896C311.865 92.8927 311.881 92.8903 311.892 92.8887L311.896 92.8881C313.152 92.6296 315.047 92.4753 317.207 92.3638C318.849 92.279 320.661 92.2182 322.488 92.1569C323.079 92.137 323.672 92.1172 324.261 92.0964C326.674 92.0113 329.023 91.9115 330.964 91.7404C331.935 91.6548 332.798 91.552 333.512 91.4256C334.233 91.298 334.775 91.151 335.121 90.9878C336.446 90.3633 337.311 89.7458 337.923 89.1441C338.534 88.5436 338.907 87.9443 339.237 87.3301C339.325 87.1667 339.41 87.0014 339.495 86.8346Z" fill="#998C89"/>
<path fill-rule="evenodd" clip-rule="evenodd" d="M488.793 200.456L469.424 188.992L470.279 187.696L489.648 199.16L488.793 200.456Z" fill="#331812"/>
<path fill-rule="evenodd" clip-rule="evenodd" d="M415.4 129.215L394.912 117.87L395.713 116.456L416.201 127.801L415.4 129.215Z" fill="#331812"/>
<path fill-rule="evenodd" clip-rule="evenodd" d="M465.389 157.924L444.941 146.474L445.783 145.165L466.23 156.615L465.389 157.924Z" fill="#331812"/>
<path fill-rule="evenodd" clip-rule="evenodd" d="M514.435 186.633L494.971 175.288L495.732 173.874L515.195 185.219L514.435 186.633Z" fill="#331812"/>
<path fill-rule="evenodd" clip-rule="evenodd" d="M543.452 209.114V203.646H545V209.114H543.452ZM519.453 222.785V217.316H521.001V222.785H519.453Z" fill="#331812"/>
<path fill-rule="evenodd" clip-rule="evenodd" d="M519.796 181.316L545 196.098V202.968L513.646 220.658L512.873 219.257L543.414 202.025V197.942L509.526 217.511L508.74 216.118L542.616 196.555L519.79 183.168L485.113 203.194L484.326 201.8L519.796 181.316Z" fill="#331812"/>
<path fill-rule="evenodd" clip-rule="evenodd" d="M420.799 124.962L446.006 139.735V146.267L416.037 164.304L415.238 162.888L444.419 145.325V141.627L410.874 161.514L410.084 160.093L443.612 140.216L420.793 126.843L386.106 146.86L385.332 145.43L420.799 124.962Z" fill="#331812"/>
<path fill-rule="evenodd" clip-rule="evenodd" d="M370.793 96.2529L395.977 111.541V118.083L368.833 134.531L368.019 133.165L394.396 117.181V113.4L366.462 130.301L365.648 128.935L393.652 111.991L370.802 98.1188L355.291 107.735L354.463 106.378L370.793 96.2529Z" fill="#331812"/>
<path fill-rule="evenodd" clip-rule="evenodd" d="M266.113 368.761L248.817 379.089L248.018 377.721L265.313 367.393L266.113 368.761Z" fill="#331812"/>
<path fill-rule="evenodd" clip-rule="evenodd" d="M74.5117 252.863L56.0924 262.127L55.3516 260.758L73.7708 251.494L74.5117 252.863Z" fill="#331812"/>
<path fill-rule="evenodd" clip-rule="evenodd" d="M172.441 309.106L155.188 319.544L154.346 318.286L171.599 307.848L172.441 309.106Z" fill="#331812"/>
<path fill-rule="evenodd" clip-rule="evenodd" d="M87.7306 258.937L88.5126 260.33L51.3483 281.12L74.1866 295.044L112.481 273.13L113.277 274.516L74.9736 296.435V299.795L117.368 275.896L118.154 277.287L73.3737 302.531V296.42L50.5648 282.514V286.974H48.9648V280.622L87.7306 258.937Z" fill="#331812"/>
<path fill-rule="evenodd" clip-rule="evenodd" d="M37.8023 230.228L38.605 231.615L2.35505 252.92L25.168 266.864L62.8507 244.415L63.6615 245.797L25.9594 268.258V272.062L67.3099 247.253L68.125 248.632L24.366 274.886V268.252L1.59335 254.333V258.935H0V252.446L37.8023 230.228Z" fill="#331812"/>
<path fill-rule="evenodd" clip-rule="evenodd" d="M371.544 137.722L515.195 219.945V240.677L265.434 383.342V362.622L32.4729 229.088V236.043H30.8691V227.242L157.966 154.146L158.766 155.534L33.2803 227.704L266.236 361.235L512.779 220.408L370.747 139.112L371.544 137.722ZM513.592 221.79L267.038 362.623V380.58L513.592 239.747V221.79Z" fill="#331812"/>
<path fill-rule="evenodd" clip-rule="evenodd" d="M395.977 306.602V322.519H394.389V309.539L371.623 322.519V337.62L354.463 332.029L354.954 330.517L370.036 335.431L370.031 321.776L395.977 306.602Z" fill="#331812"/>
<path fill-rule="evenodd" clip-rule="evenodd" d="M197.988 378.025H199.585V412.592L222.737 425.703V392.391H224.333V425.703L247.485 412.592V378.025H249.082V413.533L223.535 428L197.988 413.533V378.025Z" fill="#331812"/>
<path fill-rule="evenodd" clip-rule="evenodd" d="M98.9941 320.607H100.587V355.172L123.484 368.274V334.971H125.077V368.253L153.542 351.444L154.346 352.832L124.286 370.582L98.9941 356.109V320.607Z" fill="#331812"/>
<path fill-rule="evenodd" clip-rule="evenodd" d="M0 258.937L222.778 386.574L247.237 372.555L265.313 362.132L266.113 363.517L248.436 373.71V379.625L222.773 393.974L0 265.992V258.937ZM246.835 374.629L223.578 387.959V391.691L246.835 378.687V374.629ZM221.978 391.673V387.959L1.60068 261.697V265.066L221.978 391.673Z" fill="#331812"/>
<path fill-rule="evenodd" clip-rule="evenodd" d="M0 265.316H1.59287V299.146L24.6486 311.976V279.375H26.2415V311.96L54.5563 295.838L55.3516 297.202L25.4496 314.228L0 300.066V265.316Z" fill="#331812"/>
<path fill-rule="evenodd" clip-rule="evenodd" d="M545 206.835V242.692L248.817 413.114L248.018 411.732L543.401 241.77V238.242L519.604 251.912L519.604 251.912L248.817 407.904L248.018 406.522L517.61 251.218L506.305 244.658L507.109 243.278L518.405 249.834V222.683L513.077 221.115L513.529 219.584L519.109 221.226L545 206.835ZM520.004 222.555V249.841L543.401 236.402V209.55L520.004 222.555Z" fill="#331812"/>
<path fill-rule="evenodd" clip-rule="evenodd" d="M137.087 287.646L137.884 289.04L100.331 310.52L123.753 324.357L162.806 302.07L163.601 303.466L124.549 325.752V329.527L167.383 304.887L168.184 306.279L122.943 332.304V325.744L99.5355 311.916V316.49H97.9297V310.043L137.087 287.646Z" fill="#331812"/>
<path fill-rule="evenodd" clip-rule="evenodd" d="M186.558 316.354L187.35 317.736L149.34 338.427L172.775 351.844L211.732 330.302L212.534 331.679L173.58 353.219V357.03L216.338 333.026L217.148 334.397L173.528 358.886L173.123 358.2H171.956V353.211L148.519 339.792V344.255H146.895V337.945L186.558 316.354Z" fill="#331812"/>
<path fill-rule="evenodd" clip-rule="evenodd" d="M236.048 344L236.857 345.4L199.319 367.231L222.727 381.292L261.037 358.658L261.855 360.053L223.53 382.696V387.595H221.917V382.692L198.537 368.648V373.297H196.924V366.754L236.048 344Z" fill="#331812"/>
<path fill-rule="evenodd" clip-rule="evenodd" d="M68.9707 271.382L48.9648 260.324L49.7486 258.937L69.7545 269.994L68.9707 271.382ZM118.448 299.367L99.1443 288.309L99.9495 286.933L119.253 297.991L118.448 299.367ZM169 327.363L148.994 316.305L149.778 314.917L169.784 325.975L169 327.363ZM218.483 355.696L198.828 344.638L199.622 343.256L219.277 354.314L218.483 355.696Z" fill="#331812"/>
<path fill-rule="evenodd" clip-rule="evenodd" d="M344.934 83.1425L340.625 80.6247L341.469 79.2407L347.434 82.7263V88.8751L366.172 100.198L365.307 101.57L345.788 89.7743V84.5234L343.519 85.7018L342.748 84.2781L344.934 83.1425Z" fill="#331812"/>
<path fill-rule="evenodd" clip-rule="evenodd" d="M470.394 153.671L496.035 168.81V175.321L464.838 193.013L464.038 191.619L494.421 174.388V170.656L460.292 190.217L459.486 188.827L493.63 169.257L470.378 155.528L435.097 175.551L434.297 174.157L470.394 153.671Z" fill="#331812"/>
<path fill-rule="evenodd" clip-rule="evenodd" d="M389.863 144.101L370.69 133.793L371.481 132.405L390.654 142.714L389.863 144.101ZM369.761 134.075L371.816 138.065L370.355 138.774L368.301 134.784L369.761 134.075Z" fill="#331812"/>
<path fill-rule="evenodd" clip-rule="evenodd" d="M438.833 171.747L420.459 161.432L421.245 160.051L439.619 170.366L438.833 171.747Z" fill="#331812"/>
<path d="M24.4824 249.899C24.4824 250.78 23.0527 251.494 21.2891 251.494C19.5254 251.494 18.0957 250.78 18.0957 249.899C18.0957 249.018 19.5254 248.304 21.2891 248.304C23.0527 248.304 24.4824 249.018 24.4824 249.899Z" fill="#331812"/>
<path d="M72.3828 278.076C72.3828 278.663 71.1914 279.139 69.7217 279.139C68.252 279.139 67.0605 278.663 67.0605 278.076C67.0605 277.489 68.252 277.013 69.7217 277.013C71.1914 277.013 72.3828 277.489 72.3828 278.076Z" fill="#331812"/>
<path d="M172.441 336.025C172.441 336.906 171.25 337.62 169.78 337.62C168.311 337.62 167.119 336.906 167.119 336.025C167.119 335.144 168.311 334.43 169.78 334.43C171.25 334.43 172.441 335.144 172.441 336.025Z" fill="#331812"/>
<path d="M122.412 307.317C122.412 308.197 121.221 308.912 119.751 308.912C118.281 308.912 117.09 308.197 117.09 307.317C117.09 306.436 118.281 305.722 119.751 305.722C121.221 305.722 122.412 306.436 122.412 307.317Z" fill="#331812"/>
<path d="M221.406 363.671C221.406 364.552 219.977 365.266 218.213 365.266C216.449 365.266 215.02 364.552 215.02 363.671C215.02 362.79 216.449 362.076 218.213 362.076C219.977 362.076 221.406 362.79 221.406 363.671Z" fill="#331812"/>
<path d="M518.389 194.076C518.389 194.663 517.197 195.139 515.728 195.139C514.258 195.139 513.066 194.663 513.066 194.076C513.066 193.489 514.258 193.013 515.728 193.013C517.197 193.013 518.389 193.489 518.389 194.076Z" fill="#331812"/>
<path d="M468.359 164.836C468.359 165.717 467.168 166.431 465.698 166.431C464.229 166.431 463.037 165.717 463.037 164.836C463.037 163.955 464.229 163.241 465.698 163.241C467.168 163.241 468.359 163.955 468.359 164.836Z" fill="#331812"/>
<path d="M370.43 109.013C370.43 109.6 369 110.076 367.236 110.076C365.473 110.076 364.043 109.6 364.043 109.013C364.043 108.425 365.473 107.949 367.236 107.949C369 107.949 370.43 108.425 370.43 109.013Z" fill="#331812"/>
<path d="M419.395 137.19C419.395 138.071 418.203 138.785 416.733 138.785C415.264 138.785 414.072 138.071 414.072 137.19C414.072 136.309 415.264 135.595 416.733 135.595C418.203 135.595 419.395 136.309 419.395 137.19Z" fill="#331812"/>
<path d="M34.0625 255.747C34.0625 256.334 32.6328 256.81 30.8691 256.81C29.1055 256.81 27.6758 256.334 27.6758 255.747C27.6758 255.16 29.1055 254.684 30.8691 254.684C32.6328 254.684 34.0625 255.16 34.0625 255.747Z" fill="#331812"/>
<path d="M83.0273 283.392C83.0273 283.98 81.5976 284.456 79.834 284.456C78.0703 284.456 76.6406 283.98 76.6406 283.392C76.6406 282.805 78.0703 282.329 79.834 282.329C81.5976 282.329 83.0273 282.805 83.0273 283.392Z" fill="#331812"/>
<path d="M182.021 341.342C182.021 342.223 180.83 342.937 179.36 342.937C177.891 342.937 176.699 342.223 176.699 341.342C176.699 340.461 177.891 339.747 179.36 339.747C180.83 339.747 182.021 340.461 182.021 341.342Z" fill="#331812"/>
<path d="M133.057 312.633C133.057 313.514 131.865 314.228 130.396 314.228C128.926 314.228 127.734 313.514 127.734 312.633C127.734 311.752 128.926 311.038 130.396 311.038C131.865 311.038 133.057 311.752 133.057 312.633Z" fill="#331812"/>
<path d="M230.986 369.519C230.986 370.106 229.795 370.582 228.325 370.582C226.855 370.582 225.664 370.106 225.664 369.519C225.664 368.932 226.855 368.456 228.325 368.456C229.795 368.456 230.986 368.932 230.986 369.519Z" fill="#331812"/>
<path d="M529.033 199.392C529.033 199.98 527.603 200.456 525.84 200.456C524.076 200.456 522.646 199.98 522.646 199.392C522.646 198.805 524.076 198.329 525.84 198.329C527.603 198.329 529.033 198.805 529.033 199.392Z" fill="#331812"/>
<path d="M477.939 170.683C477.939 171.271 476.748 171.747 475.278 171.747C473.809 171.747 472.617 171.271 472.617 170.683C472.617 170.096 473.809 169.62 475.278 169.62C476.748 169.62 477.939 170.096 477.939 170.683Z" fill="#331812"/>
<path d="M380.01 114.861C380.01 115.741 378.58 116.455 376.816 116.455C375.053 116.455 373.623 115.741 373.623 114.861C373.623 113.98 375.053 113.266 376.816 113.266C378.58 113.266 380.01 113.98 380.01 114.861Z" fill="#331812"/>
<path d="M428.975 143.57C428.975 144.45 427.783 145.164 426.313 145.164C424.844 145.164 423.652 144.45 423.652 143.57C423.652 142.689 424.844 141.975 426.313 141.975C427.783 141.975 428.975 142.689 428.975 143.57Z" fill="#331812"/>
<path fill-rule="evenodd" clip-rule="evenodd" d="M267.598 11.7429C264.686 12.8004 261.693 13.8873 257.531 13.8874C252.22 13.8874 248.618 14.8217 245.197 16.7458C241.828 18.64 238.611 21.5018 234.102 25.5133C233.967 25.6337 233.83 25.7552 233.692 25.8777C232.479 26.9568 230.816 29.0737 228.808 32.0433C226.814 34.9938 224.518 38.7271 222.039 42.9876C217.081 51.5074 211.406 62.1028 205.964 72.6899C200.523 83.2757 195.319 93.8454 191.301 102.311C187.271 110.805 184.466 117.117 183.79 119.231C183.48 120.2 182.718 121.656 181.65 123.446C180.569 125.257 179.137 127.473 177.441 129.984C174.05 135.008 169.586 141.245 164.733 147.853C155.026 161.069 143.741 175.794 136.311 185.32C128.778 194.977 117.855 201.664 108.414 207.33C108.135 207.497 107.857 207.664 107.581 207.829C103.161 210.48 99.1154 212.905 95.8844 215.334C92.4375 217.924 90.0455 220.426 89.0842 223.072C88.6747 224.198 88.8906 225.565 89.8334 227.229C90.7752 228.892 92.3822 230.738 94.5332 232.732C98.8308 236.715 105.134 241.136 112.095 245.685C115.571 247.957 119.2 250.253 122.813 252.538L123.107 252.724C126.619 254.944 130.111 257.153 133.418 259.309C140.204 263.732 146.268 267.97 150.158 271.686C153.916 275.274 159.939 279.307 167.049 283.427C174.147 287.539 182.276 291.71 190.211 295.582C198.081 299.422 205.75 302.964 212.017 305.858L212.166 305.927C218.44 308.825 223.333 311.085 225.544 312.324C229.857 314.74 238.776 319.074 248.909 322.497C259.064 325.928 270.321 328.403 279.359 327.208C291.564 325.595 308.95 317.717 324.125 306.874C331.702 301.46 338.697 295.328 344.199 288.905C349.705 282.477 353.681 275.797 355.278 269.287C357.752 259.209 362.099 253.317 365.88 249.939C367.767 248.253 369.503 247.202 370.779 246.569C371.417 246.253 371.94 246.041 372.308 245.907C372.424 245.865 372.524 245.831 372.609 245.803C372.659 245.787 372.703 245.773 372.742 245.761C372.793 245.745 372.833 245.733 372.863 245.725C372.863 245.725 372.863 245.725 372.863 245.725C375.959 244.523 381.196 243.103 387.281 241.507C388.277 241.246 389.297 240.98 390.335 240.709C395.692 239.31 401.543 237.783 407.172 236.144C413.896 234.185 420.264 232.078 425.062 229.856C427.462 228.745 429.436 227.62 430.858 226.493C432.297 225.352 433.065 224.293 433.255 223.338C433.94 219.91 433.927 217.52 433.231 215.072C432.522 212.581 431.096 209.981 428.825 206.136C427.746 204.309 425.478 201.646 422.502 198.549C419.542 195.468 415.933 192.008 412.218 188.596C404.788 181.769 396.972 175.166 393.166 172.223C391.533 170.961 389.373 168.372 386.981 165.099C384.57 161.802 381.868 157.731 379.149 153.433C373.711 144.836 368.185 135.295 364.756 129.131L364.749 129.118L364.742 129.104C353.248 106.45 328.749 58.4682 322.633 47.6192C318.81 40.837 313.793 32.5326 307.71 25.4529C301.616 18.3609 294.53 12.5899 286.593 10.7311C278.555 8.84887 274.002 9.62504 270.177 10.845C269.305 11.1227 268.455 11.4315 267.598 11.7429ZM373.314 247.262L373.296 247.267C373.279 247.272 373.251 247.28 373.212 247.292C373.182 247.301 373.147 247.312 373.106 247.325C373.038 247.348 372.953 247.377 372.855 247.413C372.538 247.528 372.07 247.716 371.49 248.004C370.329 248.58 368.714 249.553 366.946 251.133C363.416 254.287 359.233 259.891 356.833 269.669C355.153 276.51 351.012 283.412 345.414 289.948C339.81 296.49 332.711 302.707 325.055 308.177C309.765 319.102 292.132 327.136 279.568 328.796C270.154 330.04 258.608 327.464 248.397 324.014C238.163 320.557 229.153 316.182 224.762 313.721C222.621 312.522 217.81 310.297 211.496 307.381L211.342 307.31C205.077 304.417 197.395 300.87 189.509 297.021C181.559 293.142 173.392 288.952 166.248 284.813C159.117 280.681 152.955 276.571 149.053 272.844C145.284 269.244 139.337 265.078 132.545 260.651C129.246 258.501 125.762 256.297 122.246 254.074L121.958 253.892C118.346 251.608 114.708 249.305 111.22 247.026C104.256 242.475 97.8519 237.991 93.4458 233.907C91.2451 231.867 89.5012 229.89 88.4412 228.019C87.3822 226.149 86.9452 224.272 87.5802 222.524C88.7078 219.422 91.4219 216.684 94.9234 214.053C98.224 211.572 102.338 209.106 106.73 206.472C107.016 206.301 107.303 206.129 107.591 205.956C117.065 200.271 127.727 193.721 135.049 184.334C142.473 174.816 153.748 160.105 163.444 146.904C168.292 140.303 172.741 134.086 176.115 129.088C177.803 126.588 179.217 124.4 180.276 122.625C181.347 120.829 182.018 119.516 182.265 118.743C182.982 116.503 185.845 110.077 189.856 101.624C193.88 93.1428 199.092 82.5579 204.541 71.9573C209.989 61.3581 215.678 50.7353 220.656 42.1816C223.145 37.9053 225.46 34.138 227.483 31.1459C229.493 28.1731 231.252 25.9056 232.629 24.6806C232.799 24.53 232.966 24.3807 233.133 24.2329C237.554 20.2986 240.891 17.3303 244.413 15.3496C248.115 13.2676 251.998 12.2859 257.531 12.2858C261.386 12.2858 264.053 11.3194 266.916 10.2821C267.808 9.95894 268.719 9.62887 269.691 9.319C273.785 8.01338 278.632 7.22199 286.958 9.17168C295.383 11.1448 302.745 17.218 308.923 24.4087C315.112 31.6117 320.191 40.0284 324.027 46.8322C330.164 57.7185 354.676 105.727 366.162 128.365C369.581 134.51 375.087 144.017 380.501 152.576C383.211 156.859 385.892 160.897 388.273 164.154C390.673 167.437 392.713 169.849 394.144 170.956C397.997 173.935 405.848 180.569 413.301 187.416C417.028 190.84 420.664 194.325 423.656 197.439C426.631 200.536 429.019 203.316 430.203 205.321C432.458 209.14 433.996 211.912 434.77 214.633C435.556 217.397 435.543 220.059 434.825 223.652C434.523 225.164 433.396 226.524 431.851 227.749C430.289 228.987 428.188 230.174 425.734 231.31C420.822 233.584 414.36 235.718 407.619 237.682C401.966 239.328 396.089 240.862 390.732 242.26C389.695 242.531 388.679 242.796 387.687 243.056C381.542 244.667 376.39 246.068 373.405 247.232L373.36 247.25L373.316 247.261L373.315 247.262L373.315 247.262L373.314 247.262Z" fill="#998C89"/>
</svg>
