<svg width="487" height="477" viewBox="0 0 487 477" fill="none" xmlns="http://www.w3.org/2000/svg">
<path fill-rule="evenodd" clip-rule="evenodd" d="M346.901 11.7295L468.42 80.8622L467.7 82.1065L346.181 12.9738L346.901 11.7295Z" fill="#331812"/>
<path fill-rule="evenodd" clip-rule="evenodd" d="M338.357 13.955L19.2929 196.469L18.5803 195.221L337.645 12.7069L338.357 13.955Z" fill="#331812"/>
<path fill-rule="evenodd" clip-rule="evenodd" d="M15.3976 201.357L136.908 271.475L136.179 272.711L14.6687 202.593L15.3976 201.357Z" fill="#331812"/>
<path fill-rule="evenodd" clip-rule="evenodd" d="M157.444 450.609V278.576H159.4V450.609H157.444Z" fill="#998C89"/>
<path fill-rule="evenodd" clip-rule="evenodd" d="M175.046 440.834V268.801H177.002V440.834H175.046Z" fill="#998C89"/>
<path fill-rule="evenodd" clip-rule="evenodd" d="M192.649 431.059L192.649 259.027L193.626 259.027L193.626 431.059L192.649 431.059Z" fill="#998C89"/>
<path fill-rule="evenodd" clip-rule="evenodd" d="M209.273 422.262V249.252H211.229V422.262H209.273Z" fill="#998C89"/>
<path fill-rule="evenodd" clip-rule="evenodd" d="M226.875 413.465L226.875 239.477L227.853 239.477L227.853 413.465L226.875 413.465Z" fill="#998C89"/>
<path fill-rule="evenodd" clip-rule="evenodd" d="M242.522 403.691V230.68H243.5V403.691H242.522Z" fill="#998C89"/>
<path fill-rule="evenodd" clip-rule="evenodd" d="M259.147 393.916L259.147 220.906L261.102 220.906L261.102 393.916L259.147 393.916Z" fill="#998C89"/>
<path fill-rule="evenodd" clip-rule="evenodd" d="M276.749 383.164V211.131H278.705V383.164H276.749Z" fill="#998C89"/>
<path fill-rule="evenodd" clip-rule="evenodd" d="M295.329 374.367L295.329 200.379L296.307 200.379L296.307 374.367L295.329 374.367Z" fill="#998C89"/>
<path fill-rule="evenodd" clip-rule="evenodd" d="M310.976 364.592V190.604H312.932V364.592H310.976Z" fill="#998C89"/>
<path fill-rule="evenodd" clip-rule="evenodd" d="M329.556 354.818L329.556 180.83L330.534 180.83L330.534 354.818L329.556 354.818Z" fill="#998C89"/>
<path fill-rule="evenodd" clip-rule="evenodd" d="M343.247 344.066V172.033H344.225V344.066H343.247Z" fill="#998C89"/>
<path fill-rule="evenodd" clip-rule="evenodd" d="M360.849 335.268L360.849 161.281L362.805 161.281L362.805 335.268L360.849 335.268Z" fill="#998C89"/>
<path fill-rule="evenodd" clip-rule="evenodd" d="M377.474 326.471V151.506H379.43V326.471H377.474Z" fill="#998C89"/>
<path fill-rule="evenodd" clip-rule="evenodd" d="M396.054 316.697L396.054 142.709L397.032 142.709L397.032 316.697L396.054 316.697Z" fill="#998C89"/>
<path fill-rule="evenodd" clip-rule="evenodd" d="M413.657 305.945V133.912H414.635V305.945H413.657Z" fill="#998C89"/>
<path fill-rule="evenodd" clip-rule="evenodd" d="M429.303 297.148L429.303 124.137L430.281 124.137L430.281 297.148L429.303 297.148Z" fill="#998C89"/>
<path fill-rule="evenodd" clip-rule="evenodd" d="M445.928 287.373V113.385H446.906V287.373H445.928Z" fill="#998C89"/>
<path fill-rule="evenodd" clip-rule="evenodd" d="M462.552 277.598L462.552 103.611L463.53 103.611L463.53 277.598L462.552 277.598Z" fill="#998C89"/>
<path fill-rule="evenodd" clip-rule="evenodd" d="M10.757 221.948V216.018H11.7349V221.948H10.757ZM10.757 271.239V228.619H11.7349V271.239H10.757ZM10.757 320.901V277.91H11.7349V320.901H10.757ZM10.757 369.822V327.572H11.7349V369.822H10.757ZM10.757 383.164V376.308H11.7349V383.164H10.757Z" fill="#331812"/>
<path fill-rule="evenodd" clip-rule="evenodd" d="M145.709 457.451L145.709 288.35L146.687 288.35L146.687 457.451L145.709 457.451Z" fill="#331812"/>
<path fill-rule="evenodd" clip-rule="evenodd" d="M142.775 459.406V291.283H143.753V459.406H142.775Z" fill="#331812"/>
<path fill-rule="evenodd" clip-rule="evenodd" d="M137.161 457.451L14.6687 387.342L15.3931 386.096L137.886 456.205L137.161 457.451Z" fill="#331812"/>
<path fill-rule="evenodd" clip-rule="evenodd" d="M134.234 466.248L14.6687 399.068L15.3861 397.826L134.952 465.006L134.234 466.248Z" fill="#331812"/>
<path fill-rule="evenodd" clip-rule="evenodd" d="M10.3423 388.709L0 382.494L0.822849 381.209L11.128 387.401L14.8387 385.227L15.6466 386.521L11.9035 388.714V400.758H10.3423V388.709Z" fill="#331812"/>
<path fill-rule="evenodd" clip-rule="evenodd" d="M6.8454 219.294V214.063H8.80122V219.294H6.8454ZM6.8454 269.357V226.019H8.80122V269.357H6.8454ZM6.8454 319.421V275.709H8.80122V319.421H6.8454ZM6.8454 368.363V325.772H8.80122V368.363H6.8454ZM6.8454 382.186V375.275H8.80122V382.186H6.8454Z" fill="#331812"/>
<path fill-rule="evenodd" clip-rule="evenodd" d="M7.25688 377.299L7.99357 378.626L1.48883 382.422V394.396L10.6938 399.975L14.13 398.006L13.7745 386.426L7.23008 382.224L8.02038 380.93L15.2376 385.564L15.6466 398.885L10.673 401.736L0 395.266V381.535L7.25688 377.299Z" fill="#331812"/>
<path fill-rule="evenodd" clip-rule="evenodd" d="M148.643 455.842L471.612 271.734L472.33 272.99L149.36 457.098L148.643 455.842ZM472.331 284.261L152.982 467.225L152.262 465.97L471.611 283.006L472.331 284.261Z" fill="#331812"/>
<path fill-rule="evenodd" clip-rule="evenodd" d="M471.353 271.734L471.353 98.7234L472.331 98.7234L472.331 271.734L471.353 271.734Z" fill="#331812"/>
<path fill-rule="evenodd" clip-rule="evenodd" d="M484.688 267.615L478.718 264.269L479.452 262.937L487 267.166V280.071L475.504 287.373L470.375 284.081V271.184L479.108 266.151L479.858 267.474L472.788 271.549L475.472 272.78L484.688 267.615ZM485.489 268.91L476.262 274.081V285.09L485.489 279.23V268.91ZM474.75 285.082V274.124L471.887 272.811V283.244L474.75 285.082Z" fill="#331812"/>
<path fill-rule="evenodd" clip-rule="evenodd" d="M20.5361 202.334V197.447H21.514V202.334H20.5361Z" fill="#331812"/>
<path fill-rule="evenodd" clip-rule="evenodd" d="M10.7512 190.604L21.5141 197.187L20.7833 198.52L10.7415 192.379L1.45853 197.906V209.346L10.8185 215.29L13.8401 214.077L13.4918 202.301L14.9496 202.252L15.3304 215.127L10.6742 216.996L0 210.217V197.006L10.7512 190.604Z" fill="#331812"/>
<path fill-rule="evenodd" clip-rule="evenodd" d="M464.508 86.9938V83.084H465.486V86.9938H464.508Z" fill="#331812"/>
<path fill-rule="evenodd" clip-rule="evenodd" d="M343.567 0L353.026 6.44027L353.026 11.2834L351.745 11.2834V8.20012L344.213 13.3354V16.381L346.67 14.6619L347.893 15.677L343.553 18.5717L338.234 15.0605L338.919 13.7696L342.932 16.2971V13.327L335.727 8.22539V11.9562H334.446V6.4486L343.567 0ZM336.342 6.88399L343.579 12.0086L351.094 6.88399L343.579 1.76715L336.342 6.88399Z" fill="#331812"/>
<path fill-rule="evenodd" clip-rule="evenodd" d="M472.332 88.2413L151.323 272.711L150.599 271.463L471.608 86.9937L472.332 88.2413Z" fill="#331812"/>
<path fill-rule="evenodd" clip-rule="evenodd" d="M475.158 76.2418L486.022 81.9549V94.5829L475.62 100.678L471.389 99.0253L471.943 97.6597L474.805 98.7778V88.8969L463.53 82.5823L475.158 76.2418ZM476.302 88.8734V98.5666L484.525 93.7486V83.7342L476.302 88.8734ZM483.792 82.4496L475.171 77.9162L466.582 82.5994L475.532 87.6121L483.792 82.4496Z" fill="#331812"/>
<path fill-rule="evenodd" clip-rule="evenodd" d="M144.114 265.869L153.532 273.097V285.459L143.753 292.26L133.974 285.459V272.67L144.114 265.869ZM135.278 274.463V284.581L143.101 290.022V279.904L135.278 274.463ZM144.405 279.918V290.022L152.228 284.581V274.817L144.405 279.918ZM151.615 273.46L143.763 278.58L135.926 273.129L144.068 267.668L151.615 273.46Z" fill="#331812"/>
<path fill-rule="evenodd" clip-rule="evenodd" d="M469.327 85.3161L146.433 270.186L145.709 268.931L468.603 84.0615L469.327 85.3161ZM473.309 86.4977V98.3158L152.972 282.486L152.246 281.232L471.856 97.4801V86.4977H473.309Z" fill="#331812"/>
<path fill-rule="evenodd" clip-rule="evenodd" d="M18.0507 199.402L140.819 269.628L140.091 270.871L17.3229 200.644L18.0507 199.402ZM133.677 282.486L13.6907 213.924L14.418 212.681L134.405 281.243L133.677 282.486Z" fill="#331812"/>
<path fill-rule="evenodd" clip-rule="evenodd" d="M334.676 9.77454L339.335 12.7457V15.7232L21.7516 198.424L21.0347 197.173L337.896 14.888V13.5375L334.637 11.4595L15.3843 194.674L14.6687 193.422L334.676 9.77454Z" fill="#331812"/>
<path fill-rule="evenodd" clip-rule="evenodd" d="M349.647 8.79712L472.331 78.8278L471.605 80.0822L349.655 10.4711L346.661 12.2186V14.522L466.136 82.8074L465.408 84.0615L345.203 14.9403V11.3908L349.647 8.79712Z" fill="#331812"/>
<path fill-rule="evenodd" clip-rule="evenodd" d="M479.177 267.824L479.177 97.7458L480.155 97.7458L480.155 267.824L479.177 267.824Z" fill="#331812"/>
<path fill-rule="evenodd" clip-rule="evenodd" d="M475.265 268.801V99.7008H476.243V268.801H475.265Z" fill="#331812"/>
<path fill-rule="evenodd" clip-rule="evenodd" d="M140.055 454.519L140.707 455.787L135.957 458.607L143.417 463.824L151.57 458.544L147.441 455.766L148.158 454.539L153.532 458.155V470.842L143.39 477L133.974 470.826V458.129L140.055 454.519ZM152.183 459.839L144.077 465.088V474.918L152.183 469.997V459.839ZM142.728 474.869V465.072L135.323 459.892V470.013L142.728 474.869Z" fill="#331812"/>
<path fill-rule="evenodd" clip-rule="evenodd" d="M139.841 295.303V289.328H140.984V295.303H139.841ZM139.841 345.842V302.416H140.984V345.842H139.841ZM139.841 393.761V352.955H140.984V393.761H139.841ZM139.841 443.926V400.499H140.984V443.926H139.841ZM139.841 450.852H140.984V457.333L143.259 458.763L146.139 456.787L146.687 458.049L143.282 460.383L139.841 458.221V450.852Z" fill="#331812"/>
<path fill-rule="evenodd" clip-rule="evenodd" d="M74.3213 422.262V248.275H76.2771V422.262H74.3213Z" fill="#331812"/>
<path fill-rule="evenodd" clip-rule="evenodd" d="M18.5803 246.32L64.5422 273.653V287.373L18.5803 260.039V246.32ZM19.2767 247.579V259.608L63.8458 286.114V274.084L19.2767 247.579Z" fill="#331812"/>
<path fill-rule="evenodd" clip-rule="evenodd" d="M83.1225 285.418L132.996 312.093V325.494L83.1225 298.819V285.418ZM83.8669 286.65V298.383L132.252 324.262V312.529L83.8669 286.65Z" fill="#331812"/>
<path fill-rule="evenodd" clip-rule="evenodd" d="M83.1225 334.291L132.996 360.966V374.367L83.1225 347.692V334.291ZM83.8669 335.523V347.256L132.252 373.135V361.402L83.8669 335.523Z" fill="#331812"/>
<path fill-rule="evenodd" clip-rule="evenodd" d="M83.1225 384.141L132.996 410.816V424.217L83.1225 397.542V384.141ZM83.8669 385.374V397.107L132.252 422.985V411.252L83.8669 385.374Z" fill="#331812"/>
<path fill-rule="evenodd" clip-rule="evenodd" d="M18.5803 298.125L64.5422 324.149V337.223L18.5803 311.199V298.125ZM19.2767 299.336V310.777L63.8458 336.013V324.571L19.2767 299.336Z" fill="#331812"/>
<path fill-rule="evenodd" clip-rule="evenodd" d="M18.5803 346.021L64.5422 372.695V386.096L18.5803 359.422V346.021ZM19.2767 347.261V358.989L63.8458 384.855V373.128L19.2767 347.261Z" fill="#331812"/>
<path fill-rule="evenodd" clip-rule="evenodd" d="M133.974 291.283L143.753 296.755V304.967L133.974 299.495V291.283ZM135.196 293.549V298.596L142.531 302.7V297.653L135.196 293.549Z" fill="#998C89"/>
<path fill-rule="evenodd" clip-rule="evenodd" d="M133.974 340.156L143.753 346.019V354.818L133.974 348.955V340.156ZM135.196 342.584V347.992L142.531 352.389V346.982L135.196 342.584Z" fill="#998C89"/>
<path fill-rule="evenodd" clip-rule="evenodd" d="M133.974 390.006L143.753 395.869V404.668L133.974 398.805V390.006ZM135.196 392.435V397.842L142.531 402.239V396.832L135.196 392.435Z" fill="#998C89"/>
<path fill-rule="evenodd" clip-rule="evenodd" d="M133.974 438.879L143.753 444.742V453.541L133.974 447.678V438.879ZM135.196 441.308V446.715L142.531 451.112V445.705L135.196 441.308Z" fill="#998C89"/>
<path fill-rule="evenodd" clip-rule="evenodd" d="M5.86749 217.973L18.5803 224.56V233.613L5.86749 226.148V217.973ZM7.4566 220.466V225.355L16.9912 230.954V225.406L7.4566 220.466Z" fill="#998C89"/>
<path fill-rule="evenodd" clip-rule="evenodd" d="M5.86749 266.846L18.5803 273.433V282.486L5.86749 275.021V266.846ZM7.4566 269.338V274.228L16.9912 279.827V274.279L7.4566 269.338Z" fill="#998C89"/>
<path fill-rule="evenodd" clip-rule="evenodd" d="M5.86749 318.652L18.5803 324.798V333.313L5.86749 326.348V318.652ZM7.4566 321.047V325.541L16.9912 330.765V325.657L7.4566 321.047Z" fill="#998C89"/>
<path fill-rule="evenodd" clip-rule="evenodd" d="M5.86743 366.547L18.5803 373.134V382.186L5.86743 374.721V366.547ZM7.45654 369.039V373.929L16.9912 379.527V373.979L7.45654 369.039Z" fill="#998C89"/>
<path fill-rule="evenodd" clip-rule="evenodd" d="M11.1509 204.635L21.5141 197.804L20.7338 196.469L10.4116 203.273L0.820702 196.483L0 197.79L9.67056 204.637L10.0278 216.018L11.5065 215.966L11.1509 204.635Z" fill="#331812"/>
</svg>
