{
	"meshes":[{
		"name":"Щепа",
		"primitives":[{
			"attributes":{
				"POSITION":1
			},
			"indices":0,
			"material":0
		}]
	}],
	"asset":{
		"version":"2.0",
		"generator":""
	},
	"scenes":[{
		"nodes":[0]
	}],
	"nodes":[{
		"name":"Щепа",
		"mesh":0,
		"translation":[-0.6032991409301758,
		0.0,
		0.0],
		"rotation":[0.0,
		0.0,
		0.0,
		-1.0],
		"scale":[50.0,
		50.0,
		50.0]
	}],
	"accessors":[{
		"bufferView":0,
		"type":"SCALAR",
		"componentType":5123,
		"count":27000,
		"byteOffset":0,
		"min":[0],
		"max":[4501]
	},
	{
		"bufferView":1,
		"type":"VEC3",
		"componentType":5126,
		"count":4502,
		"byteOffset":0,
		"min":[-0.006676609627902508,
		-0.008813449181616307,
		-0.0031614864710718395],
		"max":[0.006895584054291248,
		0.008594159036874771,
		0.003491788636893034]
	}],
	"bufferViews":[{
		"buffer":0,
		"byteOffset":0,
		"byteLength":54000,
		"target":34963
	},
	{
		"buffer":0,
		"byteOffset":54000,
		"byteLength":54024,
		"target":34962
	}],
	"buffers":[{
		"uri":"data:application/octet-stream;base64,",
		"byteLength":108024
	}],
	"materials":[{
		"pbrMetallicRoughness":{
			"baseColorFactor":[1.0,
			1.0,
			1.0,
			1.0],
			"metallicFactor":1.0,
			"roughnessFactor":1.0
		},
		"emissiveFactor":[0.0,
		0.0,
		0.0],
		"alphaMode":"OPAQUE",
		"doubleSided":false,
		"name":"standard_surface"
	}]
}