<svg width="512" height="512" viewBox="0 0 512 512" fill="none" xmlns="http://www.w3.org/2000/svg">
<rect width="512" height="512" rx="256" fill="#F7EDDF"/>
<path fill-rule="evenodd" clip-rule="evenodd" d="M170.821 117.775C180.087 131.494 170.821 154.112 153.771 170.798C140.997 183.299 116.705 194.528 104.103 185.259L177.653 260.252L242.422 325.788L241.671 329.262C238.103 329.642 234.535 330.02 230.967 330.398C246.064 341.361 247.917 360.642 243.542 370.838L274.604 366.575L284.241 368.701C284.241 368.701 291.378 375.347 300.713 384.722C320.267 404.356 319.844 404.071 329.299 404.017C334.034 403.989 335.804 403.683 340.151 402.136C353.352 397.439 367.992 385.647 377.442 372.101C384.573 361.878 387.887 353.125 387.932 344.394C387.982 334.492 392.457 339.774 332.531 279.015C309.977 256.147 294.64 239.977 287.207 231.237L283.129 214.551C284.347 202.077 285.825 169.609 285.825 169.609C273.081 176.576 251.133 174.517 244.955 159.736L243.625 171.622C243.189 175.524 242.728 180.809 242.728 180.809L239.021 182.463C217.991 162.534 191.802 137.755 170.821 117.775Z" fill="#6D1F09"/>
<path d="M234.265 346.162C239.611 356.391 240.613 368.152 233.641 371.799C226.669 375.446 214.364 369.597 209.018 359.368C203.672 349.14 204.99 337.892 211.961 334.246C218.933 330.599 228.919 335.934 234.265 346.162Z" fill="#6D1F09"/>
<path d="M147.78 164.562C131.654 182.837 112.63 192.398 105.29 185.916C97.9503 179.435 105.073 159.365 121.199 141.09C137.326 122.815 156.349 113.255 163.689 119.736C171.029 126.218 163.906 146.287 147.78 164.562Z" fill="#6D1F09"/>
<path d="M266.079 166.669C254.82 166.669 245.693 161.191 245.693 154.433C245.693 147.675 254.82 142.197 266.079 142.197C277.338 142.197 286.465 147.675 286.465 154.433C286.465 161.191 277.338 166.669 266.079 166.669Z" fill="#6D1F09"/>
</svg>
